<svg xmlns="http://www.w3.org/2000/svg" xmlns:xlink="http://www.w3.org/1999/xlink" width="745.16" height="141.79" viewBox="0 0 745.16 141.79">
  <defs>
    <clipPath id="clip-path" transform="translate(0)">
      <rect y="4.87" width="105.57" height="126.28" style="fill: none"/>
    </clipPath>
  </defs>
  <title>Asset 6</title>
  <g id="Layer_2" data-name="Layer 2">
    <g id="Layer_2-2" data-name="Layer 2">
      <g>
        <polygon points="12.87 123.08 14.19 123.08 14.19 130.77 15.99 130.77 15.99 121.52 12.87 121.52 12.87 123.08 12.87 123.08" style="fill: #c05a46"/>
        <path d="M23.24,126.16a1.7,1.7,0,1,1,1.7-1.7,1.66,1.66,0,0,1-1.7,1.7Zm0-4.85a3.19,3.19,0,0,0-3.49,3.29,2.87,2.87,0,0,0,2.9,3,2.49,2.49,0,0,0,1-.23l-2.19,2.8,1.27,1,2.81-3.77a4.76,4.76,0,0,0,1.16-2.88,3.17,3.17,0,0,0-3.5-3.19Z" transform="translate(0)" style="fill: #c05a46"/>
        <path d="M33.34,127.69H31L33.34,124v3.67ZM35,121.36H33.41l-4.57,7v.8h4.5v1.64H35v-1.64H36.1v-1.44H35v-6.33Z" transform="translate(0)" style="fill: #c05a46"/>
        <path d="M41.49,124.47a3.49,3.49,0,0,0-.61.06l.33-1.46h3.06v-1.55H40l-1.09,4.85H39a2.83,2.83,0,0,1,1.77-.59,1.85,1.85,0,0,1,2.08,1.85A1.73,1.73,0,0,1,41,129.42a3,3,0,0,1-2.33-1.18l-.59,1.56a4,4,0,0,0,3,1.17c2.55,0,3.61-1.62,3.61-3.36a3,3,0,0,0-3.2-3.14Z" transform="translate(0)" style="fill: #c05a46"/>
        <polygon points="47.26 127.47 54.58 127.47 54.58 126.03 47.26 126.03 47.26 127.47 47.26 127.47" style="fill: #c05a46"/>
        <path d="M61.84,127.48a4.86,4.86,0,0,0,1.67-3.23,3,3,0,0,0-3.24-2.94A3.09,3.09,0,0,0,57,124.4h1.85a1.47,1.47,0,0,1,1.47-1.53,1.34,1.34,0,0,1,1.37,1.4,2.91,2.91,0,0,1-.54,1.48c-.34.5-1.41,1.73-1.58,1.93l-2.7,3.09h6.68v-1.56H60.25l1.59-1.73Z" transform="translate(0)" style="fill: #c05a46"/>
        <path d="M69.79,129.42c-.78,0-1.76-.87-1.76-3.28s1-3.27,1.76-3.27,1.77.87,1.77,3.27-1,3.28-1.77,3.28Zm0-8.11c-1.83,0-3.56,1.65-3.56,4.83S68,131,69.79,131s3.57-1.65,3.57-4.82-1.73-4.84-3.57-4.84Z" transform="translate(0)" style="fill: #c05a46"/>
        <path d="M80.29,127.48A4.86,4.86,0,0,0,82,124.25a3,3,0,0,0-3.25-2.94,3.08,3.08,0,0,0-3.23,3.09h1.85a1.47,1.47,0,0,1,1.47-1.53,1.33,1.33,0,0,1,1.36,1.4,3,3,0,0,1-.53,1.48c-.34.5-1.41,1.73-1.58,1.93l-2.71,3.09H82v-1.56H78.7l1.59-1.73Z" transform="translate(0)" style="fill: #c05a46"/>
        <g style="clip-path: url(#clip-path)">
          <path d="M88.24,129.42c-.79,0-1.77-.87-1.77-3.28s1-3.27,1.77-3.27,1.77.87,1.77,3.27-1,3.28-1.77,3.28Zm0-8.11c-1.83,0-3.56,1.65-3.56,4.83S86.41,131,88.24,131s3.57-1.65,3.57-4.82-1.73-4.84-3.57-4.84Z" transform="translate(0)" style="fill: #c05a46"/>
          <polygon points="14.6 113.9 14.6 97.28 0 97.28 0 113.9 4.31 113.9 4.31 100.97 10.26 100.97 10.26 113.9 14.6 113.9 14.6 113.9" style="fill: #c05a46"/>
        </g>
        <path d="M21.28,105.68a4.57,4.57,0,0,1,1.32-3.27A4.79,4.79,0,0,1,26,101.09a5,5,0,0,1,3.34,1.32,4.51,4.51,0,0,1,1.34,3.19A4.51,4.51,0,0,1,26,110.09a4.73,4.73,0,0,1-3.36-1.32,4.24,4.24,0,0,1-1.32-3.09Zm11.23,6.12a8.67,8.67,0,0,0,0-12.42A9.45,9.45,0,0,0,26,96.91a9.45,9.45,0,0,0-6.55,2.47,8.67,8.67,0,0,0,0,12.42A9.45,9.45,0,0,0,26,114.27a9.45,9.45,0,0,0,6.55-2.47Z" transform="translate(0)" style="fill: #c05a46"/>
        <path d="M41.63,110.53V107.1h1.49a2.89,2.89,0,0,1,1.85.45,1.64,1.64,0,0,1,.49,1.24A1.69,1.69,0,0,1,45,110a2.68,2.68,0,0,1-1.92.57Zm6.85,1.87a5,5,0,0,0,1.37-3.53,5,5,0,0,0-1.27-3.44c-1.25-1.3-3.14-1.62-5.26-1.62H41.63V101H48.1V97.28H37.3V113.9h5.87c2,0,4-.2,5.31-1.5Z" transform="translate(0)" style="fill: #c05a46"/>
        <polygon points="61.45 100.94 61.45 97.28 52.01 97.28 52.01 113.9 61.45 113.9 61.45 110.23 56.31 110.23 56.31 107.37 61.17 107.37 61.17 103.71 56.31 103.71 56.31 100.94 61.45 100.94 61.45 100.94" style="fill: #c05a46"/>
        <path d="M74.27,110.56H68.4A5.81,5.81,0,0,0,69.84,108a13.78,13.78,0,0,0,.4-3.49v-3.91h4v9.94Zm6.33,7.07v-7.07h-2V97.28H66.05v6.83c0,2.36-.19,4.16-1.44,5.45a3.15,3.15,0,0,1-1.89,1v7.07H66.6V113.9H76.71v3.73Z" transform="translate(0)" style="fill: #c05a46"/>
        <path d="M88.56,107.82l1.82-5.38,1.87,5.38Zm-.49-10.54L81.69,113.9h4.56l1.12-2.79h6l1,2.79H99L92.77,97.28Z" transform="translate(0)" style="fill: #c05a46"/>
        <path d="M104.85,110a2.61,2.61,0,0,0-1.84-.8,2.52,2.52,0,0,0-1.82.77,2.54,2.54,0,0,0,0,3.64,2.52,2.52,0,0,0,1.82.77,2.57,2.57,0,0,0,1.82-.77,2.41,2.41,0,0,0,.74-1.82,2.35,2.35,0,0,0-.72-1.79Z" transform="translate(0)" style="fill: #c05a46"/>
        <polygon points="105.05 97.28 100.92 97.28 100.92 108.24 105.05 108.24 105.05 97.28 105.05 97.28" style="fill: #c05a46"/>
        <path d="M40.85,52.64c2.36-9.41,7.06-17.86,13-25.48l1.72,2,2-6.7-6.78,1.12,1.71,2c-9.2,5-30.63,17.58-37.3,48.45-1.12,5.15-2.11,13.36-2.11,13.36s16.75.19,25.87-.78c-.13-11.32-.9-23,1.84-34Z" transform="translate(0)" style="fill: #c05a46"/>
        <g style="clip-path: url(#clip-path)">
          <path d="M91,45c-3.62-16.22-24.26-15.69-33.86-7.09l-1.21-2.39-3.57,6,6.86.5L58,39.67c7.42-2.88,19.4-1.43,18.06,9.2S57.62,63.15,48.32,64.55V85.64C49.82,85.71,97.76,75.35,91,45Z" transform="translate(0)" style="fill: #c05a46"/>
          <path d="M83.87,17.9a34,34,0,0,0,4.44-8l1.85,1.85,1.48-6.85L85,6.55l1.87,1.87a36.54,36.54,0,0,1-10.71,4.07A73.56,73.56,0,0,1,62.94,14c-.32,1-3.86,12.89-5.08,16.94,10.53,0,21.4-6.66,26-13Z" transform="translate(0)" style="fill: #c05a46"/>
        </g>
        <path d="M52.74,18.23l-1,2.52,6.76-1.1L54.4,13.89l-1,2.53A50.69,50.69,0,0,0,36.52,8.64c-5.45-1.35-12.11-1-18.61.36V32.79C37.16,17.21,52.75,18.24,52.74,18.23Z" transform="translate(0)" style="fill: #c05a46"/>
      </g>
      <line x1="135.18" y1="6.87" x2="135.18" y2="47.97" style="fill: none;stroke: #ebebeb;stroke-miterlimit: 10;stroke-width: 7px"/>
      <line x1="135.18" y1="47.46" x2="135.18" y2="88.56" style="fill: none;stroke: #6a88c1;stroke-miterlimit: 10;stroke-width: 7px"/>
      <line x1="135.18" y1="88.46" x2="135.18" y2="129.56" style="fill: none;stroke: #eb5458;stroke-miterlimit: 10;stroke-width: 7px"/>
      <g>
        <path d="M324.18,37.85v-1.4h-.29a4.17,4.17,0,0,1-3.13-1.22,4.61,4.61,0,0,1-1.19-3.39V29.09a4.69,4.69,0,0,1,1.19-3.42,4.12,4.12,0,0,1,3.13-1.25h.29V23.09H326v1.33h.28a4.16,4.16,0,0,1,3.14,1.25,4.72,4.72,0,0,1,1.18,3.42v2.75a4.65,4.65,0,0,1-1.18,3.39,4.21,4.21,0,0,1-3.14,1.22H326v1.4Zm-.36-3.15h.36V26.17h-.36c-1.62,0-2.43,1-2.43,2.92v2.75A3.1,3.1,0,0,0,322,34,2.25,2.25,0,0,0,323.82,34.7Zm2.16,0h.34c1.63,0,2.45-1,2.45-2.86V29.09c0-1.95-.82-2.92-2.45-2.92H326Z" transform="translate(0)" style="fill: #434343"/>
        <path d="M334.17,35h4.53v1.71h-6.35V24.14h6.17v1.71h-4.35V29.5h4v1.67h-4Z" transform="translate(0)" style="fill: #434343"/>
        <path d="M347.94,35h1.11v3.81h-1.78v-2.1h-6v2.1h-1.79V35h.74q1.31-1.32,1.42-4.81l.22-6.08h6.07Zm-1.8,0V25.85h-2.56l-.18,4.87a9.58,9.58,0,0,1-1,4.31Z" transform="translate(0)" style="fill: #434343"/>
        <path d="M352.47,35H357v1.71h-6.36V24.14h6.18v1.71h-4.36V29.5h4v1.67h-4Z" transform="translate(0)" style="fill: #434343"/>
        <path d="M362.28,24.14a3.7,3.7,0,0,1,2.86,1.07,4.15,4.15,0,0,1,1,3,4.24,4.24,0,0,1-1,3.05,3.77,3.77,0,0,1-2.86,1.06h-1.51v4.43H359V24.14Zm0,6.44c1.36,0,2-.79,2-2.38s-.68-2.34-2-2.34h-1.49v4.72Z" transform="translate(0)" style="fill: #434343"/>
        <path d="M372.47,36.74l-.59-2.54h-3.33L368,36.74h-1.91l3.17-12.6h2l3.17,12.6Zm-3.53-4.23h2.56l-.79-3.39c-.18-.84-.34-1.74-.47-2.7h-.06c-.15,1.14-.31,2-.46,2.7Z" transform="translate(0)" style="fill: #434343"/>
        <path d="M376.66,24.14h6.23v12.6h-1.82V25.85h-2.66c-.2,4.23-.4,6.91-.58,8a3.7,3.7,0,0,1-1,2.34,3.07,3.07,0,0,1-2.13.69V35.26a1.12,1.12,0,0,0,.92-.41,2.92,2.92,0,0,0,.47-1.37C376.26,32.33,376.45,29.21,376.66,24.14Z" transform="translate(0)" style="fill: #434343"/>
        <path d="M385.41,36.74V24.14h1.82v5h1.55a3.71,3.71,0,0,1,2.79,1,3.84,3.84,0,0,1,1,2.78,3.4,3.4,0,0,1-3.78,3.78Zm1.82-1.68h1.46a1.94,1.94,0,0,0,1.47-.53,2.14,2.14,0,0,0,.53-1.57,2.09,2.09,0,0,0-.53-1.55,2,2,0,0,0-1.47-.52h-1.46Z" transform="translate(0)" style="fill: #434343"/>
        <path d="M399.56,24.14h1.82v12.6h-1.82V31.21H396v5.53h-1.82V24.14H396V29.5h3.56Z" transform="translate(0)" style="fill: #434343"/>
        <path d="M410.22,35.85a4.14,4.14,0,0,1-5.66,0,4.47,4.47,0,0,1-1-3.11V28.13a4.44,4.44,0,0,1,1-3.1,4.11,4.11,0,0,1,5.66,0,4.44,4.44,0,0,1,1,3.1v4.61A4.47,4.47,0,0,1,410.22,35.85Zm-2.83-.66a1.79,1.79,0,0,0,1.48-.63,2.9,2.9,0,0,0,.5-1.82V28.13a2.9,2.9,0,0,0-.5-1.82,1.79,1.79,0,0,0-1.48-.63c-1.32,0-2,.82-2,2.45v4.61C405.41,34.37,406.07,35.19,407.39,35.19Z" transform="translate(0)" style="fill: #434343"/>
        <path d="M415.22,35h4.54v1.71H413.4V24.14h6.18v1.71h-4.36V29.5h4v1.67h-4Z" transform="translate(0)" style="fill: #434343"/>
        <path d="M431.6,24.14v1.72h-4.21V36.74h-1.82V24.14Z" transform="translate(0)" style="fill: #434343"/>
        <path d="M439.48,35.85A3.61,3.61,0,0,1,436.66,37a3.65,3.65,0,0,1-2.83-1.12,4.47,4.47,0,0,1-1-3.11V28.13a4.44,4.44,0,0,1,1-3.1,3.65,3.65,0,0,1,2.83-1.13A3.62,3.62,0,0,1,439.48,25a4.4,4.4,0,0,1,1,3.1v4.61A4.42,4.42,0,0,1,439.48,35.85Zm-2.82-.66a1.76,1.76,0,0,0,1.47-.63,2.84,2.84,0,0,0,.51-1.82V28.13a2.84,2.84,0,0,0-.51-1.82,1.76,1.76,0,0,0-1.47-.63c-1.32,0-2,.82-2,2.45v4.61C434.68,34.37,435.34,35.19,436.66,35.19Z" transform="translate(0)" style="fill: #434343"/>
        <path d="M446,37a3.53,3.53,0,0,1-2.67-1,4.05,4.05,0,0,1-1-2.9V27.84a4,4,0,0,1,1-2.91,3.49,3.49,0,0,1,2.67-1,3.58,3.58,0,0,1,2.7,1,4.24,4.24,0,0,1,1,2.87h-1.8c-.11-1.43-.76-2.14-2-2.14a1.62,1.62,0,0,0-1.3.56,2.52,2.52,0,0,0-.47,1.65V33a2.46,2.46,0,0,0,.48,1.65,1.68,1.68,0,0,0,1.32.54c1.21,0,1.88-.7,2-2.12h1.8A4.2,4.2,0,0,1,448.69,36,3.62,3.62,0,0,1,446,37Z" transform="translate(0)" style="fill: #434343"/>
        <path d="M456.15,24.14h1.91l-3.06,10a4.62,4.62,0,0,1-1.25,2.2,3.36,3.36,0,0,1-2.19.63h-.45V35.28h.5a1.43,1.43,0,0,0,1.1-.4,3.4,3.4,0,0,0,.67-1.37l.14-.46-3.17-8.91h1.93l2.05,6.13Z" transform="translate(0)" style="fill: #434343"/>
        <path d="M465.73,35h1.11v3.81h-1.78v-2.1h-6v2.1h-1.78V35H458q1.31-1.32,1.42-4.81l.22-6.08h6.07Zm-1.8,0V25.85h-2.56l-.18,4.87a9.58,9.58,0,0,1-1,4.31Z" transform="translate(0)" style="fill: #434343"/>
        <path d="M473.72,36.74l-.59-2.54H469.8l-.58,2.54h-1.91l3.17-12.6h2l3.17,12.6Zm-3.53-4.23h2.56l-.8-3.39c-.18-.84-.33-1.74-.46-2.7h-.06a26.73,26.73,0,0,1-.47,2.7Z" transform="translate(0)" style="fill: #434343"/>
        <path d="M480.34,24.14a3.74,3.74,0,0,1,2.87,1.07,4.19,4.19,0,0,1,1,3,4.28,4.28,0,0,1-1,3.05,3.81,3.81,0,0,1-2.87,1.06h-1.51v4.43H477V24.14Zm0,6.44c1.35,0,2-.79,2-2.38s-.68-2.34-2-2.34h-1.5v4.72Z" transform="translate(0)" style="fill: #434343"/>
        <path d="M489.32,37a3.55,3.55,0,0,1-2.67-1,4.05,4.05,0,0,1-1-2.9V27.84a4,4,0,0,1,1-2.91,3.49,3.49,0,0,1,2.67-1,3.58,3.58,0,0,1,2.7,1,4.24,4.24,0,0,1,1,2.87h-1.8c-.11-1.43-.76-2.14-2-2.14a1.62,1.62,0,0,0-1.3.56,2.52,2.52,0,0,0-.47,1.65V33a2.46,2.46,0,0,0,.48,1.65,1.68,1.68,0,0,0,1.32.54c1.22,0,1.88-.7,2-2.12h1.8A4.15,4.15,0,0,1,492.05,36,3.62,3.62,0,0,1,489.32,37Z" transform="translate(0)" style="fill: #434343"/>
        <path d="M501,24.14v1.72h-2.63V36.74h-1.86V25.86h-2.61V24.14Z" transform="translate(0)" style="fill: #434343"/>
        <path d="M508,30.26a2.65,2.65,0,0,1,1.27,1.09,3.28,3.28,0,0,1,.47,1.79,3.5,3.5,0,0,1-1,2.63,3.64,3.64,0,0,1-2.64,1h-3.61V24.14h3.42a3.23,3.23,0,0,1,2.44.92,3.4,3.4,0,0,1,.91,2.5A3,3,0,0,1,508,30.26Zm-2.29-4.41h-1.39v3.61h1.44c1.11,0,1.66-.61,1.66-1.85A1.53,1.53,0,0,0,505.67,25.85Zm.16,9.18c1.34,0,2-.63,2-1.89a1.86,1.86,0,0,0-.56-1.46,2.18,2.18,0,0,0-1.53-.51h-1.48V35Z" transform="translate(0)" style="fill: #434343"/>
        <path d="M513.23,35h4.53v1.71h-6.35V24.14h6.17v1.71h-4.35V29.5h4v1.67h-4Z" transform="translate(0)" style="fill: #434343"/>
        <path d="M525.09,24.14h1.82v12.6h-1.82V31.21h-3.56v5.53h-1.82V24.14h1.82V29.5h3.56Z" transform="translate(0)" style="fill: #434343"/>
        <path d="M534.81,24.14h1.82v12.6h-1.82V31.21h-3.56v5.53h-1.82V24.14h1.82V29.5h3.56Z" transform="translate(0)" style="fill: #434343"/>
        <path d="M545.47,35.85a4.14,4.14,0,0,1-5.66,0,4.47,4.47,0,0,1-1-3.11V28.13a4.44,4.44,0,0,1,1-3.1,4.11,4.11,0,0,1,5.66,0,4.44,4.44,0,0,1,1,3.1v4.61A4.47,4.47,0,0,1,545.47,35.85Zm-2.83-.66a1.79,1.79,0,0,0,1.48-.63,2.9,2.9,0,0,0,.5-1.82V28.13a2.9,2.9,0,0,0-.5-1.82,1.79,1.79,0,0,0-1.48-.63c-1.32,0-2,.82-2,2.45v4.61C540.66,34.37,541.32,35.19,542.64,35.19Z" transform="translate(0)" style="fill: #434343"/>
        <path d="M550.47,35H555v1.71h-6.36V24.14h6.18v1.71h-4.36V29.5h4v1.67h-4Z" transform="translate(0)" style="fill: #434343"/>
        <path d="M564.28,29.1a3.74,3.74,0,0,1,2.78,1,3.82,3.82,0,0,1,1,2.77,3.86,3.86,0,0,1-1,2.85,3.78,3.78,0,0,1-2.8,1h-3.46V24.14h6.55v1.71h-4.73V29.1ZM564.17,35a2.05,2.05,0,0,0,1.49-.53,2.13,2.13,0,0,0,.54-1.58,2.08,2.08,0,0,0-.55-1.56,2,2,0,0,0-1.48-.54h-1.53V35Z" transform="translate(0)" style="fill: #434343"/>
        <path d="M574.69,25.09a4,4,0,0,1,5.6,0,4.67,4.67,0,0,1,1,3.17v4.35a4.65,4.65,0,0,1-1,3.17,4,4,0,0,1-5.6,0,4.6,4.6,0,0,1-1-3.17v-1.4h-2v5.53h-1.8V24.14h1.8V29.5h2V28.26A4.62,4.62,0,0,1,574.69,25.09Zm4.74,7.52V28.26c0-1.69-.64-2.54-1.94-2.54s-1.93.85-1.93,2.54v4.35c0,1.7.64,2.54,1.93,2.54S579.43,34.31,579.43,32.61Z" transform="translate(0)" style="fill: #434343"/>
        <path d="M590.75,35h1.12v3.81h-1.78v-2.1h-6v2.1h-1.78V35h.74c.86-.88,1.34-2.48,1.42-4.81l.22-6.08h6.06ZM589,35V25.85H586.4l-.18,4.87a9.58,9.58,0,0,1-1,4.31Z" transform="translate(0)" style="fill: #434343"/>
        <path d="M603.19,36.74l-3-5.35-.61,1v4.4h-1.76v-4.4l-.62-1-3,5.35h-2l4-6.88-3.71-5.72h2.09L597,28l.87,1.57V24.14h1.76v5.47l.92-1.64,2.32-3.83h2.09l-3.71,5.72,4,6.88Z" transform="translate(0)" style="fill: #434343"/>
        <path d="M608.25,35h4.54v1.71h-6.36V24.14h6.18v1.71h-4.36V29.5h4v1.67h-4Z" transform="translate(0)" style="fill: #434343"/>
        <path d="M620.87,24.14v1.72h-2.63V36.74h-1.85V25.86h-2.61V24.14Z" transform="translate(0)" style="fill: #434343"/>
        <path d="M627.71,24.14h1.82v12.6h-1.82V31.21h-3.57v5.53h-1.81V24.14h1.81V29.5h3.57Z" transform="translate(0)" style="fill: #434343"/>
        <path d="M638.36,35.85A3.61,3.61,0,0,1,635.54,37a3.65,3.65,0,0,1-2.83-1.12,4.47,4.47,0,0,1-1-3.11V28.13a4.44,4.44,0,0,1,1-3.1,3.65,3.65,0,0,1,2.83-1.13A3.62,3.62,0,0,1,638.36,25a4.4,4.4,0,0,1,1,3.1v4.61A4.42,4.42,0,0,1,638.36,35.85Zm-2.82-.66a1.76,1.76,0,0,0,1.47-.63,2.84,2.84,0,0,0,.51-1.82V28.13a2.84,2.84,0,0,0-.51-1.82,1.76,1.76,0,0,0-1.47-.63c-1.32,0-2,.82-2,2.45v4.61C633.56,34.37,634.22,35.19,635.54,35.19Z" transform="translate(0)" style="fill: #434343"/>
        <path d="M643.37,35h4.53v1.71h-6.35V24.14h6.17v1.71h-4.35V29.5h4v1.67h-4Z" transform="translate(0)" style="fill: #434343"/>
        <path d="M658.34,24.14h1.91l-3.06,10a4.54,4.54,0,0,1-1.25,2.2,3.36,3.36,0,0,1-2.19.63h-.45V35.28h.51a1.44,1.44,0,0,0,1.1-.4,3.41,3.41,0,0,0,.66-1.37l.15-.46-3.17-8.91h1.92l2.06,6.13Z" transform="translate(0)" style="fill: #434343"/>
        <path d="M666.39,24.14h1.82V36.77h-1.82V32.11a5,5,0,0,1-1.71.29,3.56,3.56,0,0,1-2.72-1,4.18,4.18,0,0,1-1-3V24.14h1.82v4.3c0,1.5.7,2.25,2.09,2.25a4.1,4.1,0,0,0,1.51-.27Z" transform="translate(0)" style="fill: #434343"/>
        <path d="M674.06,24.14a3.72,3.72,0,0,1,2.86,1.07,4.19,4.19,0,0,1,1,3,4.28,4.28,0,0,1-1,3.05,3.79,3.79,0,0,1-2.86,1.06h-1.51v4.43h-1.82V24.14Zm0,6.44c1.36,0,2-.79,2-2.38s-.67-2.34-2-2.34h-1.49v4.72Z" transform="translate(0)" style="fill: #434343"/>
        <path d="M681.29,35h4.54v1.71h-6.35V24.14h6.17v1.71h-4.36V29.5h4v1.67h-4Z" transform="translate(0)" style="fill: #434343"/>
        <path d="M697.49,36.74l-3-5.35-.61,1v4.4h-1.76v-4.4l-.61-1-3,5.35h-2.06l4-6.88-3.71-5.72h2.09L691.28,28l.87,1.57V24.14h1.76v5.47l.92-1.64,2.32-3.83h2.09l-3.71,5.72,4,6.88Z" transform="translate(0)" style="fill: #434343"/>
        <path d="M708.1,35h1.11v3.81h-1.78v-2.1h-6v2.1h-1.79V35h.74q1.3-1.32,1.42-4.81l.22-6.08h6.07Zm-1.8,0V25.85h-2.56l-.18,4.87a9.58,9.58,0,0,1-1,4.31Z" transform="translate(0)" style="fill: #434343"/>
        <path d="M712.63,35h4.54v1.71h-6.36V24.14H717v1.71h-4.36V29.5h4v1.67h-4Z" transform="translate(0)" style="fill: #434343"/>
        <path d="M724.49,24.14h1.82v12.6h-1.82V31.21h-3.56v5.53h-1.82V24.14h1.82V29.5h3.56Z" transform="translate(0)" style="fill: #434343"/>
        <path d="M728.83,36.74V24.14h1.78v5.5a32.42,32.42,0,0,1-.19,3.64l.05,0c.42-1.11.72-1.85.9-2.24l3.06-6.94h1.85v12.6H734.5V31.25c0-1.22.06-2.45.16-3.69l0,0c-.36,1-.66,1.77-.9,2.32l-3,6.9Z" transform="translate(0)" style="fill: #434343"/>
        <path d="M740.62,35h4.54v1.71H738.8V24.14H745v1.71h-4.36V29.5h4v1.67h-4Z" transform="translate(0)" style="fill: #434343"/>
      </g>
      <g>
        <path d="M335.41,83.24l-6.77-13.11-2,3.08v10H321.1V51h5.57v13.2l1.88-3.77L333.93,51h6.54l-8.65,14,10,18.17Z" transform="translate(0)" style="fill: #434343"/>
        <path d="M358.09,83.24,356.8,77.4h-7.55L348,83.24h-5.88L350,51h6.07L364,83.24ZM350.4,72h5.25l-1.29-6q-.37-1.85-1.29-7.92h-.14c-.43,3.35-.84,6-1.24,7.92Z" transform="translate(0)" style="fill: #434343"/>
        <path d="M380.62,51h5.71v32.2h-5.71V69.67h-7.77V83.24h-5.66V51h5.66V64.29h7.77Z" transform="translate(0)" style="fill: #434343"/>
        <path d="M405.6,83.24l-1.29-5.84h-7.54l-1.29,5.84h-5.89L397.5,51h6.08l7.91,32.2ZM397.92,72h5.24l-1.28-6q-.37-1.85-1.29-7.92h-.14c-.43,3.35-.84,6-1.24,7.92Z" transform="translate(0)" style="fill: #434343"/>
        <path d="M417.51,51h17.07v32.2h-5.66V56.38h-6q-.74,14-1.52,18.95c-.49,3.25-1.45,5.46-2.89,6.65a9.51,9.51,0,0,1-6.17,1.77V78.64a2.9,2.9,0,0,0,2.35-1A8.26,8.26,0,0,0,416,74Q416.69,69.85,417.51,51Z" transform="translate(0)" style="fill: #434343"/>
        <path d="M450.17,83.24V51h5.52V61.57a94.21,94.21,0,0,1-.69,11l.14.1c1.29-3.35,2.07-5.32,2.35-5.94L464.34,51H470v32.2h-5.52v-10a108.17,108.17,0,0,1,.6-11.68l-.14-.14q-2.34,6.26-2.67,7l-6.48,14.86Z" transform="translate(0)" style="fill: #434343"/>
        <path d="M496.86,51h5.75v32.2h-5.56V73.17c.18-4.82.33-8.51.46-11.09l-.23-.09-3,8.46-2.16,5.71h-5.62l-2.16-5.71-3-8.46-.23.09c.12,2.58.28,6.27.46,11.09V83.24h-5.52V51h5.71L487,63.64q1.51,3.73,2.21,6h.18q.55-1.78,2.26-6Z" transform="translate(0)" style="fill: #434343"/>
        <path d="M514.3,77.9h11v5.34H508.64V51h16.19v5.34H514.3v7.95H524v5.16H514.3Z" transform="translate(0)" style="fill: #434343"/>
        <path d="M543.46,51h5.7v32.2h-5.7V69.67h-7.77V83.24H530V51h5.66V64.29h7.77Z" transform="translate(0)" style="fill: #434343"/>
        <path d="M555.24,83.24V51h5.52V61.57a94.21,94.21,0,0,1-.69,11l.13.1c1.29-3.35,2.07-5.32,2.35-5.94L569.4,51h5.66v32.2h-5.52v-10a108.17,108.17,0,0,1,.6-11.68l-.14-.14q-2.34,6.26-2.67,7l-6.48,14.86Z" transform="translate(0)" style="fill: #434343"/>
        <path d="M611.45,51h5.75v32.2h-5.57V73.17c.19-4.82.34-8.51.46-11.09l-.23-.09-3,8.46-2.16,5.71H601.1l-2.16-5.71L596,62l-.24.09c.13,2.58.28,6.27.46,11.09V83.24h-5.51V51h5.7l5.24,12.6c1,2.49,1.75,4.48,2.21,6H604q.54-1.78,2.25-6Z" transform="translate(0)" style="fill: #434343"/>
        <path d="M632.47,83.79a9.69,9.69,0,0,1-7.48-2.9q-2.68-2.9-2.69-8V61.39q0-5.1,2.69-8a11,11,0,0,1,14.91,0q2.69,2.89,2.69,8v11.5q0,5.1-2.69,8A9.62,9.62,0,0,1,632.47,83.79Zm0-5.47q4.28,0,4.28-5.43V61.39q0-5.43-4.28-5.43c-2.88,0-4.33,1.81-4.33,5.43v11.5C628.14,76.51,629.59,78.32,632.47,78.32Z" transform="translate(0)" style="fill: #434343"/>
        <path d="M656.48,83.79a9.44,9.44,0,0,1-7.11-2.64q-2.55-2.66-2.55-7.57V60.7q0-5,2.55-7.64a10.92,10.92,0,0,1,14.26,0c1.71,1.76,2.63,4.29,2.79,7.57h-5.66a5.58,5.58,0,0,0-1.2-3.61,4.09,4.09,0,0,0-3.13-1.13q-3.76,0-3.77,4.83V73.58q0,4.74,3.82,4.74a4.14,4.14,0,0,0,3.17-1.13,5.67,5.67,0,0,0,1.25-3.52h5.65q-.18,4.88-2.78,7.5T656.48,83.79Z" transform="translate(0)" style="fill: #434343"/>
        <path d="M685,83.24l-6.76-13.11-2,3.08v10h-5.56V51h5.56v13.2l1.89-3.77L683.48,51H690l-8.64,14,10,18.17Z" transform="translate(0)" style="fill: #434343"/>
        <path d="M709.1,66.73a7,7,0,0,1,3,2.85,8.37,8.37,0,0,1,1.08,4.23,8.9,8.9,0,0,1-9.39,9.43h-9.7V51h9.43a8.12,8.12,0,0,1,6.16,2.46A9,9,0,0,1,712.05,60,8,8,0,0,1,709.1,66.73Zm-6.44-10.35h-2.89v7.91h3.08q3.45,0,3.45-4.05C706.3,57.66,705.09,56.38,702.66,56.38Zm.28,21.52q4.45,0,4.46-4.09a4.08,4.08,0,0,0-1.17-3.15,4.74,4.74,0,0,0-3.34-1.08h-3.12V77.9Z" transform="translate(0)" style="fill: #434343"/>
        <path d="M717.34,83.24V51h5.79V63.55h2.53c3.25,0,5.72.89,7.39,2.67a10.19,10.19,0,0,1,2.5,7.27q0,4.92-2.43,7.33c-1.63,1.62-4.11,2.42-7.46,2.42Zm5.79-5.2h2.12c2.94,0,4.42-1.52,4.42-4.55s-1.48-4.56-4.42-4.56h-2.12ZM739,83.24V51h5.66v32.2Z" transform="translate(0)" style="fill: #434343"/>
      </g>
      <g>
        <path d="M329.41,96.8l.19-.79a23.88,23.88,0,0,0,4-.65c-.38,1.11-.65,2-.82,2.68l-.87,3.6a5.86,5.86,0,0,0,4.29-1.43,4.61,4.61,0,0,0,1.44-3.39,2.7,2.7,0,0,0-1-2.21,4.86,4.86,0,0,0-3.1-.84,11.75,11.75,0,0,0-5.56,1.39,10.87,10.87,0,0,0-4.12,3.62,8.09,8.09,0,0,0-1.47,4.48,3.77,3.77,0,0,0,.17,1.13,3.12,3.12,0,0,0,.49,1,4,4,0,0,0,.85.71,4.26,4.26,0,0,1,.92.77,1,1,0,0,1,.18.59.81.81,0,0,1-.25.59.86.86,0,0,1-.6.25c-.62,0-1.24-.45-1.87-1.34a5.69,5.69,0,0,1-.94-3.31,9.62,9.62,0,0,1,1.62-5.25,11.62,11.62,0,0,1,4.59-4.07A14,14,0,0,1,334,92.76a7.23,7.23,0,0,1,4.41,1.14,3.41,3.41,0,0,1,1.51,2.79,4.49,4.49,0,0,1-1,2.85,6.41,6.41,0,0,1-3.08,2,5.7,5.7,0,0,1,2.24.77,3.75,3.75,0,0,1,1.27,1.36,3.92,3.92,0,0,1,.44,1.88,5.88,5.88,0,0,1-1,3.29,7.74,7.74,0,0,1-3,2.58,9,9,0,0,1-4.15,1c-.41,0-1.31,0-2.69-.13-.65,0-1.34,0-2.06,0a15.07,15.07,0,0,0-2.92.25l.25-.88a3.74,3.74,0,0,0,2.41-.81,7.63,7.63,0,0,0,1.34-3.16l2.39-9.36a4.7,4.7,0,0,0,.14-.91.58.58,0,0,0-.2-.43.7.7,0,0,0-.51-.19A1.57,1.57,0,0,0,329.41,96.8Zm2.21,5.81-.82,3.24a27.86,27.86,0,0,1-1.2,3.87,4.42,4.42,0,0,1-.88,1.37,10.56,10.56,0,0,0,2.49.36,5.22,5.22,0,0,0,4.27-1.75,5.93,5.93,0,0,0,1.44-3.88,3.09,3.09,0,0,0-.54-1.83,2.88,2.88,0,0,0-1.42-1.08A12.12,12.12,0,0,0,331.62,102.61Z" transform="translate(0)" style="fill: #162345"/>
        <path d="M349.66,98.69a3.27,3.27,0,0,1,2.63,1.25,5.3,5.3,0,0,1,1,3.5,9.44,9.44,0,0,1-2.52,6.42c-1.67,1.9-3.44,2.84-5.31,2.84a3.62,3.62,0,0,1-2.78-1.12,4.32,4.32,0,0,1-1.06-3.08,10.94,10.94,0,0,1,1.94-6.25C345.23,99.87,347.25,98.69,349.66,98.69Zm-1.37,1.2c-.91,0-1.79.66-2.65,2a9.86,9.86,0,0,0-1.28,5.41,6.05,6.05,0,0,0,.79,3.3,1.78,1.78,0,0,0,1.55.89,3.09,3.09,0,0,0,2.47-1.68,9.73,9.73,0,0,0,1.41-5.4,6.73,6.73,0,0,0-.65-3.45A1.92,1.92,0,0,0,348.29,99.89Z" transform="translate(0)" style="fill: #162345"/>
        <path d="M371,108.74l.33.93q-3.82,3-6.47,3a2.24,2.24,0,0,1-2-1,4.59,4.59,0,0,1-.64-2.53,11.67,11.67,0,0,1,1.35-5.24,11.4,11.4,0,0,1,3.29-4.12,5.64,5.64,0,0,1,3.42-1.11,3,3,0,0,1,1.8.45,1.32,1.32,0,0,1,.62,1.09,1.09,1.09,0,0,1-.33.82,1.26,1.26,0,0,1-.9.31,3,3,0,0,1-1.45-.52,3.2,3.2,0,0,0-1.53-.54,2.31,2.31,0,0,0-1.57.71,6.92,6.92,0,0,0-1.49,2.78,12.42,12.42,0,0,0-.71,4.13,4,4,0,0,0,.6,2.37,1.38,1.38,0,0,0,1.22.64Q368.36,110.93,371,108.74Z" transform="translate(0)" style="fill: #162345"/>
        <path d="M387.47,109.38c-2,2.18-3.64,3.27-4.85,3.27a1.32,1.32,0,0,1-1-.46,4.63,4.63,0,0,1-.66-2.44l-.65-6.73Q378,109.25,376.5,111a4.43,4.43,0,0,1-3.33,1.7,1.86,1.86,0,0,1-1.26-.41,1.32,1.32,0,0,1-.49-1.08,1.41,1.41,0,0,1,.41-1.06,1.34,1.34,0,0,1,1-.41,2.61,2.61,0,0,1,.9.24,2.82,2.82,0,0,0,.92.23,2.25,2.25,0,0,0,1.58-.78,18,18,0,0,0,2.32-4.4,27.54,27.54,0,0,0,1.55-4c0-.33-.15-.5-.45-.5-.65,0-1.62.64-2.9,1.92l-.69-.56c2.27-2.1,4-3.14,5.24-3.14a.93.93,0,0,1,.91.42,6.22,6.22,0,0,1,.34,1.85l.65,7.75q.19,2.19,1.05,2.19c.29,0,.76-.3,1.43-.9s1.14-1,1.39-1.2Z" transform="translate(0)" style="fill: #162345"/>
        <path d="M398.34,98.41l1.07-.22-1.21,4.07c-.49,1.62-.94,3.49-1.37,5.61a14.71,14.71,0,0,0-.36,2.22c0,.34.14.5.41.5a1.9,1.9,0,0,0,.82-.34,10.74,10.74,0,0,0,1.92-1.48l.51.63c-1.22,1.12-2,1.79-2.35,2a9.29,9.29,0,0,1-2,1,3.42,3.42,0,0,1-1.19.22.9.9,0,0,1-.63-.19.73.73,0,0,1-.21-.56,2.27,2.27,0,0,1,.13-.67l.64-2.19a13.61,13.61,0,0,1-3.3,2.86,4.14,4.14,0,0,1-2.16.74,1.68,1.68,0,0,1-1.43-.66,3.74,3.74,0,0,1-.68-2.32,9.82,9.82,0,0,1,.91-3.81,14.25,14.25,0,0,1,2.44-3.8,10.23,10.23,0,0,1,3.23-2.51,7.86,7.86,0,0,1,3.35-.62,9.57,9.57,0,0,1,1,.07Zm-2,2.47a7.46,7.46,0,0,0-1.46-.18,4.09,4.09,0,0,0-2.53.8,7.12,7.12,0,0,0-2,2.86,10,10,0,0,0-.92,4.14,2.63,2.63,0,0,0,.37,1.58,1.14,1.14,0,0,0,1,.48,3.65,3.65,0,0,0,2.39-1.2A7.13,7.13,0,0,0,395,105.9Z" transform="translate(0)" style="fill: #162345"/>
        <path d="M408.52,104.58h.8a1.88,1.88,0,0,1,2.15,2.12c0,1.45-.83,2.81-2.51,4.09a8.16,8.16,0,0,1-4.91,1.91q-3,0-3-3.18a13.23,13.23,0,0,1,2.32-7.31q2.31-3.56,5.4-3.55c1.57,0,2.36.72,2.36,2.15S410.26,103.45,408.52,104.58ZM403.9,107a10.73,10.73,0,0,0-.14,1.77,4.46,4.46,0,0,0,.33,2,1.19,1.19,0,0,0,1.13.58,3.44,3.44,0,0,0,2.37-1.25,4,4,0,0,0,1.23-2.89c0-1.13-.43-1.7-1.29-1.7A9.49,9.49,0,0,0,403.9,107Zm.13-1.17q4.79-2.05,4.79-4.49c0-1-.43-1.53-1.27-1.53C405.89,99.83,404.71,101.84,404,105.85Z" transform="translate(0)" style="fill: #162345"/>
        <path d="M413.25,102l-.52-.76,1.19-.8a20.84,20.84,0,0,1,2.45-1.53,1.73,1.73,0,0,1,.74-.19.84.84,0,0,1,.65.38,15.14,15.14,0,0,1,2.38,4.82,19.25,19.25,0,0,1,1,5.89c0,.24,0,.62,0,1.13,1.81-3.35,2.72-6,2.72-8a6.72,6.72,0,0,0-.27-1.63,7.09,7.09,0,0,1-.29-1.61,1,1,0,0,1,.3-.77,1,1,0,0,1,.74-.31,1.1,1.1,0,0,1,.91.44,1.89,1.89,0,0,1,.35,1.24,18.53,18.53,0,0,1-1,5.18,33.25,33.25,0,0,1-3,6.67,27.32,27.32,0,0,1-3.72,5.3,11.79,11.79,0,0,1-3.26,2.48,6.86,6.86,0,0,1-3,.75,2.64,2.64,0,0,1-1.6-.4,1.13,1.13,0,0,1-.54-.94,1,1,0,0,1,.42-.83,1.71,1.71,0,0,1,1.13-.34,7.2,7.2,0,0,1,1.49.2,8,8,0,0,0,1.39.23,3.52,3.52,0,0,0,2.08-.82,8.55,8.55,0,0,0,2.37-2.69,6.32,6.32,0,0,0,.88-3.15,26.6,26.6,0,0,0-.65-5.38,12.79,12.79,0,0,0-1.84-4.8,1.64,1.64,0,0,0-1.28-.85A4.46,4.46,0,0,0,413.25,102Z" transform="translate(0)" style="fill: #162345"/>
        <path d="M441.05,96.82l.2-.73a27.4,27.4,0,0,0,4-.65c-.27.76-.56,1.74-.86,3l-1.22,4.54,1.48.08a4.82,4.82,0,0,0,2.25-.52,5.9,5.9,0,0,0,3.13-5,3.19,3.19,0,0,0-1.16-2.58,5.62,5.62,0,0,0-3.57-.95,11.62,11.62,0,0,0-5.36,1.36,10.71,10.71,0,0,0-4.05,3.48,7.49,7.49,0,0,0-1.42,4.18,3.91,3.91,0,0,0,.37,1.77,4.41,4.41,0,0,0,1.32,1.47c.53.39.79.77.79,1.13a.79.79,0,0,1-.26.6.87.87,0,0,1-.61.24,2.41,2.41,0,0,1-1.85-1.31,5.76,5.76,0,0,1-.89-3.3,9.57,9.57,0,0,1,2.8-6.67,12.81,12.81,0,0,1,9.86-4,10.31,10.31,0,0,1,3.86.61,5,5,0,0,1,2.26,1.67,3.93,3.93,0,0,1,.75,2.31,5.4,5.4,0,0,1-1.05,3.1,7.41,7.41,0,0,1-3.1,2.46,10.89,10.89,0,0,1-4.55.93c-.26,0-.66,0-1.21,0l-1.29,5c-.22.85-.46,1.68-.73,2.51a9.64,9.64,0,0,0,2.19.3,8.1,8.1,0,0,0,2.53-.45l-.2.91a8.53,8.53,0,0,1-2.12.33,23.24,23.24,0,0,1-2.45-.17,17,17,0,0,0-2.09-.16,14.45,14.45,0,0,0-3.21.37l.2-.86a4.88,4.88,0,0,0,2.29-.79,5.59,5.59,0,0,0,1.41-2.91l2.43-9.66a4.54,4.54,0,0,0,.16-1,.63.63,0,0,0-.21-.46.7.7,0,0,0-.5-.2A1.6,1.6,0,0,0,441.05,96.82Z" transform="translate(0)" style="fill: #162345"/>
        <path d="M459.56,98.69a3.26,3.26,0,0,1,2.62,1.25,5.3,5.3,0,0,1,1.05,3.5,9.48,9.48,0,0,1-2.51,6.42c-1.68,1.9-3.45,2.84-5.32,2.84a3.62,3.62,0,0,1-2.78-1.12,4.36,4.36,0,0,1-1.06-3.08,10.94,10.94,0,0,1,1.94-6.25C455.12,99.87,457.14,98.69,459.56,98.69Zm-1.37,1.2c-.92,0-1.8.66-2.65,2a9.77,9.77,0,0,0-1.29,5.41,6,6,0,0,0,.8,3.3,1.76,1.76,0,0,0,1.54.89,3.08,3.08,0,0,0,2.47-1.68,9.73,9.73,0,0,0,1.42-5.4,6.71,6.71,0,0,0-.66-3.45A1.91,1.91,0,0,0,458.19,99.89Z" transform="translate(0)" style="fill: #162345"/>
        <path d="M473.61,108.74l.34.93q-3.84,3-6.48,3a2.24,2.24,0,0,1-2-1,4.59,4.59,0,0,1-.64-2.53,11.55,11.55,0,0,1,1.36-5.24,11.28,11.28,0,0,1,3.28-4.12,5.64,5.64,0,0,1,3.42-1.11,3,3,0,0,1,1.8.45,1.32,1.32,0,0,1,.62,1.09,1.09,1.09,0,0,1-.33.82,1.26,1.26,0,0,1-.9.31,3.07,3.07,0,0,1-1.45-.52,3.2,3.2,0,0,0-1.53-.54,2.31,2.31,0,0,0-1.57.71,6.92,6.92,0,0,0-1.49,2.78,12.68,12.68,0,0,0-.71,4.13,4,4,0,0,0,.6,2.37,1.39,1.39,0,0,0,1.22.64Q471,110.93,473.61,108.74Z" transform="translate(0)" style="fill: #162345"/>
        <path d="M484.82,108.74l.34.93q-3.84,3-6.48,3a2.26,2.26,0,0,1-2-1,4.68,4.68,0,0,1-.63-2.53,11.67,11.67,0,0,1,1.35-5.24,11.3,11.3,0,0,1,3.29-4.12,5.63,5.63,0,0,1,3.41-1.11,3,3,0,0,1,1.81.45,1.31,1.31,0,0,1,.61,1.09,1.12,1.12,0,0,1-.32.82,1.29,1.29,0,0,1-.9.31,3,3,0,0,1-1.45-.52,3.27,3.27,0,0,0-1.53-.54,2.31,2.31,0,0,0-1.57.71,6.92,6.92,0,0,0-1.5,2.78,12.66,12.66,0,0,0-.7,4.13,4,4,0,0,0,.59,2.37,1.39,1.39,0,0,0,1.23.64Q482.21,110.93,484.82,108.74Z" transform="translate(0)" style="fill: #162345"/>
        <path d="M498.08,99.1h2.29l-1.51,5.63a43.53,43.53,0,0,0-1.34,5.59.73.73,0,0,0,.14.47.47.47,0,0,0,.33.16,1.19,1.19,0,0,0,.64-.25,17,17,0,0,0,2-1.86l.54.59q-3.24,3.38-4.77,3.37a1.12,1.12,0,0,1-.88-.4,1.59,1.59,0,0,1-.36-1.12,9.39,9.39,0,0,1,.35-2.23,14.43,14.43,0,0,1-3.55,2.88,5,5,0,0,1-2.43.82,1.09,1.09,0,0,1-.88-.37,1.75,1.75,0,0,1-.33-1.18,6.64,6.64,0,0,1,.15-1.35c.14-.68.49-2,1.06-4.08a29.09,29.09,0,0,0,1.08-4.67c0-.3-.11-.45-.32-.45a1.71,1.71,0,0,0-.79.3,13.17,13.17,0,0,0-1.71,1.44l-.71-.56a19.2,19.2,0,0,1,3.3-2.54,4.26,4.26,0,0,1,1.83-.6.78.78,0,0,1,.63.28,1.34,1.34,0,0,1,.24.88,31.23,31.23,0,0,1-1.16,5.47,35.4,35.4,0,0,0-1,4.47.88.88,0,0,0,.21.58.66.66,0,0,0,.48.24,4.73,4.73,0,0,0,2.56-1.49,7.06,7.06,0,0,0,2.17-3.39Z" transform="translate(0)" style="fill: #162345"/>
        <path d="M513.26,99.1h2.29L514,104.73a43.53,43.53,0,0,0-1.34,5.59.73.73,0,0,0,.14.47.47.47,0,0,0,.33.16,1.19,1.19,0,0,0,.64-.25,17.89,17.89,0,0,0,2-1.86l.54.59q-3.24,3.38-4.77,3.37a1.12,1.12,0,0,1-.88-.4,1.59,1.59,0,0,1-.37-1.12,9.94,9.94,0,0,1,.35-2.23,14.19,14.19,0,0,1-3.54,2.88,5,5,0,0,1-2.43.82,1.08,1.08,0,0,1-.88-.37,1.75,1.75,0,0,1-.33-1.18,6.64,6.64,0,0,1,.15-1.35c.14-.68.49-2,1.06-4.08a29.09,29.09,0,0,0,1.08-4.67c0-.3-.11-.45-.32-.45a1.71,1.71,0,0,0-.79.3,13.17,13.17,0,0,0-1.71,1.44l-.71-.56a19.2,19.2,0,0,1,3.3-2.54,4.22,4.22,0,0,1,1.83-.6A.77.77,0,0,1,508,99a1.28,1.28,0,0,1,.25.88,31.23,31.23,0,0,1-1.16,5.47,35.4,35.4,0,0,0-1,4.47.88.88,0,0,0,.21.58.66.66,0,0,0,.48.24,4.73,4.73,0,0,0,2.56-1.49,7.06,7.06,0,0,0,2.17-3.39Z" transform="translate(0)" style="fill: #162345"/>
        <path d="M515.65,117.25l-.31-1A11.1,11.1,0,0,0,517.6,114a2.28,2.28,0,0,0,.51-1.2,2.67,2.67,0,0,0-.39-1.19,2.87,2.87,0,0,1-.38-1.22,1.49,1.49,0,0,1,.43-1.07,1.4,1.4,0,0,1,1-.45,1.46,1.46,0,0,1,1.14.54,1.88,1.88,0,0,1,.48,1.3,5,5,0,0,1-.49,2,7.52,7.52,0,0,1-1.46,2.15A16.2,16.2,0,0,1,515.65,117.25Z" transform="translate(0)" style="fill: #162345"/>
        <path d="M546.05,109.42q-3.21,3.38-4.76,3.38a1.19,1.19,0,0,1-.85-.4,1.54,1.54,0,0,1-.39-1.12,9,9,0,0,1,.32-2.13l.76-3.2h-4.48l-1.49,6.29h-2.4c0-.13.13-.57.34-1.31.15-.54.43-1.65.85-3.33l1.44-5.76a3.34,3.34,0,0,0,.11-.71c0-.32-.11-.48-.34-.48-.47,0-1.3.58-2.48,1.74l-.71-.55q3.39-3.15,5.11-3.15c.59,0,.89.39.89,1.17a27,27,0,0,1-1.06,5.11h4.49L543,99.1h2.29l-1.52,5.63a43.76,43.76,0,0,0-1.33,5.57c0,.42.15.63.46.63s1.28-.7,2.66-2.11Z" transform="translate(0)" style="fill: #162345"/>
        <path d="M558.23,98.41l1.07-.22-1.21,4.07c-.49,1.62-.94,3.49-1.37,5.61a14.71,14.71,0,0,0-.36,2.22c0,.34.14.5.41.5a1.9,1.9,0,0,0,.82-.34,10.74,10.74,0,0,0,1.92-1.48l.51.63c-1.22,1.12-2,1.79-2.35,2a9.06,9.06,0,0,1-2,1,3.38,3.38,0,0,1-1.19.22.9.9,0,0,1-.63-.19.73.73,0,0,1-.21-.56,2.66,2.66,0,0,1,.13-.67l.65-2.19a13.85,13.85,0,0,1-3.31,2.86,4.14,4.14,0,0,1-2.16.74,1.68,1.68,0,0,1-1.43-.66,3.74,3.74,0,0,1-.68-2.32,9.82,9.82,0,0,1,.91-3.81,14,14,0,0,1,2.45-3.8,10.2,10.2,0,0,1,3.22-2.51A7.86,7.86,0,0,1,556.8,99a9.57,9.57,0,0,1,1.05.07Zm-2,2.47a7.47,7.47,0,0,0-1.47-.18,4.09,4.09,0,0,0-2.53.8,7.12,7.12,0,0,0-2,2.86,10.17,10.17,0,0,0-.92,4.14,2.63,2.63,0,0,0,.37,1.58,1.15,1.15,0,0,0,1,.48,3.63,3.63,0,0,0,2.39-1.2,7.13,7.13,0,0,0,1.87-3.46Z" transform="translate(0)" style="fill: #162345"/>
        <path d="M572.69,101.5c1.68-1.84,3.28-2.77,4.78-2.77a2.06,2.06,0,0,1,1.88,1,4.94,4.94,0,0,1,.62,2.61,11.47,11.47,0,0,1-2.45,7.06q-2.44,3.24-5.43,3.24a3.15,3.15,0,0,1-2.4-.9,3.07,3.07,0,0,1-.85-2.2,15.36,15.36,0,0,1,.43-3.08l1.9-8.52c.75-3.35,1.89-5.57,3.45-6.68a7.58,7.58,0,0,1,4.21-1.66,8.9,8.9,0,0,1,1.4.16,33,33,0,0,0,4,.58,2.36,2.36,0,0,0,1.45-.85l.48.35a5.49,5.49,0,0,1-1.75,2.09,3.65,3.65,0,0,1-1.79.43,32.76,32.76,0,0,1-4.77-.63,10.42,10.42,0,0,0-1.55-.19,1.35,1.35,0,0,0-1.23.77A15.8,15.8,0,0,0,574,95.85ZM571,109.6a1.9,1.9,0,0,0,.58,1.41,1.72,1.72,0,0,0,1.26.58q1.89,0,3.25-2.92a13.09,13.09,0,0,0,1.36-5.53,4.17,4.17,0,0,0-.39-1.81,1.24,1.24,0,0,0-1.16-.81,3.29,3.29,0,0,0-2,1.07,8.73,8.73,0,0,0-2,3.53A13.59,13.59,0,0,0,571,109.6Z" transform="translate(0)" style="fill: #162345"/>
        <path d="M595.84,109.38c-2,2.18-3.64,3.27-4.84,3.27a1.36,1.36,0,0,1-1-.46,4.75,4.75,0,0,1-.65-2.44l-.66-6.73q-2.31,6.23-3.84,7.93a4.43,4.43,0,0,1-3.33,1.7,1.88,1.88,0,0,1-1.27-.41,1.35,1.35,0,0,1-.49-1.08,1.45,1.45,0,0,1,.41-1.06,1.38,1.38,0,0,1,1-.41,2.67,2.67,0,0,1,.9.24,2.77,2.77,0,0,0,.92.23,2.23,2.23,0,0,0,1.57-.78,17.27,17.27,0,0,0,2.32-4.4,27,27,0,0,0,1.56-4c0-.33-.15-.5-.45-.5-.65,0-1.62.64-2.9,1.92l-.69-.56c2.26-2.1,4-3.14,5.24-3.14a.93.93,0,0,1,.91.42,6.22,6.22,0,0,1,.34,1.85l.65,7.75c.12,1.46.47,2.19,1,2.19q.43,0,1.44-.9c.67-.62,1.14-1,1.38-1.2Z" transform="translate(0)" style="fill: #162345"/>
        <path d="M606.72,98.41l1.06-.22-1.21,4.07q-.72,2.43-1.37,5.61a15.6,15.6,0,0,0-.35,2.22c0,.34.13.5.4.5a1.86,1.86,0,0,0,.82-.34,10.08,10.08,0,0,0,1.92-1.48l.52.63c-1.23,1.12-2,1.79-2.36,2a9,9,0,0,1-2,1,3.46,3.46,0,0,1-1.19.22.9.9,0,0,1-.63-.19.73.73,0,0,1-.21-.56,2.27,2.27,0,0,1,.13-.67l.64-2.19a13.61,13.61,0,0,1-3.3,2.86,4.17,4.17,0,0,1-2.16.74A1.68,1.68,0,0,1,596,112a3.68,3.68,0,0,1-.68-2.32,9.64,9.64,0,0,1,.91-3.81,14.25,14.25,0,0,1,2.44-3.8,10.2,10.2,0,0,1,3.22-2.51,7.91,7.91,0,0,1,3.36-.62,9.24,9.24,0,0,1,1,.07Zm-2,2.47a7.47,7.47,0,0,0-1.47-.18,4.11,4.11,0,0,0-2.53.8,7.11,7.11,0,0,0-2,2.86,10,10,0,0,0-.93,4.14,2.7,2.7,0,0,0,.37,1.58,1.17,1.17,0,0,0,1,.48,3.61,3.61,0,0,0,2.38-1.2,7,7,0,0,0,1.87-3.46Z" transform="translate(0)" style="fill: #162345"/>
        <path d="M619.64,101.09a5,5,0,0,1-.71,2.42,10.62,10.62,0,0,1-3.67,3.08,29.12,29.12,0,0,0-3.49,2.35,1.89,1.89,0,0,0-.7,1.41c0,.92.62,1.39,1.85,1.39a2.09,2.09,0,0,0,1.32-.37,3.32,3.32,0,0,0,.92-1.21,4.06,4.06,0,0,1,.86-1.27,1.47,1.47,0,0,1,1-.33c.59,0,.88.31.88.92s-.52,1.4-1.55,2.11a6.09,6.09,0,0,1-3.52,1.06q-3.63,0-3.63-2.67a3.6,3.6,0,0,1,1-2.46,18.69,18.69,0,0,1,3.64-2.82,23.06,23.06,0,0,0,3.4-2.47,2.31,2.31,0,0,0,.82-1.63.78.78,0,0,0-.87-.9,4.18,4.18,0,0,0-2.11,1.18,2.77,2.77,0,0,1-1.56.74c-.59,0-.89-.26-.89-.76s.4-1,1.19-1.49a5.32,5.32,0,0,1,2.79-.72,3.48,3.48,0,0,1,2.26.66A2.21,2.21,0,0,1,619.64,101.09Z" transform="translate(0)" style="fill: #162345"/>
        <path d="M628.89,98.69a3.28,3.28,0,0,1,2.63,1.25,5.35,5.35,0,0,1,1,3.5,9.43,9.43,0,0,1-2.51,6.42c-1.67,1.9-3.45,2.84-5.32,2.84a3.64,3.64,0,0,1-2.78-1.12,4.36,4.36,0,0,1-1.05-3.08,10.93,10.93,0,0,1,1.93-6.25C624.45,99.87,626.47,98.69,628.89,98.69Zm-1.37,1.2c-.91,0-1.8.66-2.65,2a9.86,9.86,0,0,0-1.28,5.41,6,6,0,0,0,.79,3.3,1.78,1.78,0,0,0,1.55.89,3.06,3.06,0,0,0,2.46-1.68,9.65,9.65,0,0,0,1.42-5.4,6.83,6.83,0,0,0-.65-3.45A1.93,1.93,0,0,0,627.52,99.89Z" transform="translate(0)" style="fill: #162345"/>
        <path d="M655.48,109.38c-2,2.18-3.64,3.27-4.85,3.27a1.36,1.36,0,0,1-1-.46,4.63,4.63,0,0,1-.66-2.44l-.65-6.73q-2.33,6.23-3.85,7.93a4.43,4.43,0,0,1-3.33,1.7,1.87,1.87,0,0,1-1.26-.41,1.32,1.32,0,0,1-.49-1.08,1.41,1.41,0,0,1,.41-1.06,1.35,1.35,0,0,1,1-.41,2.73,2.73,0,0,1,.9.24,2.72,2.72,0,0,0,.91.23,2.25,2.25,0,0,0,1.58-.78,17.61,17.61,0,0,0,2.32-4.4,27.54,27.54,0,0,0,1.55-4c0-.33-.15-.5-.45-.5-.65,0-1.62.64-2.9,1.92l-.69-.56c2.27-2.1,4-3.14,5.24-3.14a.93.93,0,0,1,.91.42,6.47,6.47,0,0,1,.35,1.85l.64,7.75q.19,2.19,1,2.19c.29,0,.77-.3,1.43-.9s1.14-1,1.39-1.2Z" transform="translate(0)" style="fill: #162345"/>
        <path d="M662.75,106h-2.81l-1.48,6.27h-2.4c0-.13.13-.57.34-1.31.15-.54.43-1.65.85-3.33l1.43-5.76a2.89,2.89,0,0,0,.12-.71c0-.32-.12-.48-.34-.48-.47,0-1.3.58-2.48,1.74l-.71-.55q3.39-3.15,5.11-3.15c.59,0,.89.39.89,1.17A27.22,27.22,0,0,1,660.2,105H663a10.54,10.54,0,0,1,3-4.6,6.4,6.4,0,0,1,4.19-1.69,3.33,3.33,0,0,1,2.88,1.34,5.48,5.48,0,0,1,1,3.36,9.69,9.69,0,0,1-2.44,6.35q-2.46,2.91-5.35,2.91a3.64,3.64,0,0,1-2.82-1.12,4.48,4.48,0,0,1-1-3.17A9.87,9.87,0,0,1,662.75,106Zm8.62-1.6c0-3-.77-4.48-2.3-4.48-1,0-1.89.69-2.71,2.07a10.23,10.23,0,0,0-1.23,5.31,6.43,6.43,0,0,0,.61,3,1.89,1.89,0,0,0,1.73,1.18c1,0,1.92-.7,2.71-2.08A10,10,0,0,0,671.37,104.37Z" transform="translate(0)" style="fill: #162345"/>
        <path d="M677.5,90l.36-.45q9.48.72,9.47,11a15.52,15.52,0,0,1-2.28,8.65c-1.52,2.34-3.4,3.5-5.66,3.5a3.35,3.35,0,0,1-2.8-1.24,4.62,4.62,0,0,1-1-2.94,10.75,10.75,0,0,1,2.25-6.57c1.5-2,3.1-3,4.81-3a3,3,0,0,1,2.51,1.49c0-3.18-.6-5.6-1.78-7.24S680.26,90.44,677.5,90Zm7.11,14.5a8,8,0,0,0-.57-3.26,1.85,1.85,0,0,0-1.73-1.28c-1.19,0-2.14.77-2.86,2.3a11.34,11.34,0,0,0-1.09,4.92,7.22,7.22,0,0,0,.58,3.05,1.85,1.85,0,0,0,1.69,1.27c1.13,0,2.07-.75,2.84-2.24A10.28,10.28,0,0,0,684.61,104.45Z" transform="translate(0)" style="fill: #162345"/>
        <path d="M697.29,108.19l.53.71c-2.63,2.5-4.89,3.75-6.76,3.75a2.06,2.06,0,0,1-1.75-.77,4,4,0,0,1-.61-2.48,13,13,0,0,1,2.1-6.86q2.36-3.89,5.62-3.89a2.46,2.46,0,0,1,1.75.57,2.1,2.1,0,0,1,.6,1.58,3.55,3.55,0,0,1-.72,2.06,8.43,8.43,0,0,1-2.6,2.11q-.93.52-4,1.92a9.75,9.75,0,0,0-.15,1.66,2.54,2.54,0,0,0,.37,1.59,1.27,1.27,0,0,0,1.05.45,3.42,3.42,0,0,0,1.45-.37A20,20,0,0,0,697.29,108.19Zm-5.64-2.34a12.62,12.62,0,0,0,3.9-2.49,2.76,2.76,0,0,0,.89-1.86,1.56,1.56,0,0,0-.37-1.1,1.2,1.2,0,0,0-.94-.41,1.85,1.85,0,0,0-1.16.45,4.49,4.49,0,0,0-1.27,1.81A16.24,16.24,0,0,0,691.65,105.85Z" transform="translate(0)" style="fill: #162345"/>
        <path d="M711,99.1h2.29l-1.51,5.63a45.6,45.6,0,0,0-1.34,5.59.68.68,0,0,0,.15.47.43.43,0,0,0,.32.16,1.16,1.16,0,0,0,.64-.25,17.66,17.66,0,0,0,2-1.86l.53.59q-3.24,3.38-4.77,3.37a1.14,1.14,0,0,1-.88-.4,1.59,1.59,0,0,1-.36-1.12,9.94,9.94,0,0,1,.35-2.23,14.56,14.56,0,0,1-3.54,2.88,5,5,0,0,1-2.44.82,1.09,1.09,0,0,1-.88-.37,1.75,1.75,0,0,1-.32-1.18,6.59,6.59,0,0,1,.14-1.35c.14-.68.5-2,1.07-4.08a30.36,30.36,0,0,0,1.08-4.67q0-.45-.33-.45a1.74,1.74,0,0,0-.79.3,13.17,13.17,0,0,0-1.71,1.44l-.7-.56a19.23,19.23,0,0,1,3.29-2.54,4.26,4.26,0,0,1,1.83-.6.78.78,0,0,1,.63.28,1.34,1.34,0,0,1,.24.88,31.23,31.23,0,0,1-1.16,5.47,35.4,35.4,0,0,0-1,4.47.84.84,0,0,0,.22.58.62.62,0,0,0,.47.24,4.7,4.7,0,0,0,2.56-1.49,7,7,0,0,0,2.17-3.39Zm2-6,.48.6a8.35,8.35,0,0,1-5.78,2.58,6,6,0,0,1-2.19-.4q-1-.39-1-1.26c0-.65.34-1,1-1a5.71,5.71,0,0,1,1.65.48,7.81,7.81,0,0,0,2.77.71Q711,94.83,712.92,93.09Z" transform="translate(0)" style="fill: #162345"/>
      </g>
      <g>
        <path d="M232.16.26a70.64,70.64,0,1,1-70.64,70.63A70.63,70.63,0,0,1,232.16.26Z" transform="translate(0)" style="fill: #fff;fill-rule: evenodd"/>
        <path d="M232.16,0A70.9,70.9,0,1,1,182,20.76,70.72,70.72,0,0,1,232.16,0Zm49.76,21.13a70.36,70.36,0,1,0,20.62,49.76,70.13,70.13,0,0,0-20.62-49.76Z" transform="translate(0)" style="fill: #162345"/>
        <path d="M232.16,2.41a68.49,68.49,0,1,1-68.49,68.48A68.49,68.49,0,0,1,232.16,2.41Z" transform="translate(0)" style="fill: #89a6cf;fill-rule: evenodd"/>
        <path d="M232.16,14.49a56.41,56.41,0,1,1-56.41,56.4,56.4,56.4,0,0,1,56.41-56.4Z" transform="translate(0)" style="fill: #fff;fill-rule: evenodd"/>
        <path d="M232.16,16.19a54.71,54.71,0,1,1-38.68,16,54.54,54.54,0,0,1,38.68-16Zm38.32,16.38a54.2,54.2,0,1,0,15.87,38.32,54.06,54.06,0,0,0-15.87-38.32Z" transform="translate(0)" style="fill: #162345"/>
        <path d="M172.7,53.7l-.12.43,2.65.75-.43,1.53-6.61-1.87.43-1.54,2.59.74.09-.32-2.16-2.23.54-1.93,2.42,2.94L176.34,51l-.55,2-3.09.77Zm5-9.16-.84,1.86,1,.91-.69,1.53L171.89,44l.35-.78h0l.35-.77,7.18.78-.69,1.53-1.38-.18Zm-1.81,1,.54-1.19-2.21-.3v0l1.68,1.46ZM184.32,36l-.85,1.34-2.33-1.49-1.38,2.14,2.33,1.49-.86,1.34-5.78-3.71.86-1.34,2.42,1.56,1.37-2.15-2.42-1.55.86-1.34L184.32,36Zm3.58-6.3-1.34,1.55.75,1.17-1.1,1.27-3.73-6.19.56-.65h0l.56-.65,6.66,2.8-1.1,1.27-1.27-.57Zm-2,.46.86-1-2-.91,0,0,1.19,1.87ZM192.64,18l4.25,5.4-1.25,1L192.15,20,190.81,21,192,22.45a5,5,0,0,1,1.3,2.72,2.32,2.32,0,0,1-1,1.9l-.15.11-.75-1,.14-.12a.79.79,0,0,0,.34-.92,7.67,7.67,0,0,0-1.13-1.74L188.8,21l3.84-3ZM206.8,9.92l1.46-.66,2.83,6.26-1.46.66-1.75-3.88h0l-.54,4.92-1.45.65L203,11.62l1.45-.65,1.76,3.87h0l.54-4.91Zm10.56,1.59h0l.43-5L219.87,6l1.55,6.7-1.56.35-1-4.31h0l-.48,4.66-1,.24-2.43-3.92h0l1,4.25-1.55.36-1.55-6.69,2-.47,2.58,4.34Zm11.22-2.58-2.42.18.13,1.71,2.9-.22.09,1.22-4.48.34-.52-6.85L228.77,5l.09,1.22-2.9.22.11,1.48,2.42-.19.09,1.23Zm9.64,3.13-1.59-.12.21-2.76L234.3,9l-.21,2.76-1.59-.12L233,4.78l1.59.12-.21,2.87,2.53.19.22-2.87,1.59.12-.52,6.85Zm8.9-5.45,1.56.36-1.55,6.69-1.55-.36.95-4.14h0l-3.41,3.58-1.56-.36,1.55-6.69,1.55.36-.95,4.14h0l3.41-3.58Zm14.25,10.5h0l3.74-3.4L267,14.78l-3.43,6-1.38-.79,2.21-3.84,0,0-3.52,3.09-.93-.54.89-4.52h0l-2.17,3.78-1.38-.8,3.42-5.95,1.82,1-1.07,4.94Zm11.26,6.81a2.92,2.92,0,1,1-4.59-3.6l.76-1a2.91,2.91,0,0,1,1.93-1.14,2.83,2.83,0,0,1,2.17.65,2.8,2.8,0,0,1,.49,4.1l-.76,1Zm-.48-2a2,2,0,0,0,.47-1.16,1.26,1.26,0,0,0-1.54-1.22,2,2,0,0,0-1,.74l-.77,1a2,2,0,0,0-.48,1.17,1.15,1.15,0,0,0,.49,1,1.12,1.12,0,0,0,1.06.23,2,2,0,0,0,1-.74l.77-1Zm6.47,8.63v0a2.21,2.21,0,0,1-1.75.75,2.83,2.83,0,0,1-1.77-1,2.65,2.65,0,0,1,.1-4l1-1a2.83,2.83,0,0,1,2-.87,2.61,2.61,0,0,1,1.92.88,3.1,3.1,0,0,1,1,1.89,2.18,2.18,0,0,1-.8,1.72h0l-1.07-1.12a1,1,0,0,0,.06-1.65.92.92,0,0,0-.88-.3,2.08,2.08,0,0,0-1,.59l-1,1a1.9,1.9,0,0,0-.62,1,1.05,1.05,0,0,0,.31,1,1,1,0,0,0,.74.38,1.37,1.37,0,0,0,.83-.46l1.07,1.12Zm3.77,4.17-.25-.36L279.89,36,279,34.7l5.6-4,.92,1.3-2.19,1.56.19.27,3.09-.29,1.16,1.63-3.8,0-1.69,4.08-1.19-1.67,1.33-2.88Zm1.28,7,6.11-3.13,1,2a3.63,3.63,0,0,1,.49,2,1.59,1.59,0,0,1-.94,1.28,1.63,1.63,0,0,1-.87.2,1.39,1.39,0,0,1-.84-.37,1.41,1.41,0,0,1-.07,1.06,1.68,1.68,0,0,1-.72.7,1.82,1.82,0,0,1-1.66.09,3.11,3.11,0,0,1-1.34-1.49l-1.19-2.33Zm3.35.08-1.53.78.46.91a1.2,1.2,0,0,0,.53.59.77.77,0,0,0,.67,0,.9.9,0,0,0,.49-.51,1.07,1.07,0,0,0-.13-.76l0,0-.47-.91Zm.94-.49.29.56a1.43,1.43,0,0,0,.57.68.7.7,0,0,0,.66,0,.74.74,0,0,0,.44-.54,1.41,1.41,0,0,0-.2-.84l-.3-.58-1.46.74Zm4.24,8.1.29.88a2.9,2.9,0,0,1,0,2.07,2.06,2.06,0,0,1-1.33,1.23,2.09,2.09,0,0,1-1.81-.17,2.91,2.91,0,0,1-1.25-1.65l-.8-2.39,6.5-2.2.52,1.51-2.14.72Zm-2.53,6.92-.51-1.5,6.51-2.21.51,1.51-6.51,2.2ZM291,49.84l-2,.69.3.87a1.06,1.06,0,0,0,.56.68,1.13,1.13,0,0,0,.83,0,1.08,1.08,0,0,0,.62-.53,1.11,1.11,0,0,0,0-.88l-.3-.87Z" transform="translate(0)" style="fill: #162345"/>
        <path d="M166.92,78.74l6.17-1.1.36,2a3.32,3.32,0,0,1-.1,1.87,1.46,1.46,0,0,1-1.16.87,1.51,1.51,0,0,1-.82-.07,1.19,1.19,0,0,1-.62-.54,1.31,1.31,0,0,1-.35.9,1.51,1.51,0,0,1-.81.42,1.62,1.62,0,0,1-1.47-.36,2.9,2.9,0,0,1-.78-1.65l-.42-2.36Zm2.91,1-1.55.28.17.92a1.07,1.07,0,0,0,.3.65.65.65,0,0,0,.59.13.8.8,0,0,0,.56-.31.94.94,0,0,0,.1-.7v0l-.16-.93Zm.95-.17.1.57a1.31,1.31,0,0,0,.32.74.62.62,0,0,0,.58.15.68.68,0,0,0,.53-.34,1.33,1.33,0,0,0,0-.79l-.1-.59-1.47.26Zm1.09,9.81a2.61,2.61,0,0,1-2-.19,2.55,2.55,0,0,1-1.24-1.63,2.58,2.58,0,0,1,.19-2.07,2.61,2.61,0,0,1,1.63-1.23l1.09-.31a2.55,2.55,0,0,1,3.28,1.84,2.54,2.54,0,0,1-.2,2A2.58,2.58,0,0,1,173,89l-1.08.31Zm.69-1.71a1.83,1.83,0,0,0,1-.6,1.06,1.06,0,0,0,.17-1,1.09,1.09,0,0,0-.66-.75,1.87,1.87,0,0,0-1.15,0l-1.09.31a1.86,1.86,0,0,0-1,.61,1,1,0,0,0-.17,1,1.07,1.07,0,0,0,.66.74,1.81,1.81,0,0,0,1.15,0l1.09-.31Zm2.73,11.61,0,0a2.05,2.05,0,0,1-1.73.12A2.65,2.65,0,0,1,172.31,98a2.49,2.49,0,0,1-.12-2,2.53,2.53,0,0,1,1.41-1.41l1.19-.54a2.63,2.63,0,0,1,2-.15,2.4,2.4,0,0,1,1.39,1.34,2.8,2.8,0,0,1,.25,1.91,2,2,0,0,1-1.21,1.24h0l-.58-1.29a.91.91,0,0,0,.55-1.4.87.87,0,0,0-.67-.52,1.89,1.89,0,0,0-1.07.19l-1.19.54a1.85,1.85,0,0,0-.85.7,1,1,0,0,0,0,.92.9.9,0,0,0,.53.55,1.23,1.23,0,0,0,.85-.14l.58,1.29Zm6.83,3.67L176.69,106l-.73-1.26,4.46-2.56-.77-1.35-1.45.84a4.51,4.51,0,0,1-2.62.81,2.08,2.08,0,0,1-1.58-1.16l-.09-.14,1-.56.08.15a.71.71,0,0,0,.79.42,6.57,6.57,0,0,0,1.72-.79L179.9,99l2.22,3.87Zm-1.51,6.59L179.53,108l-1.2.41-.89-1.24,6.29-2,.46.64h0l.45.63-3.92,5.3-.89-1.25.78-1Zm0-1.89.69,1,1.25-1.61,0,0-1.92.66Zm.89,5,4.74-4.1,1.34,1.55a3.28,3.28,0,0,1,.87,1.65,1.47,1.47,0,0,1-.55,1.34,1.43,1.43,0,0,1-.74.36,1.26,1.26,0,0,1-.81-.14,1.27,1.27,0,0,1,.16,1,1.47,1.47,0,0,1-.48.78,1.65,1.65,0,0,1-1.45.44,2.87,2.87,0,0,1-1.51-1l-1.57-1.8Zm3-.66-1.19,1,.61.71a1.18,1.18,0,0,0,.6.41.7.7,0,0,0,.58-.2.82.82,0,0,0,.32-.55,1,1,0,0,0-.28-.65l0,0-.61-.71Zm.73-.63.37.43a1.41,1.41,0,0,0,.65.47.61.61,0,0,0,.58-.16.66.66,0,0,0,.28-.57,1.34,1.34,0,0,0-.36-.7l-.39-.45-1.13,1Zm4.7,5.05-.06.1,0,0,2.84-1.22,1.09,1-5.11,2a2.92,2.92,0,0,1-1.19.25,1.61,1.61,0,0,1-1-.5,2.11,2.11,0,0,1-.29-.34,4.56,4.56,0,0,1-.25-.44l.83-.64.18.29a1.2,1.2,0,0,0,.19.21.91.91,0,0,0,.48.27,1,1,0,0,0,.51-.13l.17-.09,1.44-4.81,1.12,1.08L190,116.4Zm4.71,5.69-1.24,1.75-1.19-.84,3.63-5.11,1.95,1.39a2.62,2.62,0,0,1,1.12,1.49,1.88,1.88,0,0,1-.34,1.59,1.83,1.83,0,0,1-1.39.84,2.57,2.57,0,0,1-1.77-.56l-.77-.55Zm.65-.91.77.54a.9.9,0,0,0,.74.21.93.93,0,0,0,.59-.4,1,1,0,0,0,.19-.7.94.94,0,0,0-.43-.64l-.77-.54-1.09,1.53Zm7.95,5.82a2.61,2.61,0,0,1-1.59,1.28,2.56,2.56,0,0,1-2-.3,2.55,2.55,0,0,1-1-3.64l.56-1a2.61,2.61,0,0,1,1.59-1.28,2.54,2.54,0,0,1,2,.31,2.55,2.55,0,0,1,1,3.63l-.56,1Zm-.69-1.71a1.84,1.84,0,0,0,.28-1.11,1,1,0,0,0-.56-.82,1.06,1.06,0,0,0-1-.08,1.85,1.85,0,0,0-.82.8l-.57,1a1.87,1.87,0,0,0-.27,1.12,1.06,1.06,0,0,0,.57.83,1,1,0,0,0,1,.07,1.82,1.82,0,0,0,.82-.81l.57-1Zm6.14,4.69v0a2,2,0,0,1-1.22,1.23,2.54,2.54,0,0,1-1.83-.22,2.42,2.42,0,0,1-1.28-3.4l.53-1.19A2.56,2.56,0,0,1,206.3,125a2.35,2.35,0,0,1,1.92.08,2.72,2.72,0,0,1,1.45,1.27,1.93,1.93,0,0,1-.08,1.73l0,0-1.29-.58a1.16,1.16,0,0,0,.12-.86,1.11,1.11,0,0,0-.63-.56.88.88,0,0,0-.85,0,1.93,1.93,0,0,0-.67.85l-.54,1.2a1.73,1.73,0,0,0-.17,1.08.94.94,0,0,0,.59.7.91.91,0,0,0,.76.07,1.28,1.28,0,0,0,.54-.67l1.29.58Zm5.84,2v0a2,2,0,0,1-1.09,1.35,2.63,2.63,0,0,1-1.85,0,2.44,2.44,0,0,1-1.61-3.26l.42-1.24a2.6,2.6,0,0,1,1.24-1.54,2.32,2.32,0,0,1,1.92-.1,2.75,2.75,0,0,1,1.57,1.12,2,2,0,0,1,.09,1.73l0,0-1.34-.46a1.13,1.13,0,0,0,0-.86,1.09,1.09,0,0,0-.69-.49.82.82,0,0,0-.83.13,1.83,1.83,0,0,0-.59.91l-.42,1.24a1.85,1.85,0,0,0-.07,1.1,1,1,0,0,0,.66.64.94.94,0,0,0,.76,0,1.29,1.29,0,0,0,.48-.72l1.34.45Zm5.85-2.88,1.42.32-1.41,6.11-1.42-.33.88-3.78h0l-3.1,3.27-1.42-.33,1.41-6.1,1.41.32-.87,3.78h0l3.1-3.26Zm6.19.91,1.44.18-.79,6.22-1.44-.18.49-3.85h0l-2.77,3.56-1.44-.18.79-6.21,1.44.18-.49,3.85h0l2.76-3.56Zm3.9,6.5-.74,1.35-1,0,.34-1.4,0-1.13,1.4,0,0,1.17Zm11.35-.71-1.43.19-.32-2.51-2.3.3.31,2.5-1.44.18-.79-6.21,1.44-.19.34,2.61,2.3-.3-.33-2.6,1.43-.18.79,6.21Zm4.74-2.14-1.81.42-.08,1.27-1.49.34.58-6.56.76-.18h0l.76-.17,3.4,5.64-1.49.34-.63-1.1Zm-1.74-.75,1.16-.26-1-1.77h0l-.13,2Zm11.23-6.44-2.55,1,.34.88.79-.31a2.59,2.59,0,0,1,1.88-.11,2,2,0,0,1,1.11,2.81,2.66,2.66,0,0,1-1.45,1.21l-2.14.84-2.3-5.83,3.91-1.54.41,1Zm-1.8,2.93.73,1.83.78-.31a1,1,0,0,0,.59-.55.93.93,0,0,0,0-.75.92.92,0,0,0-.5-.54,1,1,0,0,0-.8,0l-.79.31Zm7.36-6.92,2.86,5.58-1.29.66-2.35-4.58-1.38.71.76,1.48a4.48,4.48,0,0,1,.69,2.66,2.11,2.11,0,0,1-1.23,1.53l-.15.07-.51-1,.15-.08a.73.73,0,0,0,.46-.77,6.71,6.71,0,0,0-.7-1.75l-1.28-2.48,4-2Zm6.52,1.83-1.57,1,.35,1.22-1.29.82L264,121l.66-.42h0l.66-.42,5.1,4.17-1.29.83-1-.83Zm-1.89-.12,1-.64-1.54-1.32h0l.56,2Zm5.2-7.29-2.16,1.7,3.18,4-1.15.9-3.87-4.93,3.3-2.6.7.88Zm6.07-2.17a2.62,2.62,0,0,1,.78,1.89,2.55,2.55,0,0,1-.87,1.86,2.58,2.58,0,0,1-1.91.79,2.61,2.61,0,0,1-1.86-.87l-.77-.82a2.71,2.71,0,0,1,2-4.54,2.67,2.67,0,0,1,1.85.87l.78.82Zm-1.84.18a1.74,1.74,0,0,0-1-.58,1,1,0,0,0-.94.3,1.07,1.07,0,0,0-.36.93,1.89,1.89,0,0,0,.54,1l.78.82a1.92,1.92,0,0,0,1,.59,1.06,1.06,0,0,0,.95-.32,1,1,0,0,0,.35-.92,1.89,1.89,0,0,0-.54-1l-.79-.82Zm5.58-10.69,5.1,3.64-.84,1.18-4.19-3-.9,1.26,1.36,1a4.52,4.52,0,0,1,1.84,2,2.11,2.11,0,0,1-.39,1.92l-.1.14-.91-.65.1-.14a.73.73,0,0,0,.05-.89,6.68,6.68,0,0,0-1.43-1.24l-2.28-1.61,2.59-3.64Zm7.53-5.37a2.68,2.68,0,0,1,1.29,1.59,2.67,2.67,0,0,1-3.92,3l-.21.35,2.21,1.27-.73,1.26L282,103.23l.73-1.26,2.25,1.29.2-.35h0a2.65,2.65,0,0,1-1.29-1.59A2.84,2.84,0,0,1,285.8,98a2.65,2.65,0,0,1,2,.31l1,.56Zm-1.71.69a1.83,1.83,0,0,0-1.11-.27,1.15,1.15,0,0,0-.9,1.55,1.75,1.75,0,0,0,.8.82l1,.57a1.79,1.79,0,0,0,1.12.28,1.15,1.15,0,0,0,.89-1.55,1.84,1.84,0,0,0-.81-.83l-1-.57Zm8.28-5.91L294.84,95l-1.43-.56-1.23,3.11,1.43.57-.53,1.34-2.47-1,.11-.29c.11-.28,0-.55-.31-.81a8.58,8.58,0,0,0-1.77-1l-2.33-1.07,1.55-3.94,4.79,1.89.25-.64,2.47,1Zm-6.19,1.43a10,10,0,0,1,1.32.71,4.47,4.47,0,0,1,.87.76l.75-1.9-3.75-1.47-.51,1.3,1.32.6Zm3.59-7.26-.6,2.13,1.5.42.72-2.54,1.08.3-1.12,4-6-1.71,1.12-4,1.08.3-.73,2.55,1.3.37.6-2.12,1.08.3Zm-2.3-5.92.25-1.43,6.17,1.1L296.63,83l-3.82-.68v0l3.43,2.94L296,86.68l-6.17-1.1.26-1.43,3.82.68v0l-3.42-2.94Zm-1.85-.74h0a1.11,1.11,0,0,1,.85.56,1.81,1.81,0,0,1,.15,1.2,1.76,1.76,0,0,1-.56,1.08,1.08,1.08,0,0,1-1,.23h0l.19-1a.52.52,0,0,0,.35-.06.5.5,0,0,0,.19-.36.51.51,0,0,0-.06-.4.45.45,0,0,0-.3-.17l.18-1Zm6.5-3-.18,1.45-4-.51.18-1.45,4,.51Zm2.2.28-.18,1.45-1.21-.15.19-1.45,1.2.15Z" transform="translate(0)" style="fill: #162345"/>
        <path d="M244.82,37.83a35.42,35.42,0,1,1-45.75,20.38,35.42,35.42,0,0,1,45.75-20.38Zm-3.1,8.09a26.75,26.75,0,1,1-34.56,15.39,26.75,26.75,0,0,1,34.56-15.39Z" transform="translate(0)" style="fill: #162345;fill-rule: evenodd"/>
        <polygon points="229.66 42.15 235.07 42.15 235.07 44.76 229.66 44.76 229.66 42.15 229.66 42.15" style="fill: #000a30;fill-rule: evenodd"/>
        <path d="M230.29,19.82a3.5,3.5,0,0,1,4.21,0l.15.1.07.17a10.58,10.58,0,0,1,.64,4.13c0,.22,0,.44-.05.67-.19,2-.89,4-1,6.05a6.42,6.42,0,0,0,.53,3l.75,1.53v9l-.13.15a4.46,4.46,0,0,1-2,1.52l-.07,0h-2a4.72,4.72,0,0,1-2.19-1.56l-.12-.15v-9l.6-1.48a7.47,7.47,0,0,0,.54-3.06l0-.52c-.19-2.14-.91-4.18-.95-6.35a9.51,9.51,0,0,1,.13-1.6,6.8,6.8,0,0,1,.8-2.55l0,0,0,0Z" transform="translate(0)" style="fill: #fff;fill-rule: evenodd"/>
        <path d="M230.22,34.18a7.92,7.92,0,0,0,.58-3.29c-.09-2.31-.94-4.55-1-6.86a9,9,0,0,1,.8-3.78,3,3,0,0,1,3.59,0,9.89,9.89,0,0,1,.61,3.92c-.09,2.26-.93,4.45-1,6.72a6.86,6.86,0,0,0,.58,3.29l.7,1.42v8.7a4.12,4.12,0,0,1-1.76,1.35h-1.76a4.13,4.13,0,0,1-1.89-1.37V35.55l.56-1.37Z" transform="translate(0)" style="fill: #162345;fill-rule: evenodd"/>
        <path d="M230.21,121.91a6.91,6.91,0,0,1-.8-2.56,9.47,9.47,0,0,1-.13-1.59c0-.25,0-.5,0-.75.17-2.06.86-4.06.94-6.12a7.49,7.49,0,0,0-.54-3.07l-.6-1.47v-9l.12-.15a4.68,4.68,0,0,1,2.19-1.57h2l.07,0a4.53,4.53,0,0,1,2,1.52l.13.15v9l-.75,1.54a6.38,6.38,0,0,0-.53,3c0,.19,0,.38,0,.57.2,2.08.9,4.06,1,6.15a10.55,10.55,0,0,1-.64,4.13l-.07.17-.15.1a3.51,3.51,0,0,1-4.21,0l0,0,0,0Z" transform="translate(0)" style="fill: #fff;fill-rule: evenodd"/>
        <path d="M230.22,107.62a7.86,7.86,0,0,1,.58,3.29c-.09,2.3-.94,4.55-1,6.86a9,9,0,0,0,.8,3.77,3,3,0,0,0,3.59,0,9.84,9.84,0,0,0,.61-3.91c-.09-2.27-.93-4.46-1-6.72a6.84,6.84,0,0,1,.58-3.29l.7-1.43v-8.7a4.2,4.2,0,0,0-1.76-1.35h-1.76a4.09,4.09,0,0,0-1.89,1.38v8.72l.56,1.38Z" transform="translate(0)" style="fill: #162345;fill-rule: evenodd"/>
        <path d="M194.78,36.25a3.5,3.5,0,0,1,3-3l.18,0,.16.08a10.29,10.29,0,0,1,3.37,2.46c.16.17.3.34.44.51,1.3,1.58,2.21,3.47,3.59,5A6.4,6.4,0,0,0,208,43l1.62.55.09.09,6.16,6.15.14.14v.21a4.53,4.53,0,0,1-.35,2.5l0,.07-.05,0L214.32,54l0,0-.05,0a4.65,4.65,0,0,1-2.66.45l-.19,0L205,48.13l-.62-1.47a7.34,7.34,0,0,0-1.78-2.55l-.39-.34c-1.64-1.38-3.6-2.32-5.16-3.83a8.63,8.63,0,0,1-1-1.22,6.85,6.85,0,0,1-1.25-2.37v-.1Z" transform="translate(0)" style="fill: #fff;fill-rule: evenodd"/>
        <path d="M204.88,46.45A7.93,7.93,0,0,0,203,43.71c-1.7-1.57-3.88-2.55-5.54-4.16a8.92,8.92,0,0,1-2.11-3.23,3,3,0,0,1,2.54-2.54,9.86,9.86,0,0,1,3.2,2.34c1.53,1.67,2.49,3.81,4,5.48a6.88,6.88,0,0,0,2.74,1.91l1.5.51,6.15,6.16a4.1,4.1,0,0,1-.29,2.2l-1.24,1.24a4.18,4.18,0,0,1-2.31.37l-6.17-6.17-.58-1.37Z" transform="translate(0)" style="fill: #162345;fill-rule: evenodd"/>
        <path d="M266.91,108.49a7.19,7.19,0,0,1-2.37-1.24,9.31,9.31,0,0,1-1.22-1c-.17-.18-.34-.36-.5-.55-1.34-1.58-2.27-3.48-3.67-5a7.34,7.34,0,0,0-2.55-1.78l-1.46-.62-6.38-6.38,0-.19a4.62,4.62,0,0,1,.44-2.65l0-.06,0,0,1.24-1.24.06-.06.06,0a4.68,4.68,0,0,1,2.51-.35h.2l.14.15,6.15,6.15.09.09.55,1.62A6.26,6.26,0,0,0,262,97.78l.43.38c1.61,1.32,3.51,2.22,5.05,3.65a10.32,10.32,0,0,1,2.47,3.37l.07.17,0,.18a3.5,3.5,0,0,1-3,3h-.11Z" transform="translate(0)" style="fill: #fff;fill-rule: evenodd"/>
        <path d="M256.81,98.38a8,8,0,0,1,2.74,1.91c1.57,1.7,2.55,3.88,4.16,5.55a9.2,9.2,0,0,0,3.23,2.11,3,3,0,0,0,2.54-2.54,9.62,9.62,0,0,0-2.34-3.2c-1.66-1.54-3.81-2.5-5.48-4a6.81,6.81,0,0,1-1.91-2.74l-.51-1.5-6.15-6.15a4.22,4.22,0,0,0-2.21.29l-1.24,1.24a4.1,4.1,0,0,0-.36,2.31l6.16,6.17,1.37.58Z" transform="translate(0)" style="fill: #162345;fill-rule: evenodd"/>
        <path d="M181.33,73a3.53,3.53,0,0,1,0-4.21l.1-.15.18-.07a10.53,10.53,0,0,1,4.12-.64l.67,0c2,.2,4,.89,6.06,1a6.26,6.26,0,0,0,3-.53l1.54-.75h9l.15.13a4.58,4.58,0,0,1,1.52,2l0,.07v2A4.63,4.63,0,0,1,206.13,74l-.15.12h-9l-1.47-.6a7.49,7.49,0,0,0-3.07-.54l-.51,0c-2.14.19-4.19.91-6.36,1a9.47,9.47,0,0,1-1.59-.13,6.91,6.91,0,0,1-2.56-.8l0,0,0,0Z" transform="translate(0)" style="fill: #fff;fill-rule: evenodd"/>
        <path d="M195.69,73.06a8.06,8.06,0,0,0-3.29-.58c-2.31.09-4.55.94-6.86,1a9.31,9.31,0,0,1-3.78-.79,3,3,0,0,1,0-3.6,9.72,9.72,0,0,1,3.92-.6c2.27.09,4.46.92,6.72,1a6.86,6.86,0,0,0,3.29-.58l1.42-.7h8.7A4.14,4.14,0,0,1,207.17,70v1.76a4.24,4.24,0,0,1-1.38,1.89h-8.72l-1.38-.56Z" transform="translate(0)" style="fill: #162345;fill-rule: evenodd"/>
        <path d="M283.42,73.07a6.91,6.91,0,0,1-2.56.8,9.31,9.31,0,0,1-1.59.13c-.25,0-.49,0-.74,0-2.06-.17-4.07-.86-6.13-.94a7.44,7.44,0,0,0-3.06.54l-1.48.6h-9l-.15-.12a4.61,4.61,0,0,1-1.56-2.19l0-.06v-1.9l0-.07a4.66,4.66,0,0,1,1.52-2l.16-.13h9l1.53.75a6.28,6.28,0,0,0,3,.53l.57,0c2.07-.2,4-.9,6.15-1a10.58,10.58,0,0,1,4.13.64l.17.07.1.15a3.51,3.51,0,0,1,0,4.21l0,0,0,0Z" transform="translate(0)" style="fill: #fff;fill-rule: evenodd"/>
        <path d="M269.13,73.06a8.06,8.06,0,0,1,3.29-.58c2.31.09,4.55.94,6.86,1a9.23,9.23,0,0,0,3.78-.79,3,3,0,0,0,0-3.6,9.72,9.72,0,0,0-3.92-.6c-2.26.09-4.46.92-6.72,1a6.86,6.86,0,0,1-3.29-.58l-1.42-.7H259A4.12,4.12,0,0,0,257.66,70v1.76A4.13,4.13,0,0,0,259,73.62h8.73l1.37-.56Z" transform="translate(0)" style="fill: #162345;fill-rule: evenodd"/>
        <path d="M197.76,108.5a3.5,3.5,0,0,1-3-3l0-.18.07-.17a10.32,10.32,0,0,1,2.47-3.37l.5-.44c1.58-1.3,3.47-2.21,5-3.59a6.23,6.23,0,0,0,1.76-2.51l.56-1.62.09-.09,6.15-6.15.14-.15h.2a4.68,4.68,0,0,1,2.51.35l.06,0,.06,0L215.52,89l0,0,0,0a4.66,4.66,0,0,1,.44,2.66l0,.19-6.38,6.38-1.47.62a7.53,7.53,0,0,0-2.55,1.78l-.34.39c-1.38,1.64-2.32,3.6-3.82,5.16a9.12,9.12,0,0,1-1.22,1,7,7,0,0,1-2.37,1.25h-.11Z" transform="translate(0)" style="fill: #fff;fill-rule: evenodd"/>
        <path d="M208,98.4a7.89,7.89,0,0,0-2.73,1.91c-1.57,1.7-2.56,3.88-4.16,5.54a9.2,9.2,0,0,1-3.23,2.12,3,3,0,0,1-2.55-2.54,9.78,9.78,0,0,1,2.35-3.2c1.66-1.54,3.8-2.5,5.47-4A6.74,6.74,0,0,0,205,95.46l.51-1.5,6.15-6.15a4.08,4.08,0,0,1,2.2.29l1.25,1.24a4.1,4.1,0,0,1,.36,2.31l-6.17,6.17L208,98.4Z" transform="translate(0)" style="fill: #162345;fill-rule: evenodd"/>
        <path d="M270,36.37a6.66,6.66,0,0,1-1.24,2.37,8.63,8.63,0,0,1-1,1.22c-.18.17-.36.34-.55.5-1.58,1.34-3.49,2.27-5,3.67a7.51,7.51,0,0,0-1.79,2.55l-.61,1.47-6.38,6.37-.19,0a4.65,4.65,0,0,1-2.66-.44l-.05,0,0,0-1.25-1.25-.05-.05,0-.07a4.59,4.59,0,0,1-.36-2.51l0-.2.14-.14,6.15-6.15.09-.09,1.62-.55a6.36,6.36,0,0,0,2.52-1.77c.13-.14.25-.28.37-.43,1.32-1.61,2.23-3.5,3.65-5a10.5,10.5,0,0,1,3.37-2.46l.17-.08.18,0a3.5,3.5,0,0,1,3,3v.11Z" transform="translate(0)" style="fill: #fff;fill-rule: evenodd"/>
        <path d="M259.89,46.47a8.09,8.09,0,0,1,1.92-2.74c1.69-1.57,3.88-2.55,5.54-4.16a8.92,8.92,0,0,0,2.11-3.23,3,3,0,0,0-2.54-2.54,9.72,9.72,0,0,0-3.2,2.34c-1.54,1.66-2.49,3.81-4,5.48A7,7,0,0,1,257,43.53l-1.5.51-6.15,6.15a4.12,4.12,0,0,0,.28,2.21l1.25,1.24a4.1,4.1,0,0,0,2.31.36l6.17-6.16.57-1.37Z" transform="translate(0)" style="fill: #162345;fill-rule: evenodd"/>
        <path d="M244.22,39.4a33.73,33.73,0,1,1-43.58,19.41A33.74,33.74,0,0,1,244.22,39.4ZM243,42.54A30.37,30.37,0,1,1,203.78,60,30.37,30.37,0,0,1,243,42.54Z" transform="translate(0)" style="fill: #162345;fill-rule: evenodd"/>
        <path d="M244.13,39.64h0a33.48,33.48,0,1,0-24,62.51h0a33.48,33.48,0,0,0,43.25-19.26h0a33.47,33.47,0,0,0-19.26-43.25Zm.18-.48a34,34,0,0,1,19.56,43.91h0A34,34,0,0,1,220,102.63h0a34,34,0,1,1,24.35-63.47Zm-1.38,3.61h0A30.14,30.14,0,0,0,204,60.1h0a30.12,30.12,0,1,0,56.24,21.59h0a30.11,30.11,0,0,0-17.32-38.91Zm.18-.47a30.63,30.63,0,0,1,17.62,39.57h0a30.63,30.63,0,1,1-57.19-22h0A30.61,30.61,0,0,1,243.11,42.3Z" transform="translate(0)" style="fill: #fff"/>
        <path d="M224.39,38.91a.87.87,0,1,1-1,.77.88.88,0,0,1,1-.77Z" transform="translate(0)" style="fill: #fff;fill-rule: evenodd"/>
        <path d="M240.44,101.06a.88.88,0,0,1,.78,1,.86.86,0,0,1-1,.77.87.87,0,0,1,.18-1.74Z" transform="translate(0)" style="fill: #fff;fill-rule: evenodd"/>
        <path d="M216.4,42.05a.88.88,0,1,1-.73,1,.87.87,0,0,1,.73-1Z" transform="translate(0)" style="fill: #fff;fill-rule: evenodd"/>
        <path d="M248,97.93a.88.88,0,0,1,1,.73.88.88,0,1,1-1-.73Z" transform="translate(0)" style="fill: #fff;fill-rule: evenodd"/>
        <path d="M209.48,47.15a.89.89,0,0,1,1.16.45.88.88,0,0,1-1.6.71.88.88,0,0,1,.44-1.16Z" transform="translate(0)" style="fill: #fff;fill-rule: evenodd"/>
        <path d="M254.46,93a.88.88,0,1,1-.44,1.15.87.87,0,0,1,.44-1.15Z" transform="translate(0)" style="fill: #fff;fill-rule: evenodd"/>
        <path d="M204.13,53.87a.87.87,0,1,1,1.1,1.36.87.87,0,1,1-1.1-1.36Z" transform="translate(0)" style="fill: #fff;fill-rule: evenodd"/>
        <path d="M259.43,86.48a.87.87,0,0,1,1.23.13.87.87,0,1,1-1.23-.13Z" transform="translate(0)" style="fill: #fff;fill-rule: evenodd"/>
        <path d="M200.69,61.75a.88.88,0,1,1,.2,1.22.88.88,0,0,1-.2-1.22Z" transform="translate(0)" style="fill: #fff;fill-rule: evenodd"/>
        <path d="M262.55,78.93a.87.87,0,1,1,.19,1.22.87.87,0,0,1-.19-1.22Z" transform="translate(0)" style="fill: #fff;fill-rule: evenodd"/>
        <path d="M199.41,70.25a.88.88,0,1,1,.51,1.13.88.88,0,0,1-.51-1.13Z" transform="translate(0)" style="fill: #fff;fill-rule: evenodd"/>
        <path d="M263.61,70.83a.87.87,0,1,1,.5,1.13.88.88,0,0,1-.5-1.13Z" transform="translate(0)" style="fill: #fff;fill-rule: evenodd"/>
        <path d="M200.38,78.79a.87.87,0,1,1,.78,1,.88.88,0,0,1-.78-1Z" transform="translate(0)" style="fill: #fff;fill-rule: evenodd"/>
        <path d="M262.54,62.74a.87.87,0,1,1,.78,1,.88.88,0,0,1-.78-1Z" transform="translate(0)" style="fill: #fff;fill-rule: evenodd"/>
        <path d="M203.52,86.79a.88.88,0,0,1,1.73-.28.89.89,0,0,1-.73,1,.88.88,0,0,1-1-.73Z" transform="translate(0)" style="fill: #fff;fill-rule: evenodd"/>
        <path d="M259.41,55.2a.87.87,0,0,1,.72-1,.87.87,0,1,1,.28,1.72.87.87,0,0,1-1-.72Z" transform="translate(0)" style="fill: #fff;fill-rule: evenodd"/>
        <path d="M208.63,93.7a.87.87,0,1,1,1.15.44.86.86,0,0,1-1.15-.44Z" transform="translate(0)" style="fill: #fff;fill-rule: evenodd"/>
        <path d="M254.43,48.72A.88.88,0,0,1,256,48a.88.88,0,0,1-.44,1.16.89.89,0,0,1-1.16-.45Z" transform="translate(0)" style="fill: #fff;fill-rule: evenodd"/>
        <path d="M215.35,99.06a.87.87,0,1,1,1.36-1.1.87.87,0,0,1-1.36,1.1Z" transform="translate(0)" style="fill: #fff;fill-rule: evenodd"/>
        <path d="M248,43.76a.88.88,0,1,1,1.36-1.11A.88.88,0,0,1,248,43.76Z" transform="translate(0)" style="fill: #fff;fill-rule: evenodd"/>
        <path d="M223.22,102.49a.88.88,0,0,1-.19-1.22.87.87,0,0,1,1.22-.19.87.87,0,1,1-1,1.41Z" transform="translate(0)" style="fill: #fff;fill-rule: evenodd"/>
        <path d="M240.4,40.64a.89.89,0,0,1-.19-1.23.88.88,0,0,1,1.42,1,.89.89,0,0,1-1.23.2Z" transform="translate(0)" style="fill: #fff;fill-rule: evenodd"/>
        <path d="M232.93,37.94a.87.87,0,1,1-1.13.5.87.87,0,0,1,1.13-.5Z" transform="translate(0)" style="fill: #fff;fill-rule: evenodd"/>
        <path d="M232.35,102.14a.87.87,0,1,1-1.13.5.87.87,0,0,1,1.13-.5Z" transform="translate(0)" style="fill: #fff;fill-rule: evenodd"/>
        <path d="M252.34,65.14c.08.39.52.82.73,1.34A3.36,3.36,0,0,1,252,70.16a3.71,3.71,0,0,0-.56.49c1.45,0,3.17-1.55,3.63-3.06a3.4,3.4,0,0,0-.44-2.77c-.28-.41-.49-.52-1.1-.28a3.42,3.42,0,0,0-1.19.6Z" transform="translate(0)" style="fill: #162345;fill-rule: evenodd"/>
        <path d="M233.45,89.24c3.24,1,6.23,1.91,9.72.62a10.57,10.57,0,0,0,3.57-2.25,12.35,12.35,0,0,0,2.42-3.52,5.75,5.75,0,0,0-.66.77,10.89,10.89,0,0,1-6.68,3.57c-6.43.82-11.4-4.51-19.82-2.06a17,17,0,0,0-4,1.79l-.07,0a16.8,16.8,0,0,1,2.72-.85,16.23,16.23,0,0,1,4.24-.28c2.67.19,6,1.35,8.58,2.17Z" transform="translate(0)" style="fill: #162345;fill-rule: evenodd"/>
        <path d="M229.44,91.23c3.17,1.22,6.27,2.85,10.18,1.6,1-.33,2.41-1,2.76-1.69-1.44.2-1.38.56-3.79.42a17.85,17.85,0,0,1-3.87-.7c-5-1.39-8.59-3.85-14.76-2.53a16.12,16.12,0,0,0-2.46.8c.4-.09.78-.16,1.11-.2,4.59-.54,7.64.81,10.83,2.3Z" transform="translate(0)" style="fill: #162345;fill-rule: evenodd"/>
        <path d="M222.24,54.87v3.06a21,21,0,0,0-4.09-1.52c-.93-.12-.71.38-1.1.79-1,1.07-5.25-.47-5.68-1.27,1.09.32,3.92,1.3,4.81.49.06-.79-.58-.69-.42-1.78.17-.32.6-.5,1.5-.56,2.17-.14,3.5.79,5,1.3v-.51Zm0,1a1.94,1.94,0,0,0-1,.36c-.1.79.63,1.14,1,1.47V55.82Z" transform="translate(0)" style="fill: #162345;fill-rule: evenodd"/>
        <path d="M215.39,65.15l0,1.91v.18h0l0,2.24,0,2.07-.37-2a.83.83,0,0,0-.08-.28.52.52,0,0,0-.12-.19,1.87,1.87,0,0,0-2.22-.35,3.65,3.65,0,0,1-1.33.23,4.29,4.29,0,0,1-1.1-.18,1.32,1.32,0,0,1-.82-.63l-.09-.16.17-.07a3.25,3.25,0,0,1,.65-.15,2.62,2.62,0,0,0,.61-.13,1.33,1.33,0,0,0,.44-.28,1.57,1.57,0,0,0,.21-.28l-.44-.27a4.61,4.61,0,0,1-.57-.36,3.34,3.34,0,0,1-.52-.49,1.51,1.51,0,0,1-.36-.7l0-.24.24,0a6.48,6.48,0,0,1,.77.22,2,2,0,0,0,1.86-.07,3.84,3.84,0,0,1,1.35-.49,3,3,0,0,1,1.51.3h0l.14,0v.14Zm-.3,3.59v-.09l-.05,0a2,2,0,0,1-.7-.94h0c0-.28.13-.52.69-.63L215,67c-.48-.22-1-.44-.75-1.12v0l0,0c.27-.35.45-.34.83-.3v-.26a2.7,2.7,0,0,0-1.31-.26,3.47,3.47,0,0,0-1.22.45,2.28,2.28,0,0,1-2.13.09l-.43-.13a1.31,1.31,0,0,0,.19.27,3.16,3.16,0,0,0,.47.44,4.24,4.24,0,0,0,.54.34,2.88,2.88,0,0,1,.59.4l.1.08-.06.12a2.08,2.08,0,0,1-.34.48,1.68,1.68,0,0,1-.55.35,2.58,2.58,0,0,1-.69.16l-.36.06a1.29,1.29,0,0,0,.5.29,4.18,4.18,0,0,0,1,.16,3.33,3.33,0,0,0,1.21-.22,2.17,2.17,0,0,1,2.51.39Zm0-1.36c-.3.06-.4.15-.39.25h0a1.11,1.11,0,0,0,.39.53v-.78Zm0-1.5c-.24,0-.36,0-.51.14-.11.37.21.52.54.67l0-.81Z" transform="translate(0)" style="fill: #162345"/>
        <path d="M235.26,82.5c.92-.55,1.44.92.65,1.24a.74.74,0,0,1-.95-.32.61.61,0,0,1,.3-.92Zm-8.68-4.43h-.81l-.21-.54h.83l.19.55Zm-1.36,0h-.86l-.2-.53H225l.2.54ZM224,77l-.2-.5h.86l.19.5Zm-.38-1,.57-.72.28.72Zm1.12-.73,1.18.73H225l-.27-.73Zm1.35,1.24.17.5h-.86l-.19-.5Zm-7.24-1.74h-.9l-.08-.54h.91l.07.55Zm-1.42,0h-.78l-.1-.53h.81l.07.53Zm-1-1-.09-.51h.86l.07.51Zm-.18-1,.77-.83.11.83Zm1.28-.84,1,.84h-.89l-.12-.84Zm1.11,1.35.06.51h-.92l-.06-.51Zm3.27,1.57h-.83l-.06-.54h.85l0,.55Zm-1.34,0h-.87l-.06-.53h.87l.06.53Zm-1-1-.06-.51h.88l.06.51Zm-.1-1,.78-.73.08.73Zm1.3-.74,1,.74h-.92l-.08-.74Zm1,1.25,0,.51H221l-.06-.51Zm13-18.8a10.59,10.59,0,0,0-1.89-.66,1.12,1.12,0,0,0-.7,0,4.51,4.51,0,0,0-.52.29,4.53,4.53,0,0,1-.95.43l-.32.1a4.4,4.4,0,0,1-2.25.13,7.72,7.72,0,0,1-3-1.6l-1-.83,1.32.09a5.77,5.77,0,0,1,1.74.43l.45.18.15,0a4.56,4.56,0,0,0,1.09,0,7.88,7.88,0,0,1-1.34-.52,6.17,6.17,0,0,1-1.71-1.12l-.5-.58.74.16.86.19c.72.17,1.57.37,2,.41,1,.09,1.07-.1,1.18-.33a1.25,1.25,0,0,1,.42-.58,3.17,3.17,0,0,1,2.13-.52,5.39,5.39,0,0,1,2.26.63,6.91,6.91,0,0,0,.17-.84h.42a1.45,1.45,0,0,1,.13.68v3.66h0v.26a18,18,0,0,1,6.27,1.9A17,17,0,0,1,244.39,58l2.2,1.94c3.53,3.83,4.63,6.76,3.59,12.15a2.84,2.84,0,0,0,1.24-.8c0-1.12-.17-6.86.13-7.32.44,0,.46.19.45.5,0,.14,0-1.13,0,3v4.23c-.08.25-5.91,3.53-6.88,4.13a22.6,22.6,0,0,1-2.26,1.3A2.49,2.49,0,0,0,245.3,79l.16,0-.08-.21,0-.35c-.52.19-.9.4-1.34-.13a.92.92,0,0,1,.08-1.24c.74-.74,2.77.07,2.4-1-.61,0,0,0-.45.18-.67.22-.34-1.13.69-.52.61.37.23.81.07,1.2.44,0,.59-.17.92-.27a2.67,2.67,0,0,1,.74-2.3.94.94,0,0,1,1.54.17c.24.22.1-.06.32.31-.07.52-.34.42-.69.65.16.26.14.53.25.68.76-.24.51-.79,1.41-.75.24.18.15.19.22.25.28.29,1.18.24.53,1.44l-.84,0c-.23.27-.37.62-.59.93a8.09,8.09,0,0,1-4.16,3.08c-1,.32-.58.2-1.35,1.47a11.46,11.46,0,0,1-2.67,3.07c-2.1,1.7-1.86,1.55-4.05,1.18-3.26-.54-6.12-1.68-9.26-2.2a16.8,16.8,0,0,0-5.25-.06c-2.77.37-2.66.69-4.53,1.22-.57-.77,0-1.72-.39-2.83-.23-.74-.77-1.54-.93-2.31,1.07.21,2,.47,3.15.65a66.84,66.84,0,0,0,17.59-.18c1.08-.14,2.19-.3,3.27-.47.63-.1,3-.27,2.59-1-.38-.3-2.09.15-2.67.24-2.67.39-5.45.71-8.14.89a63.87,63.87,0,0,1-11.57-.08c-.89-.1-1.75-.23-2.61-.4-.7-.14-1.92-.26-2.21-.8a32.72,32.72,0,0,1-1.62-4.4,19.86,19.86,0,0,1-.6-6.21l0,0a.34.34,0,0,1-.47-.1,8.74,8.74,0,0,0-1-1.29,4.1,4.1,0,0,0-.58-.5,2.87,2.87,0,0,1-3.26,1.4.35.35,0,0,1-.26-.41.35.35,0,0,1,.41-.26,2.25,2.25,0,0,0,2.51-1.07,5.3,5.3,0,0,0-1-.26,3.79,3.79,0,0,1-1.73-.7.35.35,0,0,1-.07-.48.36.36,0,0,1,.48-.06,3.15,3.15,0,0,0,1.45.57,4.76,4.76,0,0,1,1.23.37c.6-.86,1.15-1.55,2.3-1.1,0-.19.12-.31.27-.32s.25,0,.29.08l-.05,4.65a3.9,3.9,0,0,0,0,1.08v.19h0a2.36,2.36,0,0,0,0,.28,53.8,53.8,0,0,0,6.35,0c.13-.76,0-5.61,0-7a1.12,1.12,0,0,0-.29-1A18.34,18.34,0,0,0,218,58.77c-.24-.18-1.23-.68-1.33-1,1.9.05,3.9,1.08,5.54,1.51l.05-5a.41.41,0,0,1,.58,0v5.21h0v.11a16.57,16.57,0,0,1,7.06,5c1.89,2.45,3.28,5.81,2.58,9.09-.38,1.77-2.1,4.66-3.25,4.82-.18-.25-.5-1.88-.71-2.39a5.2,5.2,0,0,0-3-3.17,4.53,4.53,0,0,0-2.54-.28c-.3.22-.05,1.63,0,1.54s0,.05,0,.06c.54.37,2.5,0,3.31.16.45.44,1.57,4.52,2,5.5,2.31,0,4.51-.23,6.72-.26V77.15c-.7.22-3.07,1.47-3.69,1.34-.17-.45.56-1,.95-1.45,2.52-2.62,3.85-7.45,2.05-11-.26-.52-.83-1.08-.86-1.62.43-.53.78-.62,1.13-1.53a4,4,0,0,0,.22-2.13,2.68,2.68,0,0,0-1.11-1.42c-1.11-.75-1.42-.48-1.5-1.06l2.82-.39c0-.53,0-2,0-3.47l-.14-.05Zm-4.94-1.75c.52-.16.36-.59.8-.93,1-.81,3-.49,4.1.13,0-.19,0-.38.07-.56h0a4.62,4.62,0,0,0-2.21-.67,2.74,2.74,0,0,0-1.79.41.92.92,0,0,0-.26.39c-.19.42-.35.76-1.7.63-.37,0-1-.19-1.68-.34a6.49,6.49,0,0,0,.59.31,6,6,0,0,0,1.77.59l.33,0ZM215.2,65.76a.2.2,0,0,1-.11,0c-.72-.32-1.13.16-1.56.77a5.7,5.7,0,0,1,.68.59,8.83,8.83,0,0,1,1,1.31c0-.56,0-1.12,0-1.69,0-.29,0-.63,0-.95Zm23.68,16.32a.71.71,0,0,1,.53,1.32.71.71,0,1,1-.53-1.32Zm3.34-.42c.85-.57,1.47.7.76,1.17a.7.7,0,1,1-.76-1.17ZM245,78.15c-1.36.33-.6-1.46.67-1l-.22.25c-.43.41-.17.33-.45.76ZM250.45,77a6.24,6.24,0,0,1-2.06,1.89l-.27-.38c-.39,0-.52.12-.73,0,.19-.68,1.56.25,2.06-1.2.72,0,.59,0,1-.29Zm0,0c.05-.09.08-.18.13-.26a.59.59,0,0,1,.15-.16,1.17,1.17,0,0,1-.11.28c-.11.16-.07.07-.17.14Zm.38-.58-.1.16c0-.33,0-.11.1-.16Zm0,0c.06-.21-.05-.08.11-.2,0,.4,0,.11-.11.2Zm-28-11.84a9.6,9.6,0,0,1,1.65,3.79c.28,1.68-.45,3.64-1.67,3.76l0-7.55ZM238.48,77.1c-1.24.29-1.06.13-1.58,1.15s-.56,1.28-1.29,1.38V76.85a13.44,13.44,0,0,0,4-2.42,6.41,6.41,0,0,0,.81-8.35c-1-1.27-2.2-1.49-2.68-2,.28-.94.83-1.44.82-2.73a4.52,4.52,0,0,0-1.88-3.6l-1.12.1V56a19.89,19.89,0,0,1,3.89,3.29c.35.43.72.85,1.05,1.3,5,6.66,1.57,10.6,1.76,11.58.58,0,1.64-1.29,3.82-1.32a4.72,4.72,0,0,1,2.18.49,7,7,0,0,1,.84.48l.54.42c.14.16,0-.06.14.19l-3.51,1.94c-1.13.67-2.3,1.29-3.42,1.94-.77.44-.36.13-1.09.13l-3.33.71Z" transform="translate(0)" style="fill: #162345;fill-rule: evenodd"/>
        <path d="M235,54c-3.27-1.35-2.57-.52-4.35.07-1.34.45-2.69.68-5.18-1.3a16.09,16.09,0,0,1,2.69.77,4,4,0,0,0,1.65.05c.92-.32.65-.54,1.15-.93,1.05-.81,3.09-.42,4.06.24,0,0,0,.44,0,1.1Z" transform="translate(0)" style="fill: #5f6c99;fill-rule: evenodd"/>
        <path d="M292,70.49l0,0,0,0Zm1.84-1.18.61-.81,0,3.83c0-.16-.45-2.32-.51-2.63a3.39,3.39,0,0,1-.08-.39Zm1.57-.2,1.55,1.55c-.14,0-1.4-1-1.55-1,0-.08.05-.19.07-.28s0-.14-.07-.26Zm0,0,0,0,0,0Zm0,0,0,0,0,0ZM292,70.49c0-.09.63-1,.74-1.13a2.82,2.82,0,0,0,.24-.4c.57.14.33.06.54,0L292,70.49Zm1.55-1.55,0,0,0,0Zm0,0,0,0,0,0Zm1.38-.74.9,0h2.83v0c-.17,0-2.23.44-2.57.5s-.32.1-.47,0-.64-.46-.69-.53Zm-4.65-.2c.16,0,2.31-.45,2.61-.51.53-.1.31-.16.86.26a4,4,0,0,1,.37.28l-3.84,0Zm5.23-.73,0,0,0,0Zm0,0,0,0,0,0Zm-1.84-.1,0,0,0,0Zm0,0,0,0,0,0Zm.94.59V63.88a.42.42,0,0,1,0,0l.2,1c.07.33.14.69.21,1l.1.52c.1.5.16.3-.25.86a3.76,3.76,0,0,1-.28.36Zm.93-.47,1.55-1.55a2.92,2.92,0,0,1-.25.4l-.76,1.15a1.62,1.62,0,0,0-.29-.06c-.18,0-.12,0-.25.06Zm1.57-1.57,0,0,0,0Zm-3.46,1.42-1.52-1.52c.1,0,1,.63,1.13.74a1.78,1.78,0,0,0,.39.24c-.13.57-.06.33,0,.54Zm-1.52-1.52,0,0,0,0Zm0,0,0,0,0,0Zm1.6.76-.31-.19c-.11-.07-.2-.14-.31-.2s-1.8-1.23-1.86-1.23a.14.14,0,0,0-.13.12c0,.06.76,1.16.81,1.23l.41.62c.07.11.38.55.41.63a3.69,3.69,0,0,0-.46.08l-1.39.29-.92.18-.68.13c-.18,0-.19,0-.19.16v0c0,.1.22.11.4.14l3.24.65c-.15.27-1.63,2.41-1.63,2.48a.15.15,0,0,0,.13.12s.54-.35.61-.39l1.24-.83.31-.2a1.22,1.22,0,0,1,.32-.2l.68,3.44c0,.18,0,.19.16.19h0c.1,0,.11-.22.14-.39.15-.72.35-1.63.46-2.32l.14-.68a1.72,1.72,0,0,0,0-.24,3.45,3.45,0,0,1,.32.2l1.86,1.23a.75.75,0,0,0,.35.19l.08-.1a3.74,3.74,0,0,0-.4-.64l-.41-.62-.41-.62a5.82,5.82,0,0,1-.4-.62l3.44-.69c.18,0,.19,0,.19-.15v0c0-.09-.09-.09-.17-.11l-.23,0-3.23-.64a7.09,7.09,0,0,1,.4-.63c.14-.22,1.18-1.7,1.22-1.87l-.1-.11a4.48,4.48,0,0,0-.64.4l-1.24.83-.31.2a1.32,1.32,0,0,1-.32.2,3.54,3.54,0,0,0-.08-.45c0-.17-.06-.3-.1-.47l-.5-2.52c0-.18,0-.2-.16-.2h0c-.08,0-.08.09-.1.17l-.68,3.47Z" transform="translate(0)" style="fill: #152443;fill-rule: evenodd"/>
        <path d="M167.24,70.49l0,0,0,0Zm1.84-1.18.62-.81,0,3.83c0-.16-.45-2.32-.51-2.63a3.39,3.39,0,0,1-.08-.39Zm1.58-.2,1.54,1.55c-.14,0-1.39-1-1.54-1a2.3,2.3,0,0,0,.06-.28c0-.17,0-.14-.06-.26Zm0,0,0,0,0,0Zm0,0,0,0,0,0Zm-3.39,1.4c0-.09.64-1,.74-1.13a2.92,2.92,0,0,0,.25-.4c.57.14.32.06.54,0l-1.53,1.53Zm1.55-1.55,0,0,0,0Zm0,0,0,0,0,0Zm1.38-.74.91,0h2.82v0c-.17,0-2.23.44-2.57.5s-.31.1-.46,0-.65-.46-.7-.53Zm-4.64-.2c.15,0,2.31-.45,2.61-.51.52-.1.3-.16.86.26a2.82,2.82,0,0,1,.36.28l-3.83,0Zm5.23-.73,0,0,0,0Zm0,0,0,0,0,0Zm-1.84-.1,0,0,0,0Zm0,0,0,0,0,0Zm.93.59V63.88s0,0,0,0l.21,1c.07.33.13.69.2,1l.1.52c.11.5.17.3-.25.86a3.76,3.76,0,0,1-.28.36Zm.93-.47,1.55-1.55a2.82,2.82,0,0,1-.24.4l-.77,1.15a1.7,1.7,0,0,0-.28-.06c-.18,0-.13,0-.26.06Zm1.58-1.57,0,0,0,0Zm-3.47,1.42-1.52-1.52c.1,0,1,.63,1.13.74a2.06,2.06,0,0,0,.39.24c-.13.57,0,.33,0,.54Zm-1.52-1.52,0,0,0,0Zm0,0,0,0,0,0Zm1.59.76-.3-.19-.31-.2c-.13-.09-1.81-1.23-1.87-1.23a.13.13,0,0,0-.12.12c0,.06.76,1.16.8,1.23.15.22.27.41.42.62a7.09,7.09,0,0,1,.4.63,4,4,0,0,0-.46.08l-1.38.29-.92.18-.68.13c-.19,0-.19,0-.19.16v0c0,.1.21.11.39.14l3.24.65c-.15.27-1.62,2.41-1.62,2.48a.14.14,0,0,0,.12.12c.05,0,.54-.35.62-.39l1.23-.83.31-.2a1.66,1.66,0,0,1,.32-.2l.69,3.44c0,.18,0,.19.16.19h0c.11,0,.11-.22.15-.39.14-.72.34-1.63.46-2.32l.13-.68c0-.07,0-.16.05-.24l.32.2,1.85,1.23a.74.74,0,0,0,.36.19l.07-.1a4.39,4.39,0,0,0-.39-.64l-.42-.62-.41-.62a5.82,5.82,0,0,1-.4-.62l3.44-.69c.18,0,.19,0,.19-.15v0c0-.09-.08-.09-.17-.11l-.22,0-3.24-.64a7.09,7.09,0,0,1,.4-.63c.15-.22,1.18-1.7,1.22-1.87l-.09-.11a4.56,4.56,0,0,0-.65.4l-1.23.83-.31.2a1.87,1.87,0,0,1-.32.2,3.58,3.58,0,0,0-.09-.45c0-.17-.06-.3-.09-.47l-.51-2.52c0-.18,0-.2-.16-.2h0c-.09,0-.09.09-.1.17L169,66.29Z" transform="translate(0)" style="fill: #152443;fill-rule: evenodd"/>
      </g>
    </g>
  </g>
</svg>
