<svg xmlns="http://www.w3.org/2000/svg" xmlns:xlink="http://www.w3.org/1999/xlink" width="747.61" height="141.79" viewBox="0 0 747.61 141.79">
  <defs>
    <clipPath id="clip-path" transform="translate(0)">
      <rect y="4.87" width="105.57" height="126.28" style="fill: none"/>
    </clipPath>
  </defs>
  <title>logo-75_3</title>
  <g id="Layer_2" data-name="Layer 2">
    <g id="Layer_1-2" data-name="Layer 1">
      <g>
        <polygon points="12.87 123.08 14.19 123.08 14.19 130.77 15.99 130.77 15.99 121.52 12.87 121.52 12.87 123.08 12.87 123.08" style="fill: #c05a46"/>
        <path d="M23.24,126.16a1.7,1.7,0,1,1,1.7-1.7,1.66,1.66,0,0,1-1.7,1.7Zm0-4.85a3.19,3.19,0,0,0-3.49,3.29,2.87,2.87,0,0,0,2.9,3,2.49,2.49,0,0,0,1-.23l-2.19,2.8,1.27,1,2.81-3.77a4.76,4.76,0,0,0,1.16-2.88,3.17,3.17,0,0,0-3.5-3.19Z" transform="translate(0)" style="fill: #c05a46"/>
        <path d="M33.34,127.69H31L33.34,124v3.67ZM35,121.36H33.41l-4.57,7v.8h4.5v1.64H35v-1.64H36.1v-1.44H35v-6.33Z" transform="translate(0)" style="fill: #c05a46"/>
        <path d="M41.49,124.47a3.49,3.49,0,0,0-.61.06l.33-1.46h3.06v-1.55H40l-1.09,4.85H39a2.83,2.83,0,0,1,1.77-.59,1.85,1.85,0,0,1,2.08,1.85A1.73,1.73,0,0,1,41,129.42a3,3,0,0,1-2.33-1.18l-.59,1.56a4,4,0,0,0,3,1.17c2.55,0,3.61-1.62,3.61-3.36a3,3,0,0,0-3.2-3.14Z" transform="translate(0)" style="fill: #c05a46"/>
        <polygon points="47.26 127.47 54.58 127.47 54.58 126.03 47.26 126.03 47.26 127.47 47.26 127.47" style="fill: #c05a46"/>
        <path d="M61.84,127.48a4.86,4.86,0,0,0,1.67-3.23,3,3,0,0,0-3.24-2.94A3.09,3.09,0,0,0,57,124.4h1.85a1.47,1.47,0,0,1,1.47-1.53,1.34,1.34,0,0,1,1.37,1.4,2.91,2.91,0,0,1-.54,1.48c-.34.5-1.41,1.73-1.58,1.93l-2.7,3.09h6.68v-1.56H60.25l1.59-1.73Z" transform="translate(0)" style="fill: #c05a46"/>
        <path d="M69.79,129.42c-.78,0-1.76-.87-1.76-3.28s1-3.27,1.76-3.27,1.77.87,1.77,3.27-1,3.28-1.77,3.28Zm0-8.11c-1.83,0-3.56,1.65-3.56,4.83S68,131,69.79,131s3.57-1.65,3.57-4.82-1.73-4.84-3.57-4.84Z" transform="translate(0)" style="fill: #c05a46"/>
        <path d="M80.29,127.48A4.86,4.86,0,0,0,82,124.25a3,3,0,0,0-3.25-2.94,3.08,3.08,0,0,0-3.23,3.09h1.85a1.47,1.47,0,0,1,1.47-1.53,1.33,1.33,0,0,1,1.36,1.4,3,3,0,0,1-.53,1.48c-.34.5-1.41,1.73-1.58,1.93l-2.71,3.09H82v-1.56H78.7l1.59-1.73Z" transform="translate(0)" style="fill: #c05a46"/>
        <g style="clip-path: url(#clip-path)">
          <path d="M88.24,129.42c-.79,0-1.77-.87-1.77-3.28s1-3.27,1.77-3.27,1.77.87,1.77,3.27-1,3.28-1.77,3.28Zm0-8.11c-1.83,0-3.56,1.65-3.56,4.83S86.41,131,88.24,131s3.57-1.65,3.57-4.82-1.73-4.84-3.57-4.84Z" transform="translate(0)" style="fill: #c05a46"/>
          <polygon points="14.6 113.9 14.6 97.28 0 97.28 0 113.9 4.31 113.9 4.31 100.97 10.26 100.97 10.26 113.9 14.6 113.9 14.6 113.9" style="fill: #c05a46"/>
        </g>
        <path d="M21.28,105.68a4.57,4.57,0,0,1,1.32-3.27A4.79,4.79,0,0,1,26,101.09a5,5,0,0,1,3.34,1.32,4.51,4.51,0,0,1,1.34,3.19A4.51,4.51,0,0,1,26,110.09a4.73,4.73,0,0,1-3.36-1.32,4.24,4.24,0,0,1-1.32-3.09Zm11.23,6.12a8.67,8.67,0,0,0,0-12.42A9.45,9.45,0,0,0,26,96.91a9.45,9.45,0,0,0-6.55,2.47,8.67,8.67,0,0,0,0,12.42A9.45,9.45,0,0,0,26,114.27a9.45,9.45,0,0,0,6.55-2.47Z" transform="translate(0)" style="fill: #c05a46"/>
        <path d="M41.63,110.53V107.1h1.49a2.89,2.89,0,0,1,1.85.45,1.64,1.64,0,0,1,.49,1.24A1.69,1.69,0,0,1,45,110a2.68,2.68,0,0,1-1.92.57Zm6.85,1.87a5,5,0,0,0,1.37-3.53,5,5,0,0,0-1.27-3.44c-1.25-1.3-3.14-1.62-5.26-1.62H41.63V101H48.1V97.28H37.3V113.9h5.87c2,0,4-.2,5.31-1.5Z" transform="translate(0)" style="fill: #c05a46"/>
        <polygon points="61.45 100.94 61.45 97.28 52.01 97.28 52.01 113.9 61.45 113.9 61.45 110.23 56.31 110.23 56.31 107.37 61.17 107.37 61.17 103.71 56.31 103.71 56.31 100.94 61.45 100.94 61.45 100.94" style="fill: #c05a46"/>
        <path d="M74.27,110.56H68.4A5.81,5.81,0,0,0,69.84,108a13.78,13.78,0,0,0,.4-3.49v-3.91h4v9.94Zm6.33,7.07v-7.07h-2V97.28H66.05v6.83c0,2.36-.19,4.16-1.44,5.45a3.15,3.15,0,0,1-1.89,1v7.07H66.6V113.9H76.71v3.73Z" transform="translate(0)" style="fill: #c05a46"/>
        <path d="M88.56,107.82l1.82-5.38,1.87,5.38Zm-.49-10.54L81.69,113.9h4.56l1.12-2.79h6l1,2.79H99L92.77,97.28Z" transform="translate(0)" style="fill: #c05a46"/>
        <path d="M104.85,110a2.61,2.61,0,0,0-1.84-.8,2.52,2.52,0,0,0-1.82.77,2.54,2.54,0,0,0,0,3.64,2.52,2.52,0,0,0,1.82.77,2.57,2.57,0,0,0,1.82-.77,2.41,2.41,0,0,0,.74-1.82,2.35,2.35,0,0,0-.72-1.79Z" transform="translate(0)" style="fill: #c05a46"/>
        <polygon points="105.05 97.28 100.92 97.28 100.92 108.24 105.05 108.24 105.05 97.28 105.05 97.28" style="fill: #c05a46"/>
        <path d="M40.85,52.64c2.36-9.41,7.06-17.86,13-25.48l1.72,2,2-6.7-6.78,1.12,1.71,2c-9.2,5-30.63,17.58-37.3,48.45-1.12,5.15-2.11,13.36-2.11,13.36s16.75.19,25.87-.78c-.13-11.32-.9-23,1.84-34Z" transform="translate(0)" style="fill: #c05a46"/>
        <g style="clip-path: url(#clip-path)">
          <path d="M91,45c-3.62-16.22-24.26-15.69-33.86-7.09l-1.21-2.39-3.57,6,6.86.5L58,39.67c7.42-2.88,19.4-1.43,18.06,9.2S57.62,63.15,48.32,64.55V85.64C49.82,85.71,97.76,75.35,91,45Z" transform="translate(0)" style="fill: #c05a46"/>
          <path d="M83.87,17.9a34,34,0,0,0,4.44-8l1.85,1.85,1.48-6.85L85,6.55l1.87,1.87a36.54,36.54,0,0,1-10.71,4.07A73.56,73.56,0,0,1,62.94,14c-.32,1-3.86,12.89-5.08,16.94,10.53,0,21.4-6.66,26-13Z" transform="translate(0)" style="fill: #c05a46"/>
        </g>
        <path d="M52.74,18.23l-1,2.52,6.76-1.1L54.4,13.89l-1,2.53A50.69,50.69,0,0,0,36.52,8.64c-5.45-1.35-12.11-1-18.61.36V32.79C37.16,17.21,52.75,18.24,52.74,18.23Z" transform="translate(0)" style="fill: #c05a46"/>
      </g>
      <line x1="135.18" y1="6.87" x2="135.18" y2="47.97" style="fill: none;stroke: #ebebeb;stroke-miterlimit: 10;stroke-width: 7px"/>
      <line x1="135.18" y1="47.46" x2="135.18" y2="88.56" style="fill: none;stroke: #6a88c1;stroke-miterlimit: 10;stroke-width: 7px"/>
      <line x1="135.18" y1="88.46" x2="135.18" y2="129.56" style="fill: none;stroke: #eb5458;stroke-miterlimit: 10;stroke-width: 7px"/>
      <text transform="translate(319.06 36.74)" style="font-size: 18px;fill: #434343;font-family: Akrobat-Bold, Akrobat;font-weight: 700">ФЕДЕ<tspan x="38.63" y="0" style="letter-spacing: -0.04296875em">Р</tspan><tspan x="46.87" y="0" style="letter-spacing: 0.010959201388888888em">А</tspan><tspan x="55.64" y="0">ЛЬНОЕ ГОС</tspan><tspan x="131.2" y="0" style="letter-spacing: -0.05197482638888889em">У</tspan><tspan x="138.11" y="0">ДАР</tspan><tspan x="165.71" y="0" style="letter-spacing: -0.0009765625em">С</tspan><tspan x="174.54" y="0" style="letter-spacing: -0.004937065972222222em">Т</tspan><tspan x="182.14" y="0" style="letter-spacing: -0.009060329861111112em">В</tspan><tspan x="191.09" y="0" style="letter-spacing: 0.00005425347222222222em">ЕННОЕ БЮД</tspan><tspan x="273.15" y="0" style="letter-spacing: -0.003960503472222222em">Ж</tspan><tspan x="286.11" y="0">Е</tspan><tspan x="294.41" y="0" style="letter-spacing: -0.004991319444444444em">Т</tspan><tspan x="302" y="0">НОЕ УЧ</tspan><tspan x="350.4" y="0" style="letter-spacing: -0.014973958333333334em">Р</tspan><tspan x="359.15" y="0">ЕЖДЕНИЕ</tspan></text>
      <text transform="translate(318.06 83.24)" style="font-size: 46px;fill: #434343;font-family: Akrobat-ExtraBold, Akrobat;font-weight: 800">КАН<tspan x="71.3" y="0" style="letter-spacing: 0.014988111413043478em">А</tspan><tspan x="94.3" y="0">Л ИМЕНИ МОС</tspan><tspan x="349.55" y="0" style="letter-spacing: -0.006984544836956522em">К</tspan><tspan x="373.01" y="0" style="letter-spacing: -0.008003566576086956em">В</tspan><tspan x="396.24" y="0">Ы</tspan></text>
      <text transform="translate(319.06 112.24)" style="font-size: 33px;fill: #162345;font-family: MonotypeCorsiva, Monotype Corsiva">Во славу России, на благо людей</text>
      <g>
        <path d="M232.16.26a70.64,70.64,0,1,1-70.64,70.63A70.63,70.63,0,0,1,232.16.26Z" transform="translate(0)" style="fill: #fff;fill-rule: evenodd"/>
        <path d="M232.16,0A70.9,70.9,0,1,1,182,20.76,70.72,70.72,0,0,1,232.16,0Zm49.76,21.13a70.36,70.36,0,1,0,20.62,49.76,70.13,70.13,0,0,0-20.62-49.76Z" transform="translate(0)" style="fill: #162345"/>
        <path d="M232.16,2.41a68.49,68.49,0,1,1-68.49,68.48A68.49,68.49,0,0,1,232.16,2.41Z" transform="translate(0)" style="fill: #89a6cf;fill-rule: evenodd"/>
        <path d="M232.16,14.49a56.41,56.41,0,1,1-56.41,56.4,56.4,56.4,0,0,1,56.41-56.4Z" transform="translate(0)" style="fill: #fff;fill-rule: evenodd"/>
        <path d="M232.16,16.19a54.71,54.71,0,1,1-38.68,16,54.54,54.54,0,0,1,38.68-16Zm38.32,16.38a54.2,54.2,0,1,0,15.87,38.32,54.06,54.06,0,0,0-15.87-38.32Z" transform="translate(0)" style="fill: #162345"/>
        <path d="M172.7,53.7l-.12.43,2.65.75-.43,1.53-6.61-1.87.43-1.54,2.59.74.09-.32-2.16-2.23.54-1.93,2.42,2.94L176.34,51l-.55,2-3.09.77Zm5-9.16-.84,1.86,1,.91-.69,1.53L171.89,44l.35-.78h0l.35-.77,7.18.78-.69,1.53-1.38-.18Zm-1.81,1,.54-1.19-2.21-.3v0l1.68,1.46ZM184.32,36l-.85,1.34-2.33-1.49-1.38,2.14,2.33,1.49-.86,1.34-5.78-3.71.86-1.34,2.42,1.56,1.37-2.15-2.42-1.55.86-1.34L184.32,36Zm3.58-6.3-1.34,1.55.75,1.17-1.1,1.27-3.73-6.19.56-.65h0l.56-.65,6.66,2.8-1.1,1.27-1.27-.57Zm-2,.46.86-1-2-.91,0,0,1.19,1.87ZM192.64,18l4.25,5.4-1.25,1L192.15,20,190.81,21,192,22.45a5,5,0,0,1,1.3,2.72,2.32,2.32,0,0,1-1,1.9l-.15.11-.75-1,.14-.12a.79.79,0,0,0,.34-.92,7.67,7.67,0,0,0-1.13-1.74L188.8,21l3.84-3ZM206.8,9.92l1.46-.66,2.83,6.26-1.46.66-1.75-3.88h0l-.54,4.92-1.45.65L203,11.62l1.45-.65,1.76,3.87h0l.54-4.91Zm10.56,1.59h0l.43-5L219.87,6l1.55,6.7-1.56.35-1-4.31h0l-.48,4.66-1,.24-2.43-3.92h0l1,4.25-1.55.36-1.55-6.69,2-.47,2.58,4.34Zm11.22-2.58-2.42.18.13,1.71,2.9-.22.09,1.22-4.48.34-.52-6.85L228.77,5l.09,1.22-2.9.22.11,1.48,2.42-.19.09,1.23Zm9.64,3.13-1.59-.12.21-2.76L234.3,9l-.21,2.76-1.59-.12L233,4.78l1.59.12-.21,2.87,2.53.19.22-2.87,1.59.12-.52,6.85Zm8.9-5.45,1.56.36-1.55,6.69-1.55-.36.95-4.14h0l-3.41,3.58-1.56-.36,1.55-6.69,1.55.36-.95,4.14h0l3.41-3.58Zm14.25,10.5h0l3.74-3.4L267,14.78l-3.43,6-1.38-.79,2.21-3.84,0,0-3.52,3.09-.93-.54.89-4.52h0l-2.17,3.78-1.38-.8,3.42-5.95,1.82,1-1.07,4.94Zm11.26,6.81a2.92,2.92,0,1,1-4.59-3.6l.76-1a2.91,2.91,0,0,1,1.93-1.14,2.83,2.83,0,0,1,2.17.65,2.8,2.8,0,0,1,.49,4.1l-.76,1Zm-.48-2a2,2,0,0,0,.47-1.16,1.26,1.26,0,0,0-1.54-1.22,2,2,0,0,0-1,.74l-.77,1a2,2,0,0,0-.48,1.17,1.15,1.15,0,0,0,.49,1,1.12,1.12,0,0,0,1.06.23,2,2,0,0,0,1-.74l.77-1Zm6.47,8.63v0a2.21,2.21,0,0,1-1.75.75,2.83,2.83,0,0,1-1.77-1,2.65,2.65,0,0,1,.1-4l1-1a2.83,2.83,0,0,1,2-.87,2.61,2.61,0,0,1,1.92.88,3.1,3.1,0,0,1,1,1.89,2.18,2.18,0,0,1-.8,1.72h0l-1.07-1.12a1,1,0,0,0,.06-1.65.92.92,0,0,0-.88-.3,2.08,2.08,0,0,0-1,.59l-1,1a1.9,1.9,0,0,0-.62,1,1.05,1.05,0,0,0,.31,1,1,1,0,0,0,.74.38,1.37,1.37,0,0,0,.83-.46l1.07,1.12Zm3.77,4.17-.25-.36L279.89,36,279,34.7l5.6-4,.92,1.3-2.19,1.56.19.27,3.09-.29,1.16,1.63-3.8,0-1.69,4.08-1.19-1.67,1.33-2.88Zm1.28,7,6.11-3.13,1,2a3.63,3.63,0,0,1,.49,2,1.59,1.59,0,0,1-.94,1.28,1.63,1.63,0,0,1-.87.2,1.39,1.39,0,0,1-.84-.37,1.41,1.41,0,0,1-.07,1.06,1.68,1.68,0,0,1-.72.7,1.82,1.82,0,0,1-1.66.09,3.11,3.11,0,0,1-1.34-1.49l-1.19-2.33Zm3.35.08-1.53.78.46.91a1.2,1.2,0,0,0,.53.59.77.77,0,0,0,.67,0,.9.9,0,0,0,.49-.51,1.07,1.07,0,0,0-.13-.76l0,0-.47-.91Zm.94-.49.29.56a1.43,1.43,0,0,0,.57.68.7.7,0,0,0,.66,0,.74.74,0,0,0,.44-.54,1.41,1.41,0,0,0-.2-.84l-.3-.58-1.46.74Zm4.24,8.1.29.88a2.9,2.9,0,0,1,0,2.07,2.06,2.06,0,0,1-1.33,1.23,2.09,2.09,0,0,1-1.81-.17,2.91,2.91,0,0,1-1.25-1.65l-.8-2.39,6.5-2.2.52,1.51-2.14.72Zm-2.53,6.92-.51-1.5,6.51-2.21.51,1.51-6.51,2.2ZM291,49.84l-2,.69.3.87a1.06,1.06,0,0,0,.56.68,1.13,1.13,0,0,0,.83,0,1.08,1.08,0,0,0,.62-.53,1.11,1.11,0,0,0,0-.88l-.3-.87Z" transform="translate(0)" style="fill: #162345"/>
        <path d="M166.92,78.74l6.17-1.1.36,2a3.32,3.32,0,0,1-.1,1.87,1.46,1.46,0,0,1-1.16.87,1.51,1.51,0,0,1-.82-.07,1.19,1.19,0,0,1-.62-.54,1.31,1.31,0,0,1-.35.9,1.51,1.51,0,0,1-.81.42,1.62,1.62,0,0,1-1.47-.36,2.9,2.9,0,0,1-.78-1.65l-.42-2.36Zm2.91,1-1.55.28.17.92a1.07,1.07,0,0,0,.3.65.65.65,0,0,0,.59.13.8.8,0,0,0,.56-.31.94.94,0,0,0,.1-.7v0l-.16-.93Zm.95-.17.1.57a1.31,1.31,0,0,0,.32.74.62.62,0,0,0,.58.15.68.68,0,0,0,.53-.34,1.33,1.33,0,0,0,0-.79l-.1-.59-1.47.26Zm1.09,9.81a2.61,2.61,0,0,1-2-.19,2.55,2.55,0,0,1-1.24-1.63,2.58,2.58,0,0,1,.19-2.07,2.61,2.61,0,0,1,1.63-1.23l1.09-.31a2.55,2.55,0,0,1,3.28,1.84,2.54,2.54,0,0,1-.2,2A2.58,2.58,0,0,1,173,89l-1.08.31Zm.69-1.71a1.83,1.83,0,0,0,1-.6,1.06,1.06,0,0,0,.17-1,1.09,1.09,0,0,0-.66-.75,1.87,1.87,0,0,0-1.15,0l-1.09.31a1.86,1.86,0,0,0-1,.61,1,1,0,0,0-.17,1,1.07,1.07,0,0,0,.66.74,1.81,1.81,0,0,0,1.15,0l1.09-.31Zm2.73,11.61,0,0a2.05,2.05,0,0,1-1.73.12A2.65,2.65,0,0,1,172.31,98a2.49,2.49,0,0,1-.12-2,2.53,2.53,0,0,1,1.41-1.41l1.19-.54a2.63,2.63,0,0,1,2-.15,2.4,2.4,0,0,1,1.39,1.34,2.8,2.8,0,0,1,.25,1.91,2,2,0,0,1-1.21,1.24h0l-.58-1.29a.91.91,0,0,0,.55-1.4.87.87,0,0,0-.67-.52,1.89,1.89,0,0,0-1.07.19l-1.19.54a1.85,1.85,0,0,0-.85.7,1,1,0,0,0,0,.92.9.9,0,0,0,.53.55,1.23,1.23,0,0,0,.85-.14l.58,1.29Zm6.83,3.67L176.69,106l-.73-1.26,4.46-2.56-.77-1.35-1.45.84a4.51,4.51,0,0,1-2.62.81,2.08,2.08,0,0,1-1.58-1.16l-.09-.14,1-.56.08.15a.71.71,0,0,0,.79.42,6.57,6.57,0,0,0,1.72-.79L179.9,99l2.22,3.87Zm-1.51,6.59L179.53,108l-1.2.41-.89-1.24,6.29-2,.46.64h0l.45.63-3.92,5.3-.89-1.25.78-1Zm0-1.89.69,1,1.25-1.61,0,0-1.92.66Zm.89,5,4.74-4.1,1.34,1.55a3.28,3.28,0,0,1,.87,1.65,1.47,1.47,0,0,1-.55,1.34,1.43,1.43,0,0,1-.74.36,1.26,1.26,0,0,1-.81-.14,1.27,1.27,0,0,1,.16,1,1.47,1.47,0,0,1-.48.78,1.65,1.65,0,0,1-1.45.44,2.87,2.87,0,0,1-1.51-1l-1.57-1.8Zm3-.66-1.19,1,.61.71a1.18,1.18,0,0,0,.6.41.7.7,0,0,0,.58-.2.82.82,0,0,0,.32-.55,1,1,0,0,0-.28-.65l0,0-.61-.71Zm.73-.63.37.43a1.41,1.41,0,0,0,.65.47.61.61,0,0,0,.58-.16.66.66,0,0,0,.28-.57,1.34,1.34,0,0,0-.36-.7l-.39-.45-1.13,1Zm4.7,5.05-.06.1,0,0,2.84-1.22,1.09,1-5.11,2a2.92,2.92,0,0,1-1.19.25,1.61,1.61,0,0,1-1-.5,2.11,2.11,0,0,1-.29-.34,4.56,4.56,0,0,1-.25-.44l.83-.64.18.29a1.2,1.2,0,0,0,.19.21.91.91,0,0,0,.48.27,1,1,0,0,0,.51-.13l.17-.09,1.44-4.81,1.12,1.08L190,116.4Zm4.71,5.69-1.24,1.75-1.19-.84,3.63-5.11,1.95,1.39a2.62,2.62,0,0,1,1.12,1.49,1.88,1.88,0,0,1-.34,1.59,1.83,1.83,0,0,1-1.39.84,2.57,2.57,0,0,1-1.77-.56l-.77-.55Zm.65-.91.77.54a.9.9,0,0,0,.74.21.93.93,0,0,0,.59-.4,1,1,0,0,0,.19-.7.94.94,0,0,0-.43-.64l-.77-.54-1.09,1.53Zm7.95,5.82a2.61,2.61,0,0,1-1.59,1.28,2.56,2.56,0,0,1-2-.3,2.55,2.55,0,0,1-1-3.64l.56-1a2.61,2.61,0,0,1,1.59-1.28,2.54,2.54,0,0,1,2,.31,2.55,2.55,0,0,1,1,3.63l-.56,1Zm-.69-1.71a1.84,1.84,0,0,0,.28-1.11,1,1,0,0,0-.56-.82,1.06,1.06,0,0,0-1-.08,1.85,1.85,0,0,0-.82.8l-.57,1a1.87,1.87,0,0,0-.27,1.12,1.06,1.06,0,0,0,.57.83,1,1,0,0,0,1,.07,1.82,1.82,0,0,0,.82-.81l.57-1Zm6.14,4.69v0a2,2,0,0,1-1.22,1.23,2.54,2.54,0,0,1-1.83-.22,2.42,2.42,0,0,1-1.28-3.4l.53-1.19A2.56,2.56,0,0,1,206.3,125a2.35,2.35,0,0,1,1.92.08,2.72,2.72,0,0,1,1.45,1.27,1.93,1.93,0,0,1-.08,1.73l0,0-1.29-.58a1.16,1.16,0,0,0,.12-.86,1.11,1.11,0,0,0-.63-.56.88.88,0,0,0-.85,0,1.93,1.93,0,0,0-.67.85l-.54,1.2a1.73,1.73,0,0,0-.17,1.08.94.94,0,0,0,.59.7.91.91,0,0,0,.76.07,1.28,1.28,0,0,0,.54-.67l1.29.58Zm5.84,2v0a2,2,0,0,1-1.09,1.35,2.63,2.63,0,0,1-1.85,0,2.44,2.44,0,0,1-1.61-3.26l.42-1.24a2.6,2.6,0,0,1,1.24-1.54,2.32,2.32,0,0,1,1.92-.1,2.75,2.75,0,0,1,1.57,1.12,2,2,0,0,1,.09,1.73l0,0-1.34-.46a1.13,1.13,0,0,0,0-.86,1.09,1.09,0,0,0-.69-.49.82.82,0,0,0-.83.13,1.83,1.83,0,0,0-.59.91l-.42,1.24a1.85,1.85,0,0,0-.07,1.1,1,1,0,0,0,.66.64.94.94,0,0,0,.76,0,1.29,1.29,0,0,0,.48-.72l1.34.45Zm5.85-2.88,1.42.32-1.41,6.11-1.42-.33.88-3.78h0l-3.1,3.27-1.42-.33,1.41-6.1,1.41.32-.87,3.78h0l3.1-3.26Zm6.19.91,1.44.18-.79,6.22-1.44-.18.49-3.85h0l-2.77,3.56-1.44-.18.79-6.21,1.44.18-.49,3.85h0l2.76-3.56Zm3.9,6.5-.74,1.35-1,0,.34-1.4,0-1.13,1.4,0,0,1.17Zm11.35-.71-1.43.19-.32-2.51-2.3.3.31,2.5-1.44.18-.79-6.21,1.44-.19.34,2.61,2.3-.3-.33-2.6,1.43-.18.79,6.21Zm4.74-2.14-1.81.42-.08,1.27-1.49.34.58-6.56.76-.18h0l.76-.17,3.4,5.64-1.49.34-.63-1.1Zm-1.74-.75,1.16-.26-1-1.77h0l-.13,2Zm11.23-6.44-2.55,1,.34.88.79-.31a2.59,2.59,0,0,1,1.88-.11,2,2,0,0,1,1.11,2.81,2.66,2.66,0,0,1-1.45,1.21l-2.14.84-2.3-5.83,3.91-1.54.41,1Zm-1.8,2.93.73,1.83.78-.31a1,1,0,0,0,.59-.55.93.93,0,0,0,0-.75.92.92,0,0,0-.5-.54,1,1,0,0,0-.8,0l-.79.31Zm7.36-6.92,2.86,5.58-1.29.66-2.35-4.58-1.38.71.76,1.48a4.48,4.48,0,0,1,.69,2.66,2.11,2.11,0,0,1-1.23,1.53l-.15.07-.51-1,.15-.08a.73.73,0,0,0,.46-.77,6.71,6.71,0,0,0-.7-1.75l-1.28-2.48,4-2Zm6.52,1.83-1.57,1,.35,1.22-1.29.82L264,121l.66-.42h0l.66-.42,5.1,4.17-1.29.83-1-.83Zm-1.89-.12,1-.64-1.54-1.32h0l.56,2Zm5.2-7.29-2.16,1.7,3.18,4-1.15.9-3.87-4.93,3.3-2.6.7.88Zm6.07-2.17a2.62,2.62,0,0,1,.78,1.89,2.55,2.55,0,0,1-.87,1.86,2.58,2.58,0,0,1-1.91.79,2.61,2.61,0,0,1-1.86-.87l-.77-.82a2.71,2.71,0,0,1,2-4.54,2.67,2.67,0,0,1,1.85.87l.78.82Zm-1.84.18a1.74,1.74,0,0,0-1-.58,1,1,0,0,0-.94.3,1.07,1.07,0,0,0-.36.93,1.89,1.89,0,0,0,.54,1l.78.82a1.92,1.92,0,0,0,1,.59,1.06,1.06,0,0,0,.95-.32,1,1,0,0,0,.35-.92,1.89,1.89,0,0,0-.54-1l-.79-.82Zm5.58-10.69,5.1,3.64-.84,1.18-4.19-3-.9,1.26,1.36,1a4.52,4.52,0,0,1,1.84,2,2.11,2.11,0,0,1-.39,1.92l-.1.14-.91-.65.1-.14a.73.73,0,0,0,.05-.89,6.68,6.68,0,0,0-1.43-1.24l-2.28-1.61,2.59-3.64Zm7.53-5.37a2.68,2.68,0,0,1,1.29,1.59,2.67,2.67,0,0,1-3.92,3l-.21.35,2.21,1.27-.73,1.26L282,103.23l.73-1.26,2.25,1.29.2-.35h0a2.65,2.65,0,0,1-1.29-1.59A2.84,2.84,0,0,1,285.8,98a2.65,2.65,0,0,1,2,.31l1,.56Zm-1.71.69a1.83,1.83,0,0,0-1.11-.27,1.15,1.15,0,0,0-.9,1.55,1.75,1.75,0,0,0,.8.82l1,.57a1.79,1.79,0,0,0,1.12.28,1.15,1.15,0,0,0,.89-1.55,1.84,1.84,0,0,0-.81-.83l-1-.57Zm8.28-5.91L294.84,95l-1.43-.56-1.23,3.11,1.43.57-.53,1.34-2.47-1,.11-.29c.11-.28,0-.55-.31-.81a8.58,8.58,0,0,0-1.77-1l-2.33-1.07,1.55-3.94,4.79,1.89.25-.64,2.47,1Zm-6.19,1.43a10,10,0,0,1,1.32.71,4.47,4.47,0,0,1,.87.76l.75-1.9-3.75-1.47-.51,1.3,1.32.6Zm3.59-7.26-.6,2.13,1.5.42.72-2.54,1.08.3-1.12,4-6-1.71,1.12-4,1.08.3-.73,2.55,1.3.37.6-2.12,1.08.3Zm-2.3-5.92.25-1.43,6.17,1.1L296.63,83l-3.82-.68v0l3.43,2.94L296,86.68l-6.17-1.1.26-1.43,3.82.68v0l-3.42-2.94Zm-1.85-.74h0a1.11,1.11,0,0,1,.85.56,1.81,1.81,0,0,1,.15,1.2,1.76,1.76,0,0,1-.56,1.08,1.08,1.08,0,0,1-1,.23h0l.19-1a.52.52,0,0,0,.35-.06.5.5,0,0,0,.19-.36.51.51,0,0,0-.06-.4.45.45,0,0,0-.3-.17l.18-1Zm6.5-3-.18,1.45-4-.51.18-1.45,4,.51Zm2.2.28-.18,1.45-1.21-.15.19-1.45,1.2.15Z" transform="translate(0)" style="fill: #162345"/>
        <path d="M244.82,37.83a35.42,35.42,0,1,1-45.75,20.38,35.42,35.42,0,0,1,45.75-20.38Zm-3.1,8.09a26.75,26.75,0,1,1-34.56,15.39,26.75,26.75,0,0,1,34.56-15.39Z" transform="translate(0)" style="fill: #162345;fill-rule: evenodd"/>
        <polygon points="229.66 42.15 235.07 42.15 235.07 44.76 229.66 44.76 229.66 42.15 229.66 42.15" style="fill: #000a30;fill-rule: evenodd"/>
        <path d="M230.29,19.82a3.5,3.5,0,0,1,4.21,0l.15.1.07.17a10.58,10.58,0,0,1,.64,4.13c0,.22,0,.44-.05.67-.19,2-.89,4-1,6.05a6.42,6.42,0,0,0,.53,3l.75,1.53v9l-.13.15a4.46,4.46,0,0,1-2,1.52l-.07,0h-2a4.72,4.72,0,0,1-2.19-1.56l-.12-.15v-9l.6-1.48a7.47,7.47,0,0,0,.54-3.06l0-.52c-.19-2.14-.91-4.18-.95-6.35a9.51,9.51,0,0,1,.13-1.6,6.8,6.8,0,0,1,.8-2.55l0,0,0,0Z" transform="translate(0)" style="fill: #fff;fill-rule: evenodd"/>
        <path d="M230.22,34.18a7.92,7.92,0,0,0,.58-3.29c-.09-2.31-.94-4.55-1-6.86a9,9,0,0,1,.8-3.78,3,3,0,0,1,3.59,0,9.89,9.89,0,0,1,.61,3.92c-.09,2.26-.93,4.45-1,6.72a6.86,6.86,0,0,0,.58,3.29l.7,1.42v8.7a4.12,4.12,0,0,1-1.76,1.35h-1.76a4.13,4.13,0,0,1-1.89-1.37V35.55l.56-1.37Z" transform="translate(0)" style="fill: #162345;fill-rule: evenodd"/>
        <path d="M230.21,121.91a6.91,6.91,0,0,1-.8-2.56,9.47,9.47,0,0,1-.13-1.59c0-.25,0-.5,0-.75.17-2.06.86-4.06.94-6.12a7.49,7.49,0,0,0-.54-3.07l-.6-1.47v-9l.12-.15a4.68,4.68,0,0,1,2.19-1.57h2l.07,0a4.53,4.53,0,0,1,2,1.52l.13.15v9l-.75,1.54a6.38,6.38,0,0,0-.53,3c0,.19,0,.38,0,.57.2,2.08.9,4.06,1,6.15a10.55,10.55,0,0,1-.64,4.13l-.07.17-.15.1a3.51,3.51,0,0,1-4.21,0l0,0,0,0Z" transform="translate(0)" style="fill: #fff;fill-rule: evenodd"/>
        <path d="M230.22,107.62a7.86,7.86,0,0,1,.58,3.29c-.09,2.3-.94,4.55-1,6.86a9,9,0,0,0,.8,3.77,3,3,0,0,0,3.59,0,9.84,9.84,0,0,0,.61-3.91c-.09-2.27-.93-4.46-1-6.72a6.84,6.84,0,0,1,.58-3.29l.7-1.43v-8.7a4.2,4.2,0,0,0-1.76-1.35h-1.76a4.09,4.09,0,0,0-1.89,1.38v8.72l.56,1.38Z" transform="translate(0)" style="fill: #162345;fill-rule: evenodd"/>
        <path d="M194.78,36.25a3.5,3.5,0,0,1,3-3l.18,0,.16.08a10.29,10.29,0,0,1,3.37,2.46c.16.17.3.34.44.51,1.3,1.58,2.21,3.47,3.59,5A6.4,6.4,0,0,0,208,43l1.62.55.09.09,6.16,6.15.14.14v.21a4.53,4.53,0,0,1-.35,2.5l0,.07-.05,0L214.32,54l0,0-.05,0a4.65,4.65,0,0,1-2.66.45l-.19,0L205,48.13l-.62-1.47a7.34,7.34,0,0,0-1.78-2.55l-.39-.34c-1.64-1.38-3.6-2.32-5.16-3.83a8.63,8.63,0,0,1-1-1.22,6.85,6.85,0,0,1-1.25-2.37v-.1Z" transform="translate(0)" style="fill: #fff;fill-rule: evenodd"/>
        <path d="M204.88,46.45A7.93,7.93,0,0,0,203,43.71c-1.7-1.57-3.88-2.55-5.54-4.16a8.92,8.92,0,0,1-2.11-3.23,3,3,0,0,1,2.54-2.54,9.86,9.86,0,0,1,3.2,2.34c1.53,1.67,2.49,3.81,4,5.48a6.88,6.88,0,0,0,2.74,1.91l1.5.51,6.15,6.16a4.1,4.1,0,0,1-.29,2.2l-1.24,1.24a4.18,4.18,0,0,1-2.31.37l-6.17-6.17-.58-1.37Z" transform="translate(0)" style="fill: #162345;fill-rule: evenodd"/>
        <path d="M266.91,108.49a7.19,7.19,0,0,1-2.37-1.24,9.31,9.31,0,0,1-1.22-1c-.17-.18-.34-.36-.5-.55-1.34-1.58-2.27-3.48-3.67-5a7.34,7.34,0,0,0-2.55-1.78l-1.46-.62-6.38-6.38,0-.19a4.62,4.62,0,0,1,.44-2.65l0-.06,0,0,1.24-1.24.06-.06.06,0a4.68,4.68,0,0,1,2.51-.35h.2l.14.15,6.15,6.15.09.09.55,1.62A6.26,6.26,0,0,0,262,97.78l.43.38c1.61,1.32,3.51,2.22,5.05,3.65a10.32,10.32,0,0,1,2.47,3.37l.07.17,0,.18a3.5,3.5,0,0,1-3,3h-.11Z" transform="translate(0)" style="fill: #fff;fill-rule: evenodd"/>
        <path d="M256.81,98.38a8,8,0,0,1,2.74,1.91c1.57,1.7,2.55,3.88,4.16,5.55a9.2,9.2,0,0,0,3.23,2.11,3,3,0,0,0,2.54-2.54,9.62,9.62,0,0,0-2.34-3.2c-1.66-1.54-3.81-2.5-5.48-4a6.81,6.81,0,0,1-1.91-2.74l-.51-1.5-6.15-6.15a4.22,4.22,0,0,0-2.21.29l-1.24,1.24a4.1,4.1,0,0,0-.36,2.31l6.16,6.17,1.37.58Z" transform="translate(0)" style="fill: #162345;fill-rule: evenodd"/>
        <path d="M181.33,73a3.53,3.53,0,0,1,0-4.21l.1-.15.18-.07a10.53,10.53,0,0,1,4.12-.64l.67,0c2,.2,4,.89,6.06,1a6.26,6.26,0,0,0,3-.53l1.54-.75h9l.15.13a4.58,4.58,0,0,1,1.52,2l0,.07v2A4.63,4.63,0,0,1,206.13,74l-.15.12h-9l-1.47-.6a7.49,7.49,0,0,0-3.07-.54l-.51,0c-2.14.19-4.19.91-6.36,1a9.47,9.47,0,0,1-1.59-.13,6.91,6.91,0,0,1-2.56-.8l0,0,0,0Z" transform="translate(0)" style="fill: #fff;fill-rule: evenodd"/>
        <path d="M195.69,73.06a8.06,8.06,0,0,0-3.29-.58c-2.31.09-4.55.94-6.86,1a9.31,9.31,0,0,1-3.78-.79,3,3,0,0,1,0-3.6,9.72,9.72,0,0,1,3.92-.6c2.27.09,4.46.92,6.72,1a6.86,6.86,0,0,0,3.29-.58l1.42-.7h8.7A4.14,4.14,0,0,1,207.17,70v1.76a4.24,4.24,0,0,1-1.38,1.89h-8.72l-1.38-.56Z" transform="translate(0)" style="fill: #162345;fill-rule: evenodd"/>
        <path d="M283.42,73.07a6.91,6.91,0,0,1-2.56.8,9.31,9.31,0,0,1-1.59.13c-.25,0-.49,0-.74,0-2.06-.17-4.07-.86-6.13-.94a7.44,7.44,0,0,0-3.06.54l-1.48.6h-9l-.15-.12a4.61,4.61,0,0,1-1.56-2.19l0-.06v-1.9l0-.07a4.66,4.66,0,0,1,1.52-2l.16-.13h9l1.53.75a6.28,6.28,0,0,0,3,.53l.57,0c2.07-.2,4-.9,6.15-1a10.58,10.58,0,0,1,4.13.64l.17.07.1.15a3.51,3.51,0,0,1,0,4.21l0,0,0,0Z" transform="translate(0)" style="fill: #fff;fill-rule: evenodd"/>
        <path d="M269.13,73.06a8.06,8.06,0,0,1,3.29-.58c2.31.09,4.55.94,6.86,1a9.23,9.23,0,0,0,3.78-.79,3,3,0,0,0,0-3.6,9.72,9.72,0,0,0-3.92-.6c-2.26.09-4.46.92-6.72,1a6.86,6.86,0,0,1-3.29-.58l-1.42-.7H259A4.12,4.12,0,0,0,257.66,70v1.76A4.13,4.13,0,0,0,259,73.62h8.73l1.37-.56Z" transform="translate(0)" style="fill: #162345;fill-rule: evenodd"/>
        <path d="M197.76,108.5a3.5,3.5,0,0,1-3-3l0-.18.07-.17a10.32,10.32,0,0,1,2.47-3.37l.5-.44c1.58-1.3,3.47-2.21,5-3.59a6.23,6.23,0,0,0,1.76-2.51l.56-1.62.09-.09,6.15-6.15.14-.15h.2a4.68,4.68,0,0,1,2.51.35l.06,0,.06,0L215.52,89l0,0,0,0a4.66,4.66,0,0,1,.44,2.66l0,.19-6.38,6.38-1.47.62a7.53,7.53,0,0,0-2.55,1.78l-.34.39c-1.38,1.64-2.32,3.6-3.82,5.16a9.12,9.12,0,0,1-1.22,1,7,7,0,0,1-2.37,1.25h-.11Z" transform="translate(0)" style="fill: #fff;fill-rule: evenodd"/>
        <path d="M208,98.4a7.89,7.89,0,0,0-2.73,1.91c-1.57,1.7-2.56,3.88-4.16,5.54a9.2,9.2,0,0,1-3.23,2.12,3,3,0,0,1-2.55-2.54,9.78,9.78,0,0,1,2.35-3.2c1.66-1.54,3.8-2.5,5.47-4A6.74,6.74,0,0,0,205,95.46l.51-1.5,6.15-6.15a4.08,4.08,0,0,1,2.2.29l1.25,1.24a4.1,4.1,0,0,1,.36,2.31l-6.17,6.17L208,98.4Z" transform="translate(0)" style="fill: #162345;fill-rule: evenodd"/>
        <path d="M270,36.37a6.66,6.66,0,0,1-1.24,2.37,8.63,8.63,0,0,1-1,1.22c-.18.17-.36.34-.55.5-1.58,1.34-3.49,2.27-5,3.67a7.51,7.51,0,0,0-1.79,2.55l-.61,1.47-6.38,6.37-.19,0a4.65,4.65,0,0,1-2.66-.44l-.05,0,0,0-1.25-1.25-.05-.05,0-.07a4.59,4.59,0,0,1-.36-2.51l0-.2.14-.14,6.15-6.15.09-.09,1.62-.55a6.36,6.36,0,0,0,2.52-1.77c.13-.14.25-.28.37-.43,1.32-1.61,2.23-3.5,3.65-5a10.5,10.5,0,0,1,3.37-2.46l.17-.08.18,0a3.5,3.5,0,0,1,3,3v.11Z" transform="translate(0)" style="fill: #fff;fill-rule: evenodd"/>
        <path d="M259.89,46.47a8.09,8.09,0,0,1,1.92-2.74c1.69-1.57,3.88-2.55,5.54-4.16a8.92,8.92,0,0,0,2.11-3.23,3,3,0,0,0-2.54-2.54,9.72,9.72,0,0,0-3.2,2.34c-1.54,1.66-2.49,3.81-4,5.48A7,7,0,0,1,257,43.53l-1.5.51-6.15,6.15a4.12,4.12,0,0,0,.28,2.21l1.25,1.24a4.1,4.1,0,0,0,2.31.36l6.17-6.16.57-1.37Z" transform="translate(0)" style="fill: #162345;fill-rule: evenodd"/>
        <path d="M244.22,39.4a33.73,33.73,0,1,1-43.58,19.41A33.74,33.74,0,0,1,244.22,39.4ZM243,42.54A30.37,30.37,0,1,1,203.78,60,30.37,30.37,0,0,1,243,42.54Z" transform="translate(0)" style="fill: #162345;fill-rule: evenodd"/>
        <path d="M244.13,39.64h0a33.48,33.48,0,1,0-24,62.51h0a33.48,33.48,0,0,0,43.25-19.26h0a33.47,33.47,0,0,0-19.26-43.25Zm.18-.48a34,34,0,0,1,19.56,43.91h0A34,34,0,0,1,220,102.63h0a34,34,0,1,1,24.35-63.47Zm-1.38,3.61h0A30.14,30.14,0,0,0,204,60.1h0a30.12,30.12,0,1,0,56.24,21.59h0a30.11,30.11,0,0,0-17.32-38.91Zm.18-.47a30.63,30.63,0,0,1,17.62,39.57h0a30.63,30.63,0,1,1-57.19-22h0A30.61,30.61,0,0,1,243.11,42.3Z" transform="translate(0)" style="fill: #fff"/>
        <path d="M224.39,38.91a.87.87,0,1,1-1,.77.88.88,0,0,1,1-.77Z" transform="translate(0)" style="fill: #fff;fill-rule: evenodd"/>
        <path d="M240.44,101.06a.88.88,0,0,1,.78,1,.86.86,0,0,1-1,.77.87.87,0,0,1,.18-1.74Z" transform="translate(0)" style="fill: #fff;fill-rule: evenodd"/>
        <path d="M216.4,42.05a.88.88,0,1,1-.73,1,.87.87,0,0,1,.73-1Z" transform="translate(0)" style="fill: #fff;fill-rule: evenodd"/>
        <path d="M248,97.93a.88.88,0,0,1,1,.73.88.88,0,1,1-1-.73Z" transform="translate(0)" style="fill: #fff;fill-rule: evenodd"/>
        <path d="M209.48,47.15a.89.89,0,0,1,1.16.45.88.88,0,0,1-1.6.71.88.88,0,0,1,.44-1.16Z" transform="translate(0)" style="fill: #fff;fill-rule: evenodd"/>
        <path d="M254.46,93a.88.88,0,1,1-.44,1.15.87.87,0,0,1,.44-1.15Z" transform="translate(0)" style="fill: #fff;fill-rule: evenodd"/>
        <path d="M204.13,53.87a.87.87,0,1,1,1.1,1.36.87.87,0,1,1-1.1-1.36Z" transform="translate(0)" style="fill: #fff;fill-rule: evenodd"/>
        <path d="M259.43,86.48a.87.87,0,0,1,1.23.13.87.87,0,1,1-1.23-.13Z" transform="translate(0)" style="fill: #fff;fill-rule: evenodd"/>
        <path d="M200.69,61.75a.88.88,0,1,1,.2,1.22.88.88,0,0,1-.2-1.22Z" transform="translate(0)" style="fill: #fff;fill-rule: evenodd"/>
        <path d="M262.55,78.93a.87.87,0,1,1,.19,1.22.87.87,0,0,1-.19-1.22Z" transform="translate(0)" style="fill: #fff;fill-rule: evenodd"/>
        <path d="M199.41,70.25a.88.88,0,1,1,.51,1.13.88.88,0,0,1-.51-1.13Z" transform="translate(0)" style="fill: #fff;fill-rule: evenodd"/>
        <path d="M263.61,70.83a.87.87,0,1,1,.5,1.13.88.88,0,0,1-.5-1.13Z" transform="translate(0)" style="fill: #fff;fill-rule: evenodd"/>
        <path d="M200.38,78.79a.87.87,0,1,1,.78,1,.88.88,0,0,1-.78-1Z" transform="translate(0)" style="fill: #fff;fill-rule: evenodd"/>
        <path d="M262.54,62.74a.87.87,0,1,1,.78,1,.88.88,0,0,1-.78-1Z" transform="translate(0)" style="fill: #fff;fill-rule: evenodd"/>
        <path d="M203.52,86.79a.88.88,0,0,1,1.73-.28.89.89,0,0,1-.73,1,.88.88,0,0,1-1-.73Z" transform="translate(0)" style="fill: #fff;fill-rule: evenodd"/>
        <path d="M259.41,55.2a.87.87,0,0,1,.72-1,.87.87,0,1,1,.28,1.72.87.87,0,0,1-1-.72Z" transform="translate(0)" style="fill: #fff;fill-rule: evenodd"/>
        <path d="M208.63,93.7a.87.87,0,1,1,1.15.44.86.86,0,0,1-1.15-.44Z" transform="translate(0)" style="fill: #fff;fill-rule: evenodd"/>
        <path d="M254.43,48.72A.88.88,0,0,1,256,48a.88.88,0,0,1-.44,1.16.89.89,0,0,1-1.16-.45Z" transform="translate(0)" style="fill: #fff;fill-rule: evenodd"/>
        <path d="M215.35,99.06a.87.87,0,1,1,1.36-1.1.87.87,0,0,1-1.36,1.1Z" transform="translate(0)" style="fill: #fff;fill-rule: evenodd"/>
        <path d="M248,43.76a.88.88,0,1,1,1.36-1.11A.88.88,0,0,1,248,43.76Z" transform="translate(0)" style="fill: #fff;fill-rule: evenodd"/>
        <path d="M223.22,102.49a.88.88,0,0,1-.19-1.22.87.87,0,0,1,1.22-.19.87.87,0,1,1-1,1.41Z" transform="translate(0)" style="fill: #fff;fill-rule: evenodd"/>
        <path d="M240.4,40.64a.89.89,0,0,1-.19-1.23.88.88,0,0,1,1.42,1,.89.89,0,0,1-1.23.2Z" transform="translate(0)" style="fill: #fff;fill-rule: evenodd"/>
        <path d="M232.93,37.94a.87.87,0,1,1-1.13.5.87.87,0,0,1,1.13-.5Z" transform="translate(0)" style="fill: #fff;fill-rule: evenodd"/>
        <path d="M232.35,102.14a.87.87,0,1,1-1.13.5.87.87,0,0,1,1.13-.5Z" transform="translate(0)" style="fill: #fff;fill-rule: evenodd"/>
        <path d="M252.34,65.14c.08.39.52.82.73,1.34A3.36,3.36,0,0,1,252,70.16a3.71,3.71,0,0,0-.56.49c1.45,0,3.17-1.55,3.63-3.06a3.4,3.4,0,0,0-.44-2.77c-.28-.41-.49-.52-1.1-.28a3.42,3.42,0,0,0-1.19.6Z" transform="translate(0)" style="fill: #162345;fill-rule: evenodd"/>
        <path d="M233.45,89.24c3.24,1,6.23,1.91,9.72.62a10.57,10.57,0,0,0,3.57-2.25,12.35,12.35,0,0,0,2.42-3.52,5.75,5.75,0,0,0-.66.77,10.89,10.89,0,0,1-6.68,3.57c-6.43.82-11.4-4.51-19.82-2.06a17,17,0,0,0-4,1.79l-.07,0a16.8,16.8,0,0,1,2.72-.85,16.23,16.23,0,0,1,4.24-.28c2.67.19,6,1.35,8.58,2.17Z" transform="translate(0)" style="fill: #162345;fill-rule: evenodd"/>
        <path d="M229.44,91.23c3.17,1.22,6.27,2.85,10.18,1.6,1-.33,2.41-1,2.76-1.69-1.44.2-1.38.56-3.79.42a17.85,17.85,0,0,1-3.87-.7c-5-1.39-8.59-3.85-14.76-2.53a16.12,16.12,0,0,0-2.46.8c.4-.09.78-.16,1.11-.2,4.59-.54,7.64.81,10.83,2.3Z" transform="translate(0)" style="fill: #162345;fill-rule: evenodd"/>
        <path d="M222.24,54.87v3.06a21,21,0,0,0-4.09-1.52c-.93-.12-.71.38-1.1.79-1,1.07-5.25-.47-5.68-1.27,1.09.32,3.92,1.3,4.81.49.06-.79-.58-.69-.42-1.78.17-.32.6-.5,1.5-.56,2.17-.14,3.5.79,5,1.3v-.51Zm0,1a1.94,1.94,0,0,0-1,.36c-.1.79.63,1.14,1,1.47V55.82Z" transform="translate(0)" style="fill: #162345;fill-rule: evenodd"/>
        <path d="M215.39,65.15l0,1.91v.18h0l0,2.24,0,2.07-.37-2a.83.83,0,0,0-.08-.28.52.52,0,0,0-.12-.19,1.87,1.87,0,0,0-2.22-.35,3.65,3.65,0,0,1-1.33.23,4.29,4.29,0,0,1-1.1-.18,1.32,1.32,0,0,1-.82-.63l-.09-.16.17-.07a3.25,3.25,0,0,1,.65-.15,2.62,2.62,0,0,0,.61-.13,1.33,1.33,0,0,0,.44-.28,1.57,1.57,0,0,0,.21-.28l-.44-.27a4.61,4.61,0,0,1-.57-.36,3.34,3.34,0,0,1-.52-.49,1.51,1.51,0,0,1-.36-.7l0-.24.24,0a6.48,6.48,0,0,1,.77.22,2,2,0,0,0,1.86-.07,3.84,3.84,0,0,1,1.35-.49,3,3,0,0,1,1.51.3h0l.14,0v.14Zm-.3,3.59v-.09l-.05,0a2,2,0,0,1-.7-.94h0c0-.28.13-.52.69-.63L215,67c-.48-.22-1-.44-.75-1.12v0l0,0c.27-.35.45-.34.83-.3v-.26a2.7,2.7,0,0,0-1.31-.26,3.47,3.47,0,0,0-1.22.45,2.28,2.28,0,0,1-2.13.09l-.43-.13a1.31,1.31,0,0,0,.19.27,3.16,3.16,0,0,0,.47.44,4.24,4.24,0,0,0,.54.34,2.88,2.88,0,0,1,.59.4l.1.08-.06.12a2.08,2.08,0,0,1-.34.48,1.68,1.68,0,0,1-.55.35,2.58,2.58,0,0,1-.69.16l-.36.06a1.29,1.29,0,0,0,.5.29,4.18,4.18,0,0,0,1,.16,3.33,3.33,0,0,0,1.21-.22,2.17,2.17,0,0,1,2.51.39Zm0-1.36c-.3.06-.4.15-.39.25h0a1.11,1.11,0,0,0,.39.53v-.78Zm0-1.5c-.24,0-.36,0-.51.14-.11.37.21.52.54.67l0-.81Z" transform="translate(0)" style="fill: #162345"/>
        <path d="M235.26,82.5c.92-.55,1.44.92.65,1.24a.74.74,0,0,1-.95-.32.61.61,0,0,1,.3-.92Zm-8.68-4.43h-.81l-.21-.54h.83l.19.55Zm-1.36,0h-.86l-.2-.53H225l.2.54ZM224,77l-.2-.5h.86l.19.5Zm-.38-1,.57-.72.28.72Zm1.12-.73,1.18.73H225l-.27-.73Zm1.35,1.24.17.5h-.86l-.19-.5Zm-7.24-1.74h-.9l-.08-.54h.91l.07.55Zm-1.42,0h-.78l-.1-.53h.81l.07.53Zm-1-1-.09-.51h.86l.07.51Zm-.18-1,.77-.83.11.83Zm1.28-.84,1,.84h-.89l-.12-.84Zm1.11,1.35.06.51h-.92l-.06-.51Zm3.27,1.57h-.83l-.06-.54h.85l0,.55Zm-1.34,0h-.87l-.06-.53h.87l.06.53Zm-1-1-.06-.51h.88l.06.51Zm-.1-1,.78-.73.08.73Zm1.3-.74,1,.74h-.92l-.08-.74Zm1,1.25,0,.51H221l-.06-.51Zm13-18.8a10.59,10.59,0,0,0-1.89-.66,1.12,1.12,0,0,0-.7,0,4.51,4.51,0,0,0-.52.29,4.53,4.53,0,0,1-.95.43l-.32.1a4.4,4.4,0,0,1-2.25.13,7.72,7.72,0,0,1-3-1.6l-1-.83,1.32.09a5.77,5.77,0,0,1,1.74.43l.45.18.15,0a4.56,4.56,0,0,0,1.09,0,7.88,7.88,0,0,1-1.34-.52,6.17,6.17,0,0,1-1.71-1.12l-.5-.58.74.16.86.19c.72.17,1.57.37,2,.41,1,.09,1.07-.1,1.18-.33a1.25,1.25,0,0,1,.42-.58,3.17,3.17,0,0,1,2.13-.52,5.39,5.39,0,0,1,2.26.63,6.91,6.91,0,0,0,.17-.84h.42a1.45,1.45,0,0,1,.13.68v3.66h0v.26a18,18,0,0,1,6.27,1.9A17,17,0,0,1,244.39,58l2.2,1.94c3.53,3.83,4.63,6.76,3.59,12.15a2.84,2.84,0,0,0,1.24-.8c0-1.12-.17-6.86.13-7.32.44,0,.46.19.45.5,0,.14,0-1.13,0,3v4.23c-.08.25-5.91,3.53-6.88,4.13a22.6,22.6,0,0,1-2.26,1.3A2.49,2.49,0,0,0,245.3,79l.16,0-.08-.21,0-.35c-.52.19-.9.4-1.34-.13a.92.92,0,0,1,.08-1.24c.74-.74,2.77.07,2.4-1-.61,0,0,0-.45.18-.67.22-.34-1.13.69-.52.61.37.23.81.07,1.2.44,0,.59-.17.92-.27a2.67,2.67,0,0,1,.74-2.3.94.94,0,0,1,1.54.17c.24.22.1-.06.32.31-.07.52-.34.42-.69.65.16.26.14.53.25.68.76-.24.51-.79,1.41-.75.24.18.15.19.22.25.28.29,1.18.24.53,1.44l-.84,0c-.23.27-.37.62-.59.93a8.09,8.09,0,0,1-4.16,3.08c-1,.32-.58.2-1.35,1.47a11.46,11.46,0,0,1-2.67,3.07c-2.1,1.7-1.86,1.55-4.05,1.18-3.26-.54-6.12-1.68-9.26-2.2a16.8,16.8,0,0,0-5.25-.06c-2.77.37-2.66.69-4.53,1.22-.57-.77,0-1.72-.39-2.83-.23-.74-.77-1.54-.93-2.31,1.07.21,2,.47,3.15.65a66.84,66.84,0,0,0,17.59-.18c1.08-.14,2.19-.3,3.27-.47.63-.1,3-.27,2.59-1-.38-.3-2.09.15-2.67.24-2.67.39-5.45.71-8.14.89a63.87,63.87,0,0,1-11.57-.08c-.89-.1-1.75-.23-2.61-.4-.7-.14-1.92-.26-2.21-.8a32.72,32.72,0,0,1-1.62-4.4,19.86,19.86,0,0,1-.6-6.21l0,0a.34.34,0,0,1-.47-.1,8.74,8.74,0,0,0-1-1.29,4.1,4.1,0,0,0-.58-.5,2.87,2.87,0,0,1-3.26,1.4.35.35,0,0,1-.26-.41.35.35,0,0,1,.41-.26,2.25,2.25,0,0,0,2.51-1.07,5.3,5.3,0,0,0-1-.26,3.79,3.79,0,0,1-1.73-.7.35.35,0,0,1-.07-.48.36.36,0,0,1,.48-.06,3.15,3.15,0,0,0,1.45.57,4.76,4.76,0,0,1,1.23.37c.6-.86,1.15-1.55,2.3-1.1,0-.19.12-.31.27-.32s.25,0,.29.08l-.05,4.65a3.9,3.9,0,0,0,0,1.08v.19h0a2.36,2.36,0,0,0,0,.28,53.8,53.8,0,0,0,6.35,0c.13-.76,0-5.61,0-7a1.12,1.12,0,0,0-.29-1A18.34,18.34,0,0,0,218,58.77c-.24-.18-1.23-.68-1.33-1,1.9.05,3.9,1.08,5.54,1.51l.05-5a.41.41,0,0,1,.58,0v5.21h0v.11a16.57,16.57,0,0,1,7.06,5c1.89,2.45,3.28,5.81,2.58,9.09-.38,1.77-2.1,4.66-3.25,4.82-.18-.25-.5-1.88-.71-2.39a5.2,5.2,0,0,0-3-3.17,4.53,4.53,0,0,0-2.54-.28c-.3.22-.05,1.63,0,1.54s0,.05,0,.06c.54.37,2.5,0,3.31.16.45.44,1.57,4.52,2,5.5,2.31,0,4.51-.23,6.72-.26V77.15c-.7.22-3.07,1.47-3.69,1.34-.17-.45.56-1,.95-1.45,2.52-2.62,3.85-7.45,2.05-11-.26-.52-.83-1.08-.86-1.62.43-.53.78-.62,1.13-1.53a4,4,0,0,0,.22-2.13,2.68,2.68,0,0,0-1.11-1.42c-1.11-.75-1.42-.48-1.5-1.06l2.82-.39c0-.53,0-2,0-3.47l-.14-.05Zm-4.94-1.75c.52-.16.36-.59.8-.93,1-.81,3-.49,4.1.13,0-.19,0-.38.07-.56h0a4.62,4.62,0,0,0-2.21-.67,2.74,2.74,0,0,0-1.79.41.92.92,0,0,0-.26.39c-.19.42-.35.76-1.7.63-.37,0-1-.19-1.68-.34a6.49,6.49,0,0,0,.59.31,6,6,0,0,0,1.77.59l.33,0ZM215.2,65.76a.2.2,0,0,1-.11,0c-.72-.32-1.13.16-1.56.77a5.7,5.7,0,0,1,.68.59,8.83,8.83,0,0,1,1,1.31c0-.56,0-1.12,0-1.69,0-.29,0-.63,0-.95Zm23.68,16.32a.71.71,0,0,1,.53,1.32.71.71,0,1,1-.53-1.32Zm3.34-.42c.85-.57,1.47.7.76,1.17a.7.7,0,1,1-.76-1.17ZM245,78.15c-1.36.33-.6-1.46.67-1l-.22.25c-.43.41-.17.33-.45.76ZM250.45,77a6.24,6.24,0,0,1-2.06,1.89l-.27-.38c-.39,0-.52.12-.73,0,.19-.68,1.56.25,2.06-1.2.72,0,.59,0,1-.29Zm0,0c.05-.09.08-.18.13-.26a.59.59,0,0,1,.15-.16,1.17,1.17,0,0,1-.11.28c-.11.16-.07.07-.17.14Zm.38-.58-.1.16c0-.33,0-.11.1-.16Zm0,0c.06-.21-.05-.08.11-.2,0,.4,0,.11-.11.2Zm-28-11.84a9.6,9.6,0,0,1,1.65,3.79c.28,1.68-.45,3.64-1.67,3.76l0-7.55ZM238.48,77.1c-1.24.29-1.06.13-1.58,1.15s-.56,1.28-1.29,1.38V76.85a13.44,13.44,0,0,0,4-2.42,6.41,6.41,0,0,0,.81-8.35c-1-1.27-2.2-1.49-2.68-2,.28-.94.83-1.44.82-2.73a4.52,4.52,0,0,0-1.88-3.6l-1.12.1V56a19.89,19.89,0,0,1,3.89,3.29c.35.43.72.85,1.05,1.3,5,6.66,1.57,10.6,1.76,11.58.58,0,1.64-1.29,3.82-1.32a4.72,4.72,0,0,1,2.18.49,7,7,0,0,1,.84.48l.54.42c.14.16,0-.06.14.19l-3.51,1.94c-1.13.67-2.3,1.29-3.42,1.94-.77.44-.36.13-1.09.13l-3.33.71Z" transform="translate(0)" style="fill: #162345;fill-rule: evenodd"/>
        <path d="M235,54c-3.27-1.35-2.57-.52-4.35.07-1.34.45-2.69.68-5.18-1.3a16.09,16.09,0,0,1,2.69.77,4,4,0,0,0,1.65.05c.92-.32.65-.54,1.15-.93,1.05-.81,3.09-.42,4.06.24,0,0,0,.44,0,1.1Z" transform="translate(0)" style="fill: #5f6c99;fill-rule: evenodd"/>
        <path d="M292,70.49l0,0,0,0Zm1.84-1.18.61-.81,0,3.83c0-.16-.45-2.32-.51-2.63a3.39,3.39,0,0,1-.08-.39Zm1.57-.2,1.55,1.55c-.14,0-1.4-1-1.55-1,0-.08.05-.19.07-.28s0-.14-.07-.26Zm0,0,0,0,0,0Zm0,0,0,0,0,0ZM292,70.49c0-.09.63-1,.74-1.13a2.82,2.82,0,0,0,.24-.4c.57.14.33.06.54,0L292,70.49Zm1.55-1.55,0,0,0,0Zm0,0,0,0,0,0Zm1.38-.74.9,0h2.83v0c-.17,0-2.23.44-2.57.5s-.32.1-.47,0-.64-.46-.69-.53Zm-4.65-.2c.16,0,2.31-.45,2.61-.51.53-.1.31-.16.86.26a4,4,0,0,1,.37.28l-3.84,0Zm5.23-.73,0,0,0,0Zm0,0,0,0,0,0Zm-1.84-.1,0,0,0,0Zm0,0,0,0,0,0Zm.94.59V63.88a.42.42,0,0,1,0,0l.2,1c.07.33.14.69.21,1l.1.52c.1.5.16.3-.25.86a3.76,3.76,0,0,1-.28.36Zm.93-.47,1.55-1.55a2.92,2.92,0,0,1-.25.4l-.76,1.15a1.62,1.62,0,0,0-.29-.06c-.18,0-.12,0-.25.06Zm1.57-1.57,0,0,0,0Zm-3.46,1.42-1.52-1.52c.1,0,1,.63,1.13.74a1.78,1.78,0,0,0,.39.24c-.13.57-.06.33,0,.54Zm-1.52-1.52,0,0,0,0Zm0,0,0,0,0,0Zm1.6.76-.31-.19c-.11-.07-.2-.14-.31-.2s-1.8-1.23-1.86-1.23a.14.14,0,0,0-.13.12c0,.06.76,1.16.81,1.23l.41.62c.07.11.38.55.41.63a3.69,3.69,0,0,0-.46.08l-1.39.29-.92.18-.68.13c-.18,0-.19,0-.19.16v0c0,.1.22.11.4.14l3.24.65c-.15.27-1.63,2.41-1.63,2.48a.15.15,0,0,0,.13.12s.54-.35.61-.39l1.24-.83.31-.2a1.22,1.22,0,0,1,.32-.2l.68,3.44c0,.18,0,.19.16.19h0c.1,0,.11-.22.14-.39.15-.72.35-1.63.46-2.32l.14-.68a1.72,1.72,0,0,0,0-.24,3.45,3.45,0,0,1,.32.2l1.86,1.23a.75.75,0,0,0,.35.19l.08-.1a3.74,3.74,0,0,0-.4-.64l-.41-.62-.41-.62a5.82,5.82,0,0,1-.4-.62l3.44-.69c.18,0,.19,0,.19-.15v0c0-.09-.09-.09-.17-.11l-.23,0-3.23-.64a7.09,7.09,0,0,1,.4-.63c.14-.22,1.18-1.7,1.22-1.87l-.1-.11a4.48,4.48,0,0,0-.64.4l-1.24.83-.31.2a1.32,1.32,0,0,1-.32.2,3.54,3.54,0,0,0-.08-.45c0-.17-.06-.3-.1-.47l-.5-2.52c0-.18,0-.2-.16-.2h0c-.08,0-.08.09-.1.17l-.68,3.47Z" transform="translate(0)" style="fill: #152443;fill-rule: evenodd"/>
        <path d="M167.24,70.49l0,0,0,0Zm1.84-1.18.62-.81,0,3.83c0-.16-.45-2.32-.51-2.63a3.39,3.39,0,0,1-.08-.39Zm1.58-.2,1.54,1.55c-.14,0-1.39-1-1.54-1a2.3,2.3,0,0,0,.06-.28c0-.17,0-.14-.06-.26Zm0,0,0,0,0,0Zm0,0,0,0,0,0Zm-3.39,1.4c0-.09.64-1,.74-1.13a2.92,2.92,0,0,0,.25-.4c.57.14.32.06.54,0l-1.53,1.53Zm1.55-1.55,0,0,0,0Zm0,0,0,0,0,0Zm1.38-.74.91,0h2.82v0c-.17,0-2.23.44-2.57.5s-.31.1-.46,0-.65-.46-.7-.53Zm-4.64-.2c.15,0,2.31-.45,2.61-.51.52-.1.3-.16.86.26a2.82,2.82,0,0,1,.36.28l-3.83,0Zm5.23-.73,0,0,0,0Zm0,0,0,0,0,0Zm-1.84-.1,0,0,0,0Zm0,0,0,0,0,0Zm.93.59V63.88s0,0,0,0l.21,1c.07.33.13.69.2,1l.1.52c.11.5.17.3-.25.86a3.76,3.76,0,0,1-.28.36Zm.93-.47,1.55-1.55a2.82,2.82,0,0,1-.24.4l-.77,1.15a1.7,1.7,0,0,0-.28-.06c-.18,0-.13,0-.26.06Zm1.58-1.57,0,0,0,0Zm-3.47,1.42-1.52-1.52c.1,0,1,.63,1.13.74a2.06,2.06,0,0,0,.39.24c-.13.57,0,.33,0,.54Zm-1.52-1.52,0,0,0,0Zm0,0,0,0,0,0Zm1.59.76-.3-.19-.31-.2c-.13-.09-1.81-1.23-1.87-1.23a.13.13,0,0,0-.12.12c0,.06.76,1.16.8,1.23.15.22.27.41.42.62a7.09,7.09,0,0,1,.4.63,4,4,0,0,0-.46.08l-1.38.29-.92.18-.68.13c-.19,0-.19,0-.19.16v0c0,.1.21.11.39.14l3.24.65c-.15.27-1.62,2.41-1.62,2.48a.14.14,0,0,0,.12.12c.05,0,.54-.35.62-.39l1.23-.83.31-.2a1.66,1.66,0,0,1,.32-.2l.69,3.44c0,.18,0,.19.16.19h0c.11,0,.11-.22.15-.39.14-.72.34-1.63.46-2.32l.13-.68c0-.07,0-.16.05-.24l.32.2,1.85,1.23a.74.74,0,0,0,.36.19l.07-.1a4.39,4.39,0,0,0-.39-.64l-.42-.62-.41-.62a5.82,5.82,0,0,1-.4-.62l3.44-.69c.18,0,.19,0,.19-.15v0c0-.09-.08-.09-.17-.11l-.22,0-3.24-.64a7.09,7.09,0,0,1,.4-.63c.15-.22,1.18-1.7,1.22-1.87l-.09-.11a4.56,4.56,0,0,0-.65.4l-1.23.83-.31.2a1.87,1.87,0,0,1-.32.2,3.58,3.58,0,0,0-.09-.45c0-.17-.06-.3-.09-.47l-.51-2.52c0-.18,0-.2-.16-.2h0c-.09,0-.09.09-.1.17L169,66.29Z" transform="translate(0)" style="fill: #152443;fill-rule: evenodd"/>
      </g>
    </g>
  </g>
</svg>
