<svg width="0" height="0" class="hidden">
  <symbol xmlns="http://www.w3.org/2000/svg" viewBox="0 0 68.75 67.22" id="shield">
    <title>shield</title>
    <path d="M67.25 18.72L50.88 1.5s-4.63 3.33-8.74 3.33-7.75-3.33-7.75-3.33-3.67 3.33-7.78 3.33-8.73-3.33-8.73-3.33L1.5 18.72c2 1.06 5.79 3.87 5.75 8.43C7.17 36 4.17 38.07 4.17 41.94c0 6.12 4.89 17.23 15.66 17.23s14.56 6.55 14.56 6.55 3.75-6.55 14.53-6.55 15.66-11.11 15.66-17.23c0-3.87-3-6-3.08-14.79-.04-4.56 3.76-7.37 5.75-8.43z"
      fill="none" stroke="#424a66" stroke-linecap="round" stroke-linejoin="round" stroke-width="3"></path>
    <path d="M55.18 29H13.75s-4.37.15-4.37 11.78 10.88 13.55 15.7 13.55c4.28 0 8.43 3.23 9.3 3.94v.14l.08-.07.09.07v-.14c.86-.71 5-3.94 9.29-3.94 4.82 0 15.71-1.92 15.71-13.55S55.18 29 55.18 29zm4.37-11.35l-9.78-9.19a14.91 14.91 0 0 1-7.63 1.78 15.35 15.35 0 0 1-7.7-1.78 15.1 15.1 0 0 1-7.66 1.78 14.91 14.91 0 0 1-7.63-1.78l-9.77 9.19c4.07 5.41 3.77 7.63 3.77 7.63h42.62s-.3-2.22 3.78-7.63z"
      fill="#4a84b8"></path>
  </symbol>
  <symbol xmlns="http://www.w3.org/2000/svg" viewBox="0 0 90.28 90.28" id="compas">
    <title>compas</title>
    <path d="M45.14 10.06a35.08 35.08 0 1 0 35.08 35.08 35.07 35.07 0 0 0-35.08-35.08zM45 50.52a5.1 5.1 0 1 1 5.1-5.09 5.09 5.09 0 0 1-5.1 5.09z" fill="#4a84b8"></path>
    <circle cx="45.14" cy="45.14" r="42.64" fill="none" stroke="#3b4567" stroke-miterlimit="10" stroke-width="5"></circle>
    <path d="M43.14 15.65v7.55m4-7.55v7.55m-4 44.45v7.55m4-7.55v7.55m21.1-28.06h7.56m-7.56-4h7.56m-60.56 4h7.56m-7.56-4h7.56" fill="none" stroke="#fff" stroke-linecap="round" stroke-linejoin="round" stroke-width="2"></path>
    <path d="M64.91 25.28L42.38 37.75a11.83 11.83 0 0 0-4.67 4.66L25.28 64.8l.36.2 22-12.19a11.89 11.89 0 0 0 4.67-4.66L65 25.33zM45 50.39a5.1 5.1 0 1 1 5.1-5.1 5.1 5.1 0 0 1-5.1 5.1z" fill="#3b4567"></path>
  </symbol>
  <symbol xmlns="http://www.w3.org/2000/svg" viewBox="0 0 124.3 99.03" id="construct">
    <title>construct</title>
    <path d="M2.14 69.5h120a2.15 2.15 0 0 1 1.71 3.44l-10.08 13.28a2.14 2.14 0 0 0 1 3.33l5.34 1.74a2.15 2.15 0 0 1 1.32 2.86L120 97.71a2.15 2.15 0 0 1-2 1.29H8.66a2.14 2.14 0 0 1-1.74-3.39L8.13 94a2.12 2.12 0 0 0 .24-2.08L.17 72.48a2.14 2.14 0 0 1 1.97-2.98z"
      fill="#3b4567"></path>
    <path d="M38 29.28V11.06l-18.31 5.22v4.44L5 20.65V42.5h7.12v24.67H38V34.72h-5.09v-5.44zm-22.92 5.11h-4.94v-5h4.94zm6.67 0h-3.5v-5h3.5zm7.94 0h-4.78v-5h4.78zM96.61 31L87 26.22V0h-4.74a.31.31 0 0 0-.13 0L41.41 18.11v49.06h9.78V37.72L83.86 5v21.22L74.55 31a.84.84 0 0 0-.46.77v3.93a1 1 0 0 0 .29.69l3.94 4a.62.62 0 0 0 1-.11l4.34-7.11a.66.66 0 0 1 .58-.33h2.64a.55.55 0 0 1 .47.27l4.19 7a.75.75 0 0 0 1.16.15l4.11-3.9a.87.87 0 0 0 .27-.63v-3.9a.86.86 0 0 0-.47-.83zm-46.25 1.57l-3.85-14.81L82.8 1.24l1 1.7zm15.53 34.6h39.33a.64.64 0 0 0 .43-1.11l-16.31-15a5.6 5.6 0 0 0-7.58 0l-16.3 15a.64.64 0 0 0 .43 1.11z"
      fill="#4a84b8"></path>
  </symbol>
  <symbol xmlns="http://www.w3.org/2000/svg" viewBox="0 0 100.17 129.78" id="disp">
    <title>disp</title>
    <path d="M67.33 11.31a30.8 30.8 0 0 0-15.5-5h-1.41A31 31 0 0 0 20.6 45.57a60.55 60.55 0 0 0 40-23.27 60.87 60.87 0 0 0 20.69 17.23c0-.76.09-1.52.09-2.29a30.91 30.91 0 0 0-14.05-25.93z" fill="#4a84b8"></path>
    <ellipse cx="38.84" cy="47.91" rx="6.67" ry="4.05" fill="#4a84b8"></ellipse>
    <ellipse cx="63.74" cy="47.91" rx="6.67" ry="4.05" fill="#4a84b8"></ellipse>
    <path d="M17.74 62.55a17 17 0 0 1 0-34zm65.45-33.96a17 17 0 1 1 0 34z" fill="#3b4567"></path>
    <path d="M84.45 61.23S73 81.23 57.61 81.45" fill="none" stroke="#3b4567" stroke-miterlimit="10" stroke-width="3"></path>
    <rect x="42.95" y="77.01" width="14.67" height="8.22" rx="4.11" fill="#3b4567"></rect>
    <path d="M73.91 90.9h-13a41.9 41.9 0 0 1 10.28 21.33 35.13 35.13 0 0 0-21.63 12.07 35.14 35.14 0 0 0-21.66-12.08A41.91 41.91 0 0 1 38.18 90.9H24.93A52.14 52.14 0 0 0 0 129.78h98.84A52.14 52.14 0 0 0 73.91 90.9z" fill="#4a84b8"></path>
    <path d="M14.35 38.57a36.07 36.07 0 0 1 72.14 0" fill="none" stroke="#3b4567" stroke-miterlimit="10" stroke-width="5"></path>
  </symbol>
  <symbol xmlns="http://www.w3.org/2000/svg" viewBox="0 0 75.11 88.22" id="info">
    <title>info</title>
    <g fill="none" stroke-linecap="round" stroke-linejoin="round">
      <path stroke="#3b4567" stroke-width="6" d="M11 10.78h61.11v74.44H11z"></path>
      <path stroke="#3b4567" stroke-width="6" d="M3 71.96V3h55.41"></path>
      <path stroke="#4a84b8" stroke-width="5" d="M20.63 37.04h42.22m-42.22-13H35m-14.37 23h42.22m-42.22 10h42.22m-42.22 10h42.22"></path>
    </g>
  </symbol>
  <symbol xmlns="http://www.w3.org/2000/svg" viewBox="0 0 113.82 81.56" id="kabinet">
    <title>kabinet</title>
    <path fill="none" stroke="#3b4567" stroke-linecap="round" stroke-linejoin="round" stroke-width="6" d="M3 3h107.82v75.56H3z"></path>
    <g fill="#4a84b8">
      <path d="M43.4 39.83c-1.74 4.5-5.55 8.26-9.25 8.26-4.51 0-7.79-3.72-9.54-8.21-10.16 5.93-8.88 20.93-8.88 20.93 0 2.06 1.44 2.36 3.13 2.36h30.56c1.69 0 3.13-.3 3.13-2.36 0 0 1.01-15.05-9.15-20.98z"></path>
      <path d="M34.15 45.65c5.09 0 9.13-8.2 9.13-15s-4.12-12.28-9.21-12.28-9.22 5.5-9.22 12.28 4.21 15 9.3 15z"></path>
    </g>
    <path d="M91.47 38v-8.52a11.3 11.3 0 0 0-22.59 0V38a5.65 5.65 0 0 0-5.65 5.65v14.07a5.65 5.65 0 0 0 5.65 5.65h22.59a5.65 5.65 0 0 0 5.65-5.65V43.6a5.65 5.65 0 0 0-5.65-5.6zm-9.88 13.64v4.67a1.42 1.42 0 0 1-2.83 0v-4.67a2.83 2.83 0 1 1 2.83 0zM85.82 38H74.53v-8.52a5.65 5.65 0 1 1 11.29 0z"
      fill="#4a84b8"></path>
  </symbol>
  <symbol xmlns="http://www.w3.org/2000/svg" viewBox="0 0 113.82 81.56" id="kart">
    <title>kart</title>
    <path d="M4 40.78S38.81 91.3 75 52.19C88.08 38 94.45 28.33 110.82 33.44" fill="#fff"></path>
    <g fill="none" stroke="#4a84b8" stroke-linecap="round" stroke-miterlimit="10" stroke-width="4">
      <path d="M4 40.78a66.51 66.51 0 0 0 4.37 5.46"></path>
      <path d="M13.71 51.83C26.57 64 50.47 78.69 75 52.19c9.81-10.61 15.84-18.69 25.11-20" stroke-dasharray="13.577475547790527,7.758557319641113"></path>
      <path d="M104 32.1a29 29 0 0 1 6.86 1.34"></path>
    </g>
    <path d="M95.92 33.22A51.55 51.55 0 0 1 55.17 4.09" fill="#fff" stroke="#4a84b8" stroke-linecap="round" stroke-miterlimit="10" stroke-width="4" stroke-dasharray="14,8"></path>
    <path fill="none" stroke="#3b4567" stroke-linecap="round" stroke-linejoin="round" stroke-width="6" d="M3 3h107.82v75.56H3z"></path>
    <path d="M39.73 12.54a12.39 12.39 0 0 0-12.39 12.39c0 6.58 6 21.8 11.72 30.4a.75.75 0 0 0 1.27 0c5.4-9 11.78-23.8 11.78-30.39a12.39 12.39 0 0 0-12.38-12.4zm0 20.61a7.59 7.59 0 1 1 7.58-7.59 7.59 7.59 0 0 1-7.58 7.59z" fill="#4a84b8"></path>
  </symbol>
  <symbol xmlns="http://www.w3.org/2000/svg" viewBox="0 0 113.82 81.56" id="sea-pass">
    <title>sea-pass</title>
    <path fill="none" stroke="#3b4567" stroke-linecap="round" stroke-linejoin="round" stroke-width="6" d="M3 3h107.82v75.56H3z"></path>
    <g fill="#4a84b8">
      <path d="M41.16 39.78c-1.84 4.74-5.85 8.7-9.74 8.7-4.74 0-8.19-3.92-10-8.65-10.69 6.24-9.35 22-9.35 22 0 2.16 1.51 2.48 3.29 2.48h32.13c1.78 0 3.29-.32 3.29-2.48.01.03 1.07-15.83-9.62-22.05z"></path>
      <path d="M31.42 45.91c5.36 0 9.61-8.64 9.61-15.77s-4.34-12.92-9.69-12.92-9.7 5.78-9.7 12.92 4.43 15.77 9.78 15.77z"></path>
    </g>
    <path d="M92.6 24.78h-3.2a1.61 1.61 0 0 0 0 3.21h1.07A9.73 9.73 0 0 1 83 34.26v-7.88h1.6a1.6 1.6 0 0 0 0-3.2H83V21.3a4.81 4.81 0 1 0-3.21 0v1.88h-1.6a1.6 1.6 0 0 0 0 3.2h1.6v7.88A9.72 9.72 0 0 1 72.31 28h1.06a1.61 1.61 0 1 0 0-3.21h-3.2a1.6 1.6 0 0 0-1.6 1.77c0 2.9 4.07 11.05 12.82 11.05s12.82-8.15 12.82-11a1.6 1.6 0 0 0-1.61-1.83zm-11.21-9.61a1.6 1.6 0 1 1-1.61 1.6 1.6 1.6 0 0 1 1.61-1.6z"
      fill="#4a84b8"></path>
    <path fill="none" stroke="#4a84b8" stroke-linecap="round" stroke-linejoin="round" stroke-width="5" d="M64.35 44.32h31.92m-31.92 8h31.92m-31.92 8h31.92"></path>
  </symbol>
</svg>